<?xml version="1.0" standalone="no"?>
<!DOCTYPE svg PUBLIC "-//W3C//DTD SVG 20010904//EN"
 "http://www.w3.org/TR/2001/REC-SVG-20010904/DTD/svg10.dtd">
<svg version="1.0" xmlns="http://www.w3.org/2000/svg"
 width="1023.000000pt" height="1023.000000pt" viewBox="0 0 1023.000000 1023.000000"
 preserveAspectRatio="xMidYMid meet">
<metadata>
Created by potrace 1.11, written by Peter Selinger 2001-2013
</metadata>
<g transform="translate(0.000000,1023.000000) scale(0.100000,-0.100000)"
fill="#000000" stroke="none">
<path d="M1659 8749 c-75 -12 -146 -73 -170 -146 -10 -30 -12 -726 -12 -3493
1 -3186 2 -3458 17 -3493 24 -55 79 -104 134 -120 64 -18 1831 -17 1875 1 142
59 184 240 80 347 -70 73 -21 69 -885 69 -427 1 -779 4 -783 8 -7 7 -9 6388
-2 6395 3 2 362 4 798 4 l792 1 737 -737 c405 -405 752 -746 769 -758 46 -29
133 -32 190 -6 34 15 219 195 782 760 l737 741 768 -1 c423 0 783 0 799 -1
l30 0 0 -3200 c0 -1760 -2 -3201 -5 -3201 -3 -1 -356 -2 -785 -3 -778 -2 -780
-2 -821 -24 -73 -38 -114 -100 -119 -181 -5 -88 42 -168 123 -207 35 -17 86
-18 957 -18 l920 0 42 22 c51 27 98 83 110 131 5 21 9 1494 9 3496 l-1 3460
-28 47 c-32 56 -75 88 -137 105 -23 6 -1961 6 -1991 0 -15 -3 -42 -13 -60 -22
-19 -10 -345 -329 -725 -711 l-690 -693 -700 700 c-567 567 -707 702 -742 716
-39 14 -139 16 -1011 17 -532 1 -983 -2 -1002 -5z"/>
<path d="M3505 6041 c-50 -23 -89 -64 -111 -116 -15 -37 -16 -138 -17 -1201 0
-1139 1 -1161 20 -1205 27 -58 71 -98 133 -119 58 -20 121 -13 174 18 46 27
93 94 99 144 4 23 6 401 6 838 0 437 0 824 1 860 l0 65 585 -587 c322 -323
599 -595 617 -604 39 -20 126 -26 176 -11 30 9 149 123 631 604 326 326 594
593 595 593 0 0 1 -395 1 -878 1 -681 4 -885 14 -914 7 -21 29 -54 50 -75 103
-101 265 -80 338 44 l28 48 0 1175 0 1176 -26 49 c-48 94 -165 138 -265 100
-37 -14 -160 -132 -743 -717 l-698 -699 -694 695 c-497 499 -706 702 -736 716
-53 25 -125 25 -178 1z"/>
</g>
</svg>
