<svg xmlns="http://www.w3.org/2000/svg" viewBox="0 0 174.54 173.46">
  <defs/>
  <g data-name="Layer 2">
    <g data-name="Layer 1">
      <path d="M65 111.43c.35-6.76 2.87-11.48 7.1-14.81 7.26-5.73 15.07-10.75 22.45-16.33 8.56-6.48 17.49-12.63 25.21-20 10.62-10.2 15.24-23.45 15.51-38.14v-7.17a79.65 79.65 0 0124.31 23.19c35.23 51.37 4.89 123.86-56.5 134.45-8.22 1.42-16.85.62-25.29.49-1.37 0-3.11-1.67-4-3-8-11.89-8.91-24.8-4.26-38 6.59-18.71 19.46-30.75 39-35.41-16.7-3.02-30.78 2.35-43.53 14.73z"/>
      <path d="M29.12 152.05a86.18 86.18 0 01-21.07-28.37C-7.4 90.64-.19 51.13 26 25 51.39-.21 91.59-7.17 123.59 7.86c4.41 2.07 6 4.86 6.21 9.51.51 14.58-6.08 25.82-16.27 35.37s-22.18 15.51-34.67 21c-14.43 6.34-27.41 14.77-37.23 27.39-10.22 13.12-14.72 28-12.94 44.62.18 1.73.24 3.47.43 6.3z"/>
    </g>
  </g>
</svg>
