<svg xmlns="http://www.w3.org/2000/svg" viewBox="0 0 304.54 304.55">
  <defs/>
  <g data-name="Layer 2">
    <g data-name="Layer 1">
      <path d="M304.54 152.26c0 84.05-68.26 152.31-152.26 152.29A152.37 152.37 0 010 152.27C-.06 68.24 68.34-.1 152.4 0s152.15 68.27 152.14 152.26zm-2.54 0A149.73 149.73 0 00152.41 2.53C69.78 2.41 2.65 69.41 2.52 152.13S69.57 302 152.26 302A149.76 149.76 0 00302 152.28z"/>
      <path d="M152 31.88A120.24 120.24 0 01272.09 152c.05 66.23-53.93 120.2-120.12 120.11-66.34-.09-120.19-54-120-120.17S85.89 31.83 152 31.88zM270.43 152a118.43 118.43 0 00-236.86 0c0 65.26 53.21 118.47 118.44 118.44S270.43 217.24 270.43 152z"/>
      <path d="M28.47 78.48c0-.35-.08-.77.09-1 2-3.06 4.09-6.1 6.2-9.11a8.77 8.77 0 011.79-1.81 3.56 3.56 0 014.4-.28 3.69 3.69 0 011.73 4.2c-.26 1.1-.68 2.17-1 3.31.78-.68 1.51-1.32 2.25-2a4.52 4.52 0 015.47-.52c.61.32 1.19.67 1.77 1 1.58 1 1.58 1 2.62-.49h.38c0 .41.15.9 0 1.2a22.18 22.18 0 01-2.27 3.38 2.48 2.48 0 01-3.47.49c-.89-.5-1.73-1.11-2.58-1.67-2.11-1.38-3.37-1.17-5 .81-.31.4-.59.83-1 1.37 2.08 1.38 4.09 2.74 6.13 4.06.83.54 1.18-.27 1.67-.7a3.67 3.67 0 01.89-.43c0 .32 0 .72-.13 1q-2.29 3.41-4.66 6.75c-.14.2-.51.26-.77.38 0-.29-.14-.68 0-.86.88-1.18.37-1.87-.67-2.58-3.54-2.4-7-4.87-10.54-7.29-1.46-1-1.48-1-2.59.43a4.12 4.12 0 01-.35.37zM39 76.8c2.5-3 1.27-6.32-2.42-7a3.23 3.23 0 00-3.2 2.41 1 1 0 00.37.73c1.7 1.32 3.46 2.59 5.25 3.86zM217.59 34.16c-1.13 2.05-2.24 4.11-3.41 6.14-.53.93.08 1.28.66 1.77a4.09 4.09 0 01.63 1l-.34.23-8.3-4.78-.05-.37c.33 0 .75-.26 1-.13 1.23.78 1.89.26 2.52-.85 2.12-3.75 4.28-7.49 6.49-11.19.66-1.11.67-1.86-.6-2.4-.2-.08-.36-.24-.54-.71.35 0 .77-.19 1 0 3.24 1.8 6.48 3.63 9.69 5.49a8.1 8.1 0 011.59 1.29 3.6 3.6 0 01.91 4.63 3.78 3.78 0 01-4.39 2.05c-.91-.17-1.8-.42-2.73-.64.59.65 1.1 1.26 1.67 1.82a4.67 4.67 0 011.06 5.74c-.24.54-.5 1.08-.78 1.61-.93 1.72-.94 1.72.92 2.85a5 5 0 01-1.22.32 3.38 3.38 0 01-1.08-.37c-4.09-1.81-4.57-3.19-2.42-7.06 1.85-3.37 1.36-4.8-2.28-6.44zm.55-1c1.4.87 2.69 1.62 4.19.87a5 5 0 002.59-4c.17-1.17-1.46-2.85-2.65-2.83a1 1 0 00-.71.42c-1.15 1.8-2.26 3.65-3.42 5.55zM106.79 278a40.22 40.22 0 013.31 2.41 4.24 4.24 0 01-1.35 7.19 6.28 6.28 0 01-3 .37 25.44 25.44 0 01-4.83-1.19c-2.62-.89-5.2-1.92-7.78-2.93-.31-.12-.53-.49-.79-.74a2.72 2.72 0 011.08-.09 1.28 1.28 0 001.87-.89q2.45-6.54 5-13c.41-1.05-.15-1.35-.91-1.7-.27-.13-.46-.46-.69-.69.35-.05.74-.23 1-.13 3.1 1.08 6.21 2.16 9.27 3.35a13.38 13.38 0 013.12 1.72 3.28 3.28 0 011.3 3.95 3.48 3.48 0 01-3.47 2.54c-1 .01-2.02-.09-3.13-.17zm-4.38-.85c-.88 2.42-1.75 4.77-2.56 7.14a1.23 1.23 0 00.24 1.08 3.72 3.72 0 005.31-.79c2.62-4.26 1.38-6.18-2.45-7.35a5.16 5.16 0 00-.54-.06zm.42-1.11c3.24 1.68 4.85 1 5.78-2.28.58-2-.17-3.29-2.24-3.81a1 1 0 00-1.39.7c-.69 1.8-1.42 3.57-2.15 5.41zM202.76 25.91c1.05.74 2.09 1.4 3.05 2.17a3.85 3.85 0 011.46 4.22 4.43 4.43 0 01-3.27 3.32 8.62 8.62 0 01-5.29-.39c-3.54-1.23-7.05-2.58-10.57-3.87l-.11-.39c.34-.08.73-.32 1-.23 1.17.44 1.78.09 2.21-1.09 1.53-4.16 3.13-8.3 4.76-12.43.41-1 .29-1.68-.83-2.06-.27-.09-.44-.48-.65-.73.32 0 .69-.2 1-.1 3.3 1.18 6.6 2.34 9.85 3.62a11.75 11.75 0 012.93 1.79 3.2 3.2 0 01.95 3.73 3.31 3.31 0 01-3.13 2.43c-1.12.1-2.23.01-3.36.01zm-4.51-1c-.89 2.47-1.79 4.93-2.65 7.42a.87.87 0 00.23.74c1.21 1.08 4 1.06 4.94-.18 2.21-2.75 3.38-6.51-2-7.91-.12.02-.24.02-.52-.04zm.43-1.13c3.2 1.73 4.91 1 5.79-2.27.07-.29.15-.58.19-.87a2.9 2.9 0 00-3.06-3 1 1 0 00-.63.52c-.77 1.84-1.51 3.73-2.29 5.65zM273.74 75.76c-1.32-1.48-1.33-1.5-3.1-.47-1.4.81-2.78 1.67-4.36 2.63a25.31 25.31 0 0010.08 2.69l-.92-1.9.17-.29c.34.18.82.27 1 .56 1.15 1.7 2.25 3.43 3.33 5.17a2.37 2.37 0 01.1.87c-.27-.09-.66-.1-.79-.28a6.3 6.3 0 00-3.66-2.43c-1.43-.43-2.85-.88-4.26-1.36-.57-.2-.94-.2-1.23.43-1.55 3.37-3.24 6.69-4.64 10.12-.41 1-.07 2.32-.07 3.69-.1-.06-.53-.15-.7-.4-1.2-1.71-2.38-3.44-3.47-5.22a1.65 1.65 0 01.12-1.34c1.36-2.66 2.79-5.29 4.15-7.94a8.08 8.08 0 00.48-1.7l-.39-.27c-2.15 1.42-4.33 2.8-6.42 4.3-.25.18 0 1 0 1.56 0 .38.09.75.13 1.13l-.45.1-5.12-8.19.19-.35c.32.16.77.23.94.49.65 1 1.33 1.09 2.34.45q5.79-3.66 11.65-7.21c.95-.58.73-1.17.35-1.92a2.32 2.32 0 01-.05-.88c.29.14.7.21.85.44 1.39 2.15 2.74 4.33 4.07 6.52a2.69 2.69 0 01.13 1zM146.5 7.91h7c.31 0 .67.46.89.78 2.72 3.83 5.41 7.68 8.11 11.53.13.19.3.37.63.77V10.3c0-.39-.61-.9-1-1.09a11.34 11.34 0 00-2.32-.41c.54-.37.8-.69 1.06-.69 2.05 0 4.1.07 6.15.15.22 0 .43.28.65.43-.19.17-.34.44-.56.5-1.85.51-1.94.54-2.06 2.6-.27 4.52-.48 9-.71 13.57 0 .42 0 .84-.07 1.32a14.28 14.28 0 00-1.73.17c-.9.21-1.37-.21-1.86-.92-3.16-4.67-6.37-9.3-9.56-13.95-.14-.21-.31-.4-.63-.83-.1 1.39-.22 2.55-.25 3.71 0 2.65-.1 5.3-.08 8 0 2.09.26 2.3 2.3 2.6a3.1 3.1 0 01.76.15 2.75 2.75 0 01.52.41c-.2.15-.4.45-.59.44q-3.47 0-6.92-.17c-.22 0-.43-.27-.65-.42.2-.16.4-.47.59-.46 1.51.06 2-.84 2.11-2.15.34-4.22.71-8.43 1-12.65.09-1.2-.59-1.77-1.75-1.91a5.14 5.14 0 01-1.21-.47zM274.7 123c-1.29-4.21-1.75-7.56-1.11-8 .06 0 .16.1.19.17.89 2 .9 2.11 3.13 1.77 4-.6 8.09-1.32 12.13-2a1.5 1.5 0 001.42-1.77 5 5 0 01-.06-1c0-.2.24-.37.37-.56.16.14.44.26.48.43.5 2.16 1 4.32 1.42 6.5.05.27-.28.67-.51.94q-4.7 5.43-9.4 10.84a1.08 1.08 0 00-.26.8c3.35-.88 6.71-1.72 10-2.7.44-.13.77-1 .91-1.6a4.64 4.64 0 00-.18-1.62l.32-.25c.24.25.61.47.68.76q.69 2.92 1.27 5.88c.05.24-.11.52-.17.78-.25-.15-.68-.26-.73-.46-.36-1.52-1.38-1.64-2.66-1.38-4.77.94-9.55 1.86-14.32 2.79l-.63.1a15.57 15.57 0 01-.79-2.36 1.71 1.71 0 01.53-1.16q5.53-6.3 11.13-12.58a2.17 2.17 0 00.59-1.21c-4.06 1-8.13 2-12.17 3-1.53.41-.91 1.78-.94 2.83a6 6 0 01-.29 1.12zM26.16 145.75c1.08 2.19 0 3.3-1.62 4.48-4.18 3-8.2 6.16-12.28 9.26-.2.14-.37.31-.88.75h2.85c3.08-.09 6.15-.14 9.22-.34 1.85-.12 2-.42 2.17-2.31 0-.52-.32-1.42 1.07-1.26v7.62c0 .15-.21.3-.32.46-.17-.14-.5-.28-.5-.42 0-2-1.41-2.13-2.9-2.17-4-.13-7.94-.28-11.91-.42a1.63 1.63 0 00-1.94 1.7 5.63 5.63 0 01-.45 1.37l-.54-.13a37 37 0 000-4.94c-.26-1.88.37-2.94 1.93-4 3.46-2.43 6.71-5.16 10-7.76a1 1 0 00.36-.75c-3.47.23-6.95.41-10.41.73-.39 0-.8.73-1.06 1.2-.17.31 0 .77-.13 1.13a2.74 2.74 0 01-.5.7c-.14-.26-.39-.51-.4-.78v-2.82c0-.94-.09-2.05-.07-3.07a2.77 2.77 0 01.41-.92l.36.14a5.64 5.64 0 01.25 1 1.37 1.37 0 001.52 1.37c2.78.08 5.55.2 8.33.24 2.48-.02 5-.06 7.44-.06zM198.92 278.61l1 .06a4.1 4.1 0 013.64 2.42 4.37 4.37 0 01-.39 4.61c-1.9 2.64-7.8 4.61-10.92 3.64a4.4 4.4 0 01-2.08-7.12c.33-.38.7-.73 1.15-1.18a8.42 8.42 0 00-.83-.18 3.33 3.33 0 01-3-2.25 3.79 3.79 0 01.83-4 10.53 10.53 0 016.46-3.07 8.49 8.49 0 012.8 0 3.68 3.68 0 012.93 2.74 3.33 3.33 0 01-1.05 3.59 3.4 3.4 0 01-.78.41zm-5.67 4.81a26.43 26.43 0 001.6 3.4 2.59 2.59 0 004.68-1.6 10.66 10.66 0 00-1.11-3.58 2.5 2.5 0 00-3.1-1.13 3.42 3.42 0 00-2.07 2.91zm3.49-6.48a13.6 13.6 0 00-1.57-3.09 2.53 2.53 0 00-2.22-.61 2.48 2.48 0 00-1.45 1.76 8.06 8.06 0 001 3.43 1.94 1.94 0 002.45.86c1.05-.29 1.46-1.17 1.79-2.35zM96 264.71c-.73 1.26-1.44 2.53-2.21 3.76-.13.23-.49.32-.75.47-.1-.27-.32-.56-.29-.82.42-3.52-.38-4.87-3.82-6.21a1.21 1.21 0 00-1.09.39c-1.11 1.71-2.14 3.47-3.3 5.38a13.87 13.87 0 003 1.42 6 6 0 002.38-.39 9.58 9.58 0 001-.37l.15.32-3.43 5.77c-.22-.37-.53-.64-.51-.9.16-3.19 0-3.49-3.08-4.88-1.16 2.14-2.37 4.28-3.46 6.48-.13.25.23 1 .56 1.17 3.15 1.95 5 3 8.77.31.26-.18.7-.1 1.06-.14l.11.37c-.56.75-1.11 1.5-1.68 2.23s-1.18 1.46-1.76 2.18l-14.42-8.19v-.35c.35 0 .8-.23 1-.08 1.12.7 1.74.32 2.33-.74q3.3-5.86 6.7-11.66c.54-.92.52-1.56-.49-2.08-.21-.11-.28-.49-.42-.75.28 0 .63-.14.84 0 4.23 2.4 8.49 4.84 12.81 7.31zM209.86 274.29a6.54 6.54 0 015.24-4.64 4.82 4.82 0 015.18 2 5.14 5.14 0 01.44 6 9.47 9.47 0 01-8.37 4.57 4.86 4.86 0 01-2.85-1c-3.45-2.69-5.28-6.26-4.75-10.69.46-3.81 5.89-7.38 9.58-6.42.66.17 1.57.89 1.64 1.45s-.62 1.41-1.18 1.89-1.43.28-2-.35a4.16 4.16 0 00-.91-.7 2.24 2.24 0 00-3.54 1.81c-.23 2.1.57 3.93 1.52 6.08zm7.78 3.09a6.33 6.33 0 00-1.88-3.89 2.75 2.75 0 00-3.52-.38 2.67 2.67 0 00-1.32 3.17 6.18 6.18 0 002.9 3.74c1.82.98 3.84-.25 3.82-2.64zM168.78 26.84c.36-.1.76-.36 1.07-.28 1.16.27 1.62-.18 1.85-1.29q1.32-6.6 2.77-13.16c.27-1.21 0-1.88-1.29-2a1.63 1.63 0 01-.45-.2l-.06-.4a3.18 3.18 0 011.11-.18c4.73.95 9.44 1.94 14.24 2.94-.3 1.41-.61 2.9-1 4.38-.05.21-.34.37-.52.55-.18-.23-.48-.43-.53-.68-.68-3.43-2-4.6-5.55-4.71a1.14 1.14 0 00-.89.58c-.37 1.18-.65 2.39-.92 3.59-.19.83-.31 1.67-.51 2.72a12.6 12.6 0 003.58.34c.95-.19 1.77-1.08 2.9-1.82-.54 2.43-1 4.53-1.59 7.08-.37-.56-.69-.84-.74-1.15-.4-2.51-1.64-3.47-4.44-3.28-.43 2.27-.86 4.57-1.3 6.87-.16.81.34 1 1 1.22 3.36 1 6.34.8 8.42-2.52.13-.2.53-.22.8-.32.05.28.22.61.14.86-.51 1.53-1.08 3-1.66 4.61L169 27.27zM29.68 95.82c2.15 1 4.25 1.92 6.33 2.9.78.36 1.15 0 1.53-.62 2.23-3.84 2.11-5.5-1-9.56.65 0 1.1-.14 1.37 0 1.37.85 2.7 1.78 4.11 2.73-1.23 2.55-2.45 5-3.64 7.51s-2.34 5-3.51 7.53h-.47c0-.36-.2-.8-.06-1.09.55-1.11.16-1.69-.89-2.18q-6.14-2.9-12.23-5.88c-.92-.45-1.49-.37-1.93.6-.12.28-.51.43-.78.64l-.31-.31 6.61-14c1.34.66 2.73 1.32 4.08 2a.73.73 0 01.32.64c-.06.19-.4.31-.64.38s-.33 0-.5-.06c-2.48-.32-3.46.13-4.58 2.33-1.6 3.16-1.66 2.37 1.21 3.94 1.23.67 2.52 1.24 3.93 1.93a13.84 13.84 0 001.21-3 6 6 0 00-.58-2.25 8 8 0 00-.45-1l.32-.18 6.09 3.06c-.51.23-.81.5-1.11.49-2.8-.13-3.48.37-4.43 3.45zM272 112.66l-6.18-15.4.22-.32c.29.22.73.38.85.67.44 1.15 1.13 1.27 2.2.83 4.19-1.71 8.39-3.37 12.6-5 .93-.36 1.34-.81.89-1.82-.12-.27 0-.68.06-1h.43l5.81 14.34-5.11 2c.19-.64.18-1.12.41-1.31 2.84-2.32 2.53-3.38.88-7.22a1.16 1.16 0 00-1.06-.4c-1.94.64-3.84 1.38-6 2.17a18.53 18.53 0 001.56 3.12c.39.52 1.27.69 1.94 1a9.19 9.19 0 001 .34l-.06.37-6.36 2.41c.15-.52.14-.93.35-1.13 2-2 2.13-3 .45-5.63-2.14.9-4.28 1.83-6.45 2.71-.76.31-.79.79-.55 1.44 1.32 3.5 2 5.48 6.69 5.67.26 0 .51.3.76.45-.24.24-.43.62-.71.69-1.49.3-3.03.64-4.62 1.02zM230.83 263.14a6.4 6.4 0 01-4.37 4.33 4.65 4.65 0 01-5.12-1 5.15 5.15 0 01-1.49-5.39c1-3.53 5.81-6.56 9.23-5.83a5.45 5.45 0 011 .3c3.37 1.45 6.87 7.11 6.51 10.77a6.08 6.08 0 01-1 2.82 10.53 10.53 0 01-6.11 4.19 3.33 3.33 0 01-1.76.1c-.67-.22-1.63-.67-1.73-1.17a3.09 3.09 0 01.81-2.11c.55-.71 1.34-.56 2.06-.05a5.71 5.71 0 001.25.65c1.84.73 3.61-.47 3.22-2.4a37.82 37.82 0 00-1.91-5.34zm-.94-1.48a7.16 7.16 0 00-3.62-4.05 2.19 2.19 0 00-3.2 2.19 5.15 5.15 0 002.8 4.32 2.79 2.79 0 004.02-2.46zM11.28 179.8c1 2.34 1 2.43 3 2.08 3.4-.6 6.81-1.24 10.17-2 2.44-.57 3.27-1.7 3.23-3.79-.05-2.46-1.32-4.43-3.56-4.65a28.7 28.7 0 00-6.47.32c-1.94.25-3.84.83-5.76 1.23a1.46 1.46 0 00-1.31 2 4.59 4.59 0 01-.09 1.42H10c-.43-2.19-.86-4.38-1.26-6.58 0-.12.34-.31.53-.47 1.06 2 1.06 1.93 3.3 1.62 3.09-.43 6.17-.88 9.28-1.16 3.62-.33 5.91 1.21 6.94 4.69a17.27 17.27 0 01.68 4.79c0 3-1.33 4.75-4.23 5.44s-5.94 1.22-8.92 1.81l-1.38.27c-1.07.2-2.24.29-1.7 1.94 0 .13-.22.37-.34.57-.19-.17-.51-.3-.55-.5q-.81-3.94-1.53-7.92c-.09-.25.18-.55.46-1.11zM104.29 34.6c-1.21-1.49-2.26-2.83-3.39-4.11a1.2 1.2 0 00-1.06-.19 20.81 20.81 0 00-2.24.94c-2.49 1.09-2.49 1.09-2.15 3.77 0 .34.13.67.18 1 .32 2.06.44 2.14 2.47 1.63a3.59 3.59 0 011 0v.44c-2.12.95-4.24 1.91-6.38 2.84-.16.07-.43-.09-.65-.14.06-.22.06-.56.2-.63C94 39.39 94 38 93.9 36.45c-.19-5-.37-10-.51-15a1.48 1.48 0 01.58-1c.91-.63 1.9-1.15 3-1.8.28.31.62.67.94 1L108 31.07c.8.9 1.64 1.63 3 1 .2-.09.56.16.85.26v.32c-1.66.72-3.33 1.43-5 2.16-1.13.5-2.24 1-3.39 1.51-.18.08-.47-.12-.71-.19.08-.2.11-.46.26-.6a14.24 14.24 0 011.28-.93zM95.13 31l4.61-2-4.9-6.06-.28.15c.19 2.58.37 5.16.57 7.91zM241.48 62.92c-2.29-1.91-4.59-3.82-6.87-5.75-.18-.14-.2-.47-.29-.71.29 0 .67-.15.84 0 1 .77 1.47.39 1.88-.62.56-1.38 1.22-2.72 1.87-4.16l-4.47-3.78c-1.19.79-2.34 1.52-3.45 2.3-1.27.89-1.27 1.24-.27 2.43a7.43 7.43 0 01.66 1.21l-.39.25-5.66-4.76v-.36c.37 0 .81-.08 1.09.09a2.56 2.56 0 002.68.08c4.95-2.59 9.89-5.21 15-7.89l3.45 2.22c-.27.64-.56 1.33-.84 2q-2.73 6.69-5.45 13.39c-.44 1.11-.76 2.22.45 3.13.17.13.09.58.12.88zm1.2-19.42l-.21-.24-6.9 4 3.85 3.24zM113.5 25.43c.49 1 .73 1.58 1.06 2.12a5.12 5.12 0 007 1.88 2.64 2.64 0 001.52-2.73 2.59 2.59 0 00-2.1-2.42c-1.87-.46-3.72-1-5.57-1.5-2.58-.76-3.9-2.22-4.1-4.51a5.45 5.45 0 013.06-5.47c1.7-1 3.16-1.2 6.33-1.06l1-1.31.3.19c.31 1.76.64 3.51.9 5.28 0 .23-.33.52-.54.83a26.57 26.57 0 00-1.59-2.52 3.58 3.58 0 00-3.52-1.39 2.78 2.78 0 00-2.47 2.56 2.6 2.6 0 002 2.87c1.93.54 3.89 1 5.84 1.45 2.2.5 3.7 1.63 4.12 4a5.16 5.16 0 01-2.35 5.42c-3.1 2.2-6.67 2.63-10.39 2.67-.36-1.77-.74-3.43-1-5.1 0-.29.25-.64.5-1.26zM293.4 180.88l.8 1.59-.35.27c-1.78-.82-3.81-1-5.63-1.7l.22-.58c.84-.12 1.7-.16 2.51-.36a3.62 3.62 0 002.94-2.87 2.78 2.78 0 00-1.36-3.16 2.64 2.64 0 00-3.46.69c-1.3 1.59-2.53 3.23-3.77 4.86a4.67 4.67 0 01-5.11 2.06 5.08 5.08 0 01-4-4c-.91-3.67.1-7.1 1.53-10.45a.93.93 0 01.77-.4c1.51.29 3 .63 4.49 1 .28.07.47.47.82.84a23.93 23.93 0 00-3.19.42 5.09 5.09 0 00-3.51 6.12 2.58 2.58 0 002 1.9 2.46 2.46 0 002.64-.84c1.28-1.55 2.5-3.14 3.81-4.67 1.75-2.06 3.55-2.61 5.78-1.85a5.53 5.53 0 013.73 5.17 9 9 0 01-1.66 5.96zM52.49 65.47c1.67 1.25 3.35 2.12 5.42 1.51a5.26 5.26 0 003.21-2.57A2.6 2.6 0 0061 61.3a2.63 2.63 0 00-3.08-.95c-2 .59-3.91 1.21-5.88 1.77a4.71 4.71 0 01-5.23-1.43 5.13 5.13 0 01-1-5.61A8.81 8.81 0 0151 50l.23-2c1.46 1.61 2.64 2.9 3.79 4.21.13.16.06.49.09.75a2.76 2.76 0 01-.76 0c-1.24-.36-2.47-1.08-3.7-1.09a3 3 0 00-2.59 4.57 2.76 2.76 0 003.4 1c1.83-.57 3.66-1.17 5.46-1.82a4.68 4.68 0 015.5 1.14 5.16 5.16 0 011 5.83c-1.43 3.54-4.25 5.79-7.31 7.79-2.11-1.5-4.11-4.08-3.62-4.91zM277.87 137.53h4.79a3.23 3.23 0 011.11.47 4 4 0 01-.94.56c-3.24.77-5 3.41-4.21 6.5a2.75 2.75 0 002.49 2.38 2.71 2.71 0 002.85-1.74c.83-1.78 1.7-3.53 2.58-5.28a4.81 4.81 0 014.95-2.94 5.18 5.18 0 014.66 3.46 8.52 8.52 0 010 6.89l1.14 1.49h-5.43c-.22 0-.44-.24-.67-.38a3 3 0 01.6-.62 18.58 18.58 0 003-1.61 3.22 3.22 0 00.68-3.88 2.63 2.63 0 00-2.75-1.47 2.67 2.67 0 00-2.31 1.77q-1.26 2.73-2.51 5.47a4.58 4.58 0 01-4.33 3 5.1 5.1 0 01-4.89-2.9c-1.49-2.75-1.51-5.73-1.25-8.74.1-.76.29-1.55.44-2.43zM243.29 64.6c1.43-1.12 2.76-2.2 4.13-3.21.24-.17.69-.06 1.27-.09a24.68 24.68 0 00-1.62 2.28 5.11 5.11 0 001.63 6.69 2.65 2.65 0 003.23.14 2.61 2.61 0 001.17-3c-.47-2.12-.93-4.25-1.2-6.41a5.1 5.1 0 016.66-5.43 9 9 0 015.59 6.07l2 .44c-1.76 1.29-3.15 2.33-4.57 3.33-.18.13-.5 0-.76.06a3.36 3.36 0 01.13-.85 16 16 0 001.39-3c.48-2.1-1.53-4.25-3.44-3.87a2.82 2.82 0 00-2.22 3.58c.41 1.92.86 3.83 1.31 5.74a4.7 4.7 0 01-1.58 5.18 5.1 5.1 0 01-5.65.64c-3.65-1.69-5.69-4.89-7.47-8.29zM68.31 246.11c2.07 1.64 4.14 3.3 6.23 4.92s4.14 3.14 6.26 4.74l-3.73 4.44c-.11-.62-.31-1-.2-1.3 1.44-3.58.51-4.52-3.12-7.18a1.08 1.08 0 00-1 .21c-1.41 1.66-2.76 3.36-4.31 5.29a27.71 27.71 0 003.49 2.19c.53.24 1.34-.14 2-.22a8.42 8.42 0 01.87 0 2.24 2.24 0 01-.2.76c-1.15 1.54-2.32 3.06-3.64 4.79-.17-.32-.49-.64-.44-.89.56-3.25.17-4.1-2.82-5.73-1.31 1.76-2.68 3.51-3.93 5.33a1.56 1.56 0 00.16 1.39c.36.55 1 .95 1.45 1.77-.33 0-.77.14-1 0-2.57-2-5.11-4-7.65-6.36.35 0 .82-.1 1 .08 1 .83 1.61.53 2.31-.37q4.19-5.43 8.46-10.79c.64-.8.53-1.32-.24-1.91-.26-.2-.31-.66-.46-1zM13.5 116.87l14-1c-.6-.5-.89-.78-1.21-1-3-2.08-6.07-4.14-9.09-6.22-.95-.65-1.53-.47-1.87.65-.14.46-.14 1.35-1.1.82.46-3.27 1.73-6.78 2.74-6.94-1 2.35.72 3.41 2.16 4.53 3.74 2.91 7.5 5.81 11.31 8.62.92.68 1.37 1.26.83 2.38a8.51 8.51 0 00-.41 1.57c-3 .28-6.09.55-9.14.85-2.68.25-5.36.54-8 .81a2.47 2.47 0 00-2.41 1.76c-.08.24-.44.39-.68.58l-.33-.28c.87-3.14 1.73-6.28 2.62-9.41 0-.1.44-.1.81-.17zM73.18 32.77c-2.86 1.64-3.13 2.18-2.7 5.15.07.5.23 1 .25 1.51a2.62 2.62 0 01-.27.85c-.24-.16-.59-.27-.7-.49-.8-1.55-1.55-3.13-2.3-4.67l14.68-9.34C84 28.21 85 30.47 84.54 31a19 19 0 00-4.22-2.22c-.86-.21-2 .71-3 1.14a2.84 2.84 0 00.22.66c2.55 4 5.09 8 7.68 12 .95 1.46 1 1.4 2.56.61a6.73 6.73 0 011.52-.34 6.34 6.34 0 01-1.09 1.16c-2.53 1.67-5.09 3.29-7.66 4.9a3.62 3.62 0 01-1.12.3l-.18-.46c.59-.46 1.18-.92 1.78-1.37a1 1 0 00.3-1.54c-2.73-4.37-5.41-8.69-8.15-13.07zM147.44 286.34a9.6 9.6 0 017.38-1 5 5 0 014.05 5 5.09 5.09 0 01-3.59 5.44 11.69 11.69 0 01-8.16-.16 4.61 4.61 0 01-2-1.38c-.38-.48-.68-1.53-.42-1.9a3.36 3.36 0 012.07-1.19c.44-.06 1.1.61 1.49 1.09s.71 1.47 1.22 2.08a2.31 2.31 0 004-.55 6.4 6.4 0 00.16-5.11c-.87-2.17-3.73-2.66-6-1.09-.34.24-.77.66-1 .59-.59-.14-1.15-.44-1-1.33.27-2.34.41-4.68.67-7 0-.33.47-.89.72-.9 3.63 0 7.26.08 10.89.14.11 0 .22.11.54.28a24.18 24.18 0 01-1.16 2.47c-.13.22-.66.28-1 .28-2.26 0-4.53 0-6.79-.07-.9 0-1.33.26-1.44 1.18s-.41 1.93-.63 3.13zM277.68 163.54l.51-9.19.27-.22c.19.26.56.53.55.77-.1 1.3.56 1.71 1.74 1.77q6.86.32 13.7.73c1 .06 1.15-.61 1.31-1.35.07-.3.36-.54.55-.8a2.91 2.91 0 01.32.94q-.12 3.78-.35 7.55c0 .3-.32.57-.49.86-.16-.29-.44-.58-.44-.88 0-.89-.34-1.3-1.28-1.35q-7-.31-14-.73c-1-.06-1.41.32-1.5 1.28 0 .31-.34.6-.53.9zM10.12 128.84c.16.31.46.63.43.92-.09 1 .32 1.48 1.33 1.6q6.72.84 13.45 1.76c1.06.14 1.75-.07 1.87-1.29 0-.23.38-.43.59-.64.11.28.35.57.32.83q-.46 3.94-1 7.87c0 .27-.33.49-.5.74-.15-.28-.46-.59-.42-.84.15-1.17-.39-1.6-1.47-1.74q-6.6-.86-13.19-1.79c-1.09-.15-1.84 0-2 1.31 0 .25-.35.47-.53.7-.12-.3-.38-.63-.34-.92.34-2.79.73-5.57 1.1-8.36zM64.05 38.82a9.47 9.47 0 01-.8.91c-.84.66-.71 1.29-.08 2.05 2.73 3.23 5.4 6.5 8.13 9.73 1.46 1.72 1.49 1.69 3.73.5-.14.55-.11 1-.29 1.13C72.5 55 70.22 56.9 68 58.77l-.37-.16c.13-.34.16-.79.4-1 .84-.71.81-1.34.12-2.16q-4.45-5.23-8.79-10.55a1.26 1.26 0 00-2-.21 2.79 2.79 0 01-1 .23l-.11-.4c2.21-1.87 4.4-3.75 6.63-5.59.12-.16.52-.07 1.17-.11zM179.68 275.57L182.4 289a5.28 5.28 0 01.18.88c.08 1.35.75 1.8 2 1.44a2.25 2.25 0 01.89-.06c.2 0 .38.23.56.36-.15.21-.26.56-.45.6-3.09.65-6.19 1.28-9.29 1.86-.24.05-.54-.22-.81-.34.21-.22.38-.54.63-.63 2.28-.86 2.28-.85 1.79-3.18-.65-3.17-1.34-6.35-1.92-9.54-.22-1.23-.77-1.72-2-1.55a2.21 2.21 0 01-.77 0 2.33 2.33 0 01-.6-.32c.15-.21.26-.54.46-.61 2.17-.79 4.3-1.52 6.61-2.34zM139.29 278.11c0 .42 0 .83-.07 1.24-.5 4.36-1 8.74-1.55 13.09-.19 1.35.2 1.93 1.5 2a2 2 0 01.75.15 3.14 3.14 0 01.58.52c-.24.16-.5.48-.72.46-1.58-.13-3.14-.33-4.71-.51s-3-.32-4.45-.54c-.29-.05-.55-.36-.82-.56a3.69 3.69 0 01.86-.44 4 4 0 011.15 0c.88.08 1.21-.39 1.31-1.2.41-3.64.8-7.29 1.29-10.93.19-1.36-.35-1.95-1.59-2.23-.37-.08-.67-.48-1-.73a4.22 4.22 0 011.1-.34c2.08.01 4.16.02 6.37.02zM276.47 220.68l-3.82-3.63-5 2.4c.84-1.57 1.47-2.85 2.19-4.08a1 1 0 00-.21-1.53 19.73 19.73 0 01-2.8-3.24c1.41.23 2.82.41 4.2.72a1 1 0 001.29-.63c.63-1.29 1.34-2.54 2.21-4.14.23 1.71.44 3 .6 4.36.09.81.33 1.28 1.29 1.36 1.35.12 2.68.47 4.37.78-1.51.75-2.72 1.41-4 1.94a1.26 1.26 0 00-.89 1.66c.25 1.35.38 2.65.57 4.03zM35.46 219.42L30.7 217l-3.4 3.77-.28-.14c.21-1.4.39-2.81.66-4.2a1.09 1.09 0 00-.72-1.39c-1.27-.59-2.49-1.26-4.08-2.08 1.77-.29 3.17-.56 4.59-.73.67-.08 1-.32 1-1 .18-1.43.46-2.86.76-4.65.8 1.55 1.48 2.81 2.07 4.1a1.12 1.12 0 001.4.74c1.38-.25 2.77-.45 4.59-.73-1.18 1.17-2 2.13-3 3a1.41 1.41 0 00-.38 2.15c.67 1.07 1.16 2.25 1.73 3.39zM162.19 299.54c.55-.92.94-1.44 1.2-2a2.76 2.76 0 00-.31-3.12c-1-1.26-1-2.31-.08-3a2.78 2.78 0 013.7.48 3 3 0 01.29 3.49 33.06 33.06 0 01-3.35 4.15c-.18.18-.81 0-1.45 0zM273 187a2.52 2.52 0 012.57-2.58 2.37 2.37 0 012.29 2.43 2.58 2.58 0 01-2.52 2.67A2.4 2.4 0 01273 187zM116.91 292.05a2.6 2.6 0 01-2.68-2.51 2.45 2.45 0 012.54-2.34 2.5 2.5 0 012.58 2.45 2.34 2.34 0 01-2.44 2.4zM243.12 263.53a2.34 2.34 0 01-2.31-2.39 2.76 2.76 0 012.64-2.61 2.37 2.37 0 012.37 2.47 2.71 2.71 0 01-2.7 2.53zM49.24 129c-2.32-3.92-4.58-7.79-6.91-11.62a2.4 2.4 0 01-.23-2.25A118.21 118.21 0 0152.37 93a5.71 5.71 0 016.3-2.82A6 6 0 0064 89a4.12 4.12 0 012-.87c2.41-.25 2.86-2.58 4.25-3.9.14-.14 0-.58 0-.87a12.32 12.32 0 01.5-2.87 6.18 6.18 0 00-.06-5.07 7.67 7.67 0 01-.54-3.6A5.26 5.26 0 0171.47 69a112.19 112.19 0 0119.86-15.57 2.18 2.18 0 012-.24c4.3 1.38 8.61 2.73 13 4.12.21-.49.4-.9.56-1.33 1.46-3.83 2.89-7.67 4.4-11.48a2.61 2.61 0 011.33-1.33 113.91 113.91 0 0124.21-5.94 5.22 5.22 0 015.54 3 6.23 6.23 0 004.39 3.58 3.59 3.59 0 011.68.88c1.69 1.73 3.79.74 5.7.93.19 0 .39-.29.61-.41a19.84 19.84 0 013-1.59 6.18 6.18 0 003.47-2.84 12 12 0 012.26-2.72 4.12 4.12 0 013.45-1 114.07 114.07 0 0125 6.06 2.25 2.25 0 011.14 1.19c1.52 3.81 3 7.64 4.44 11.46.17.44.35.87.59 1.45l4-1.25c3-1 6-1.91 9-2.92a2.13 2.13 0 012 .27 117.24 117.24 0 0119.15 14.78 5.3 5.3 0 011.41 6.38 6.44 6.44 0 00-.08 5.9 2.83 2.83 0 01.31 1.61c-.37 2.44 1.71 3.55 2.77 5.2.1.16.47.13.69.22a18 18 0 013.14 1.33 5.88 5.88 0 004.63.93 5.9 5.9 0 016.9 3.06 112.59 112.59 0 0110.34 22.4 2.56 2.56 0 01-.21 1.86c-2.25 4-4.58 7.9-6.93 11.93 3.21 2.13 6.3 4.36 9.56 6.3a5.75 5.75 0 013.15 5 117.26 117.26 0 01.05 22.79 5.27 5.27 0 01-4.19 4.4 6.66 6.66 0 00-4.75 3.7 3 3 0 01-1.08 1.24c-2.12 1.21-1.66 3.47-2.27 5.28a.29.29 0 000 .13c.56 2 1.05 4.09 1.74 6.09a4.9 4.9 0 001.57 1.95 6.61 6.61 0 012.08 7.91 119.87 119.87 0 01-10.55 21.18 3.36 3.36 0 01-2.74 1.68c-4.23.56-8.45 1.2-12.84 1.83.16 2 .31 3.86.47 5.76.22 2.69.48 5.37.64 8.06a2.27 2.27 0 01-.57 1.55 113.92 113.92 0 01-18.8 15.63 6.51 6.51 0 01-6.9-.5 6 6 0 00-5.37-1.33 3.23 3.23 0 01-1.9 0c-2.32-1-3.82.89-5.66 1.54-.17.06-.22.42-.37.62a22.29 22.29 0 01-2.1 2.85 5.27 5.27 0 00-1.78 3.84 7.55 7.55 0 01-3.22 6.24 3.2 3.2 0 01-.91.44 110.45 110.45 0 01-24.65 5.15 2.13 2.13 0 01-1.42-.58c-3-2.81-6.07-5.66-9.09-8.5l-1-.93-4.86 4.58c-1.65 1.56-3.31 3.1-4.92 4.7a2.37 2.37 0 01-2.13.74 115.73 115.73 0 01-23.3-4.85 6.54 6.54 0 01-4.47-5.67 6.55 6.55 0 00-2.52-5.48 2.83 2.83 0 01-1-1.31c-.72-2.37-3.08-2.44-4.74-3.47-.15-.09-.47.11-.72.12a21 21 0 01-3.54.13 5.21 5.21 0 00-4.1 1 7.46 7.46 0 01-6.76 1.42 3.34 3.34 0 01-1-.52 118.22 118.22 0 01-19.11-15.73 2.15 2.15 0 01-.6-2c.39-4.46.74-8.93 1.12-13.51l-9.32-1.33c-1.48-.21-3-.34-4.44-.62a2.16 2.16 0 01-1.3-.83 107.31 107.31 0 01-11.29-22.51c-.88-2.46.09-4.69 2-6.34a6.24 6.24 0 002.47-5 3.57 3.57 0 01.51-2c1.36-2-.12-3.84-.32-5.75 0-.16-.3-.28-.44-.43a32 32 0 01-2.46-2.88 5.78 5.78 0 00-3.42-2.51c-3.38-.85-5-2.89-5.27-6.33a110.94 110.94 0 01.52-23.68 2.62 2.62 0 011-1.57c3.4-2.37 6.86-4.66 10.3-7 .3-.08.64-.34 1.03-.61zm184 87.85c4.82-.66 9.64-1.3 14.45-2a2.41 2.41 0 001.46-1 110.56 110.56 0 0010.27-20.45c1-2.73.6-4.51-1.6-6.37a6.83 6.83 0 01-2.51-5.13 8.77 8.77 0 00-.31-1.76c-.16-.57-.46-.79-1.18-.84a24.27 24.27 0 01-4-.78 1.07 1.07 0 01-.7-.51c-.54-1.55-1.94-1.45-3.14-1.71-1.51-.32-3-.6-4.52-.91q-12.49-2.52-25-5a1.64 1.64 0 00-1.15.11c-2 1.48-2.42 1.54-4.37.48a10.07 10.07 0 01-2.61.91 10.93 10.93 0 01-2.69-.61 57.05 57.05 0 01-22.7 28.72 3.63 3.63 0 01.89 4.93c1.28 1.1 1.88 2.43 1 4a1.72 1.72 0 00-.06 1.86q6.33 13.94 12.61 27.89c.4.89.67 1.84 1.92 2 .34 0 .73.47.92.82a11 11 0 011.45 3.13c.29 1.66 1.35 1.56 2.43 1.36a7.83 7.83 0 016.61 1.58 4.39 4.39 0 005.29.34A106.87 106.87 0 00233.91 233a1.83 1.83 0 00.43-1.23c-.13-2.09-.37-4.17-.52-6.26-.21-2.89-.38-5.79-.56-8.68zm-80.93-119.1c-30.08-.09-55 24.34-54.75 54.63.23 31.79 25.23 54.62 54.74 54.62s54.33-22.79 54.68-54.42c.34-30.18-24.46-54.91-54.67-54.83zm44.26 12c1.1-1.74 2.22-2.36 3.62-1.83a1.75 1.75 0 001.93-.38q12.13-9.24 24.31-18.46c.77-.58 1.65-1 1.49-2.29a1.64 1.64 0 01.59-1.09 10.23 10.23 0 012.72-2.11c1.62-.62 1.25-1.69.81-2.65a7.74 7.74 0 01.11-6.91 3.79 3.79 0 00-1-4.73 109.6 109.6 0 00-18.23-14.08A2.54 2.54 0 00211 55c-2.67.77-5.3 1.65-7.94 2.5l-5.79 1.9.3 1.48 1.56-.95c.65.82 1.22 1.47 1.71 2.19.37.55.63 1.1 1.49.75.17-.07.57.42.87.66-.31.23-.7.72-.9.65-1.47-.47-3.48 0-3.94-2.32-.56.29-.93.48-1.29.69s-.78.49-1.18.75c-.63-1.36-.1-3.92.94-4.56-1.64-4.25-3.31-8.5-4.91-12.78a2.37 2.37 0 00-1.61-1.6 113.4 113.4 0 00-22.76-5.41c-2.39-.3-3.63.34-4.76 2.48-.06.11-.11.23-.17.34a6.72 6.72 0 01-4.13 3.41 6.26 6.26 0 00-1.87.8 1.88 1.88 0 00-.52 1.31c0 1.35.1 2.71 0 4.06 0 .44-.49.86-.72 1.31a3.38 3.38 0 00-.58 1.4c.1 6.24.25 12.48.4 18.73q.15 6.41.35 12.82c0 .42.14 1 .42 1.22 1.73 1.08 2 2.51 1.26 4.31a3.75 3.75 0 011.3 5 56.8 56.8 0 0133.26 15.81c1.14-2.01 2.65-2.76 4.78-2.17zM51.49 129.5l-1.06.77c-3.69 2.48-7.39 4.95-11 7.46a2.11 2.11 0 00-.91 1.23 109 109 0 00-.52 22.91c.26 3 1.32 4.14 4.17 4.89a6.69 6.69 0 014.3 3.24 12.17 12.17 0 001.07 1.58 1.17 1.17 0 001.63.33A15.68 15.68 0 0153 171c.48-.08 1 .33 1.54.48a2.7 2.7 0 001.25.22q15.47-3.87 30.9-7.84a1.8 1.8 0 001-.91 3 3 0 013.08-2c.31 0 .8 0 .89-.22.9-1.78 2.38-2.34 4.37-2.09a57.11 57.11 0 018.06-35.84c-2.45-1-2.73-1.43-3.22-4.21-1.84-.72-2.66-1.62-2.47-3.11a1.8 1.8 0 00-.84-1.79Q85.78 103.74 74 93.84c-.65-.55-1.2-1.15-2.23-.78a1.79 1.79 0 01-1.41-.41c-1.19-.94-2.3-2-3.54-3.07a7.23 7.23 0 00-1.78.76 7.72 7.72 0 01-6.87 1.44 3.86 3.86 0 00-4.32 2A115.89 115.89 0 0043.93 115a2.25 2.25 0 00.19 2.13c2.47 4.06 4.88 8.19 7.37 12.37zm55.93-70.1c-4.74-1.49-9.29-3-13.86-4.33a2.73 2.73 0 00-2 .25 110.07 110.07 0 00-18.21 14.09c-1.86 1.77-2.17 3.26-1.11 5.6a7.24 7.24 0 01.07 6 15.43 15.43 0 00-.57 2.31c1.52 1.12 2.82 2 4 3 .34.29.4.91.61 1.37s.34 1.07.7 1.35q12.65 9.65 25.34 19.22a1.49 1.49 0 001.11.28c2-.5 2.84-.2 4.1 1.72a3.76 3.76 0 014.7 2.09 56.83 56.83 0 0133.11-16.13 3.7 3.7 0 011.24-5c-.61-1.85-.47-3.12.71-3.86a2.18 2.18 0 001-2.12q.34-15.06.71-30.13c0-1 .27-2-.85-2.73a1.36 1.36 0 01-.46-1.14c.2-1.16-.16-2.38.07-3.42.33-1.54-.46-2-1.48-2.26a8 8 0 01-5.49-4.56 3.22 3.22 0 00-3.24-2.1 108.23 108.23 0 00-23.74 5.68 2.44 2.44 0 00-1.24 1.25c-.86 2-1.6 4.14-2.39 6.22-.92 2.37-1.85 4.79-2.83 7.35zm68 170.46c.54.4.56.41 0 1.1-4.87 6.34-9.7 12.7-14.63 19-1.43 1.82-3.16 3.56-5.65 3.64a18.53 18.53 0 01-5.52-.76 15.93 15.93 0 00-9.47 0c-3.56 1.17-6.92 1.32-9.87-.87a28.71 28.71 0 01-2.91 3.14 2.18 2.18 0 01-2.06.17 2.21 2.21 0 01-.53-2 18.24 18.24 0 011.64-3 2.93 2.93 0 00.47-1.2c.09-2.2-.22-4.49.25-6.61 1.07-4.81 2.52-9.55 3.84-14.31 0-.21.34-.36.52-.54.09.25.31.52.26.72a57.07 57.07 0 01-1.58 5.66 44.57 44.57 0 00-2.59 11.09c1.57-2.52 3.27-5.13 4.84-7.8 2.72-4.61 5.32-9.27 6.07-14.7 0-.25.34-.45.52-.67.09.28.29.59.24.84a40.73 40.73 0 01-1.19 5 57.9 57.9 0 01-6.28 12.16 54.44 54.44 0 00-3.16 5.7 14.42 14.42 0 00-.74 2.82l.32.11c9-13.13 18.08-26.27 27.28-39.62a57.58 57.58 0 01-21.38-2.93 3.74 3.74 0 01-3.29 3.73c-.14 1.6-.7 3-2.42 3.18a2 2 0 00-1.67 1.28q-7 13.7-14 27.38c-.4.77-.79 1.45-.24 2.35a1.54 1.54 0 010 1.34 21.24 21.24 0 00-1.47 3c-.64 1.52-.79 1.85.47 2.93a7.42 7.42 0 012.76 5.93 5 5 0 003.65 4.74 116 116 0 0021.91 4.6 2.21 2.21 0 002-.64c3.45-3.32 6.94-6.6 10.47-10l1 .9c3.24 3 6.47 6.1 9.75 9.11a2.21 2.21 0 001.54.57 109.2 109.2 0 0022.43-4.6 5.26 5.26 0 003.92-5.2 7.06 7.06 0 012.42-5.31 16.58 16.58 0 001.61-1.93c-.88-1.7-1.67-3.1-2.34-4.56-.17-.37.07-.91.08-1.37a3.34 3.34 0 000-1.52q-7.2-14.16-14.47-28.29c-.16-.31-.47-.75-.73-.76-2.13-.12-3-1.4-3.15-3.35-2-.32-3-1.64-3.36-3.59-.56.16-1 .31-1.45.41-2.91.69-5.82 1.33-8.71 2.07a3.26 3.26 0 00-1.73 1.06c-5.07 6.89-10.08 13.82-15.1 20.74l-2.51 3.47c2.18 2.67 4.51 3.48 7.68 2.66a17.23 17.23 0 002.76-1 10.84 10.84 0 019.54-.13c3.91 1.83 7.35.89 10.48-1.66a46 46 0 003.48-3.68zm-53.36-29.6a57.28 57.28 0 01-23-28.77 3.72 3.72 0 01-5.1-.17c-1.27.93-2.67 1.32-3.88.19a2.32 2.32 0 00-2.39-.52q-14.88 3-29.75 6c-.88.17-1.73.26-2.12 1.3a1.77 1.77 0 01-1.1.79 23.51 23.51 0 01-3.22.75c-1.65.26-1.94.47-2 2.17a7.42 7.42 0 01-2.91 5.86 4.54 4.54 0 00-1.41 5.42 110.3 110.3 0 0010.35 20.56 2.71 2.71 0 001.63 1.16c3.34.54 6.69.95 10 1.41 1.41.2 2.82.42 4.28.64-.39 4.71-.73 9.22-1.15 13.73a3.19 3.19 0 001 2.95 120.73 120.73 0 0017.13 14 5.06 5.06 0 006.19-.11 7.36 7.36 0 016.14-1.49 3.58 3.58 0 001.63 0 1.83 1.83 0 00.91-.91c.61-1.22 1.08-2.5 1.73-3.69.21-.39.82-.55 1.22-.85s.89-.54 1.07-.93q6.61-14.5 13.15-29a1.55 1.55 0 000-1.14c-1-1.92-.87-2.69.75-4.4a3.62 3.62 0 01.85-4.95zm86.49-42.21c2-.31 3.44.21 4.38 1.92.13.24.69.35 1 .35a2.69 2.69 0 012.82 1.79 1.8 1.8 0 001.53 1.26c10.1 2.55 20.19 5.13 30.29 7.65.5.13 1.09-.19 1.64-.23a10.73 10.73 0 012.53 0c1.16.19 2.28.62 3.43.9.15 0 .4-.14.54-.29a6.34 6.34 0 001.12-1.37 7.39 7.39 0 015.2-4 4.35 4.35 0 003.46-4.1 111.9 111.9 0 00-.46-22.78 2.37 2.37 0 00-.9-1.49c-3.67-2.51-7.38-4.95-11.08-7.42-.34-.23-.67-.47-1-.73 2.5-4.28 5-8.43 7.34-12.63a2.5 2.5 0 00.18-1.86 111.36 111.36 0 00-9.8-21.1c-1.43-2.38-2.85-3-5.54-2.46a6.66 6.66 0 01-5.26-1c-2-1.33-2-1.33-3.86 0-.5.35-1.19.54-1.51 1a2.57 2.57 0 01-2.6 1.16 1.89 1.89 0 00-1.24.33q-12.21 10.18-24.37 20.43c-.29.25-.65.69-.61 1a3.15 3.15 0 01-2.59 3.71c.12 2.22-1 3.52-3.07 4.14a57.2 57.2 0 018.43 35.82zm-29.25 54.18l15.17 29.62 2-1-13.7-30.29zm49.49-122.8l-26.5 20.11 2.43 3 25.49-21.37zM74 91.65L99.49 113l2.43-3L75.4 89.86zm48.27 119.13l-13.7 30.3 2 1c5.09-9.93 10.11-19.75 15.16-29.63zM216 168.51l32.58 6.6.55-2.21-32.24-8.19zm-159.9 7.18l32.57-6.61c-.29-1.3-.56-2.49-.86-3.8l-32.26 8.2zM154 86.43c-.28-11.07-.55-22-.82-33h-2.27l-.81 33zm-19.59 157c-1.34 1.85-2.62 3.6-3.89 5.37a1.56 1.56 0 00.37 2.49 7.69 7.69 0 006.92 1.32c2.73-.77 3.51-3.57 5.6-5.51-.85 0-1.41-.17-1.74 0-.65.41-.81 0-1.31-.29a17.44 17.44 0 00-3.52-1.3zm.61-.79a13.17 13.17 0 009.15 3.51 77.21 77.21 0 018 .23c2.51.19 5 .67 7.49.91 2.23.22 3.07-.35 4-2.39-4.17.72-4.87.68-9.11-.77a11.65 11.65 0 00-5.66-.43 21 21 0 01-6.69.27c-2.14-.39-4.12-1.66-6.3-2.6zm31.1-.73a10 10 0 01-6.95-.08 18.08 18.08 0 00-10.67-.42c-3.95.93-7.53.37-10.5-2.62h-.18l-1.14 1.58c3.06 2.23 6.21 3.67 10.05 2.82 2.85-.63 5.7-1 8.53.23a13.13 13.13 0 008.51.54 3.32 3.32 0 002.3-2.08zM140 235.64c1.86 1.85 3.93 3.24 6.57 3a35.4 35.4 0 006.36-1.24c2.32-.65 4.67-.95 6.71.32a7.91 7.91 0 008.63.35 4.72 4.72 0 002.63-2.76c-2.88 1.51-5.83 2.47-9 1a11.54 11.54 0 00-10.59.11c-2.71 1.31-5.56 1.79-8.29-.08-.77-.53-1.47-1.14-2.26-1.75zm-1.62 2.23c1.86 1.63 3.68 3.09 6.15 3a30.79 30.79 0 004.56-.6c3.13-.56 6.2-.8 9.32.32a13.29 13.29 0 005 .77c1.72-.09 3.83.09 4.74-2.29a5.07 5.07 0 00-.79.27 6.42 6.42 0 01-7-.31 8.62 8.62 0 00-7.62-.61c-2.66.89-5.44 1.79-8.24.89a38.66 38.66 0 01-5.29-2.61zm-6.07 6.23l.23.21 25.53-35.06a1.93 1.93 0 00-2.48 1c-5.58 8.19-11.22 16.34-16.83 24.5-2.15 3.09-4.29 6.25-6.44 9.35zM152 95.77v.14c1.15 0 2.31-.06 3.45 0a1.56 1.56 0 001.85-1.49 1.66 1.66 0 00-1.56-2c-2.51-.09-5-.08-7.55 0a1.71 1.71 0 00-1.6 2 1.66 1.66 0 002 1.53c1.15-.06 2.3-.13 3.41-.18zm-47.6 25.39a8.2 8.2 0 001.38-1.06c1.51-1.84 3-3.74 4.47-5.59a1.51 1.51 0 00-.16-2.35 1.57 1.57 0 00-2.4.08c-1.63 1.91-3.21 3.88-4.7 5.9a2.08 2.08 0 00-.07 1.78c.25.48.93.77 1.52 1.24zm97.28-2.25a8.84 8.84 0 00-.71-1.47c-1.41-1.82-2.84-3.62-4.29-5.42a1.83 1.83 0 00-2.6-.36 1.63 1.63 0 00-.11 2.55c1.47 1.83 2.88 3.7 4.43 5.46a2.25 2.25 0 001.83.61c.59-.14 1-.88 1.49-1.37zm6.89 51.26a7.08 7.08 0 001.22-1.38 6.87 6.87 0 00.45-1.85c.39-1.74.83-3.47 1.16-5.22a1.69 1.69 0 00-1.53-2.1c-1.08-.09-1.61.48-1.83 1.52-.46 2.29-1 4.56-1.49 6.84-.26 1.32.31 2.18 2.06 2.19zm-113.21-10c-1.45 0-2.43.93-2.23 1.91.51 2.54 1.08 5.08 1.76 7.58a1.58 1.58 0 002.2 1 1.46 1.46 0 001-2c-.6-2.39-1.07-4.81-1.72-7.19-.11-.61-.74-1.05-.97-1.32zm37 45.68a5.94 5.94 0 00-1.07-.84c-2.18-1.08-4.41-2.06-6.56-3.19-.93-.48-1.6-.5-2.16.42a1.7 1.7 0 00.64 2.44c2.24 1.14 4.5 2.24 6.8 3.25 1.14.49 2.4-.49 2.35-2.1zM161 248.23c-1.37-.08-2.69-.09-4-.26-3.84-.49-7.63-1.3-11.56-.95a2 2 0 00-2 1.45c2.37.23 4.7.41 7 .69 2.11.25 4.19.71 6.3.88 1.67.13 3.39.2 4.26-1.81zm21.72-44.92c0-1.76-1.09-2.43-2.25-1.86-2.33 1.16-4.66 2.31-7 3.42a1.21 1.21 0 00-.69 1.67 1.8 1.8 0 002.6 1c2.08-1 4.17-2 6.19-3a4.29 4.29 0 001.15-1.23zm-24.21 47.74c-1.55-.09-2.88-.07-4.18-.27-3.44-.54-6.83-1.41-10.38-1.15a3.44 3.44 0 00-3.14 2.15 16.43 16.43 0 019.1.29c.73.23 1.47.43 2.22.59a6.52 6.52 0 006.38-1.61zm23.84-45c-2.11 1.09-4.11 2.08-6.06 3.18-.21.11-.27.95-.07 1.23s.93.71 1.22.59q2.87-1.23 5.6-2.73c.28-.15.42-.91.32-1.32s-.6-.57-1.01-.93zm-89.29-36.61c-.54-2.23-1-4.23-1.54-6.17a1.4 1.4 0 00-1.28-.6c-.39.1-1 .79-.9 1.13a52.74 52.74 0 001.34 5.82c.11.37.91.74 1.37.73s.71-.62 1.01-.91zm122.4-6.44c-.33-.29-.69-.9-1.05-.9a1.68 1.68 0 00-1.35.78 50.58 50.58 0 00-1.31 5.7 1.42 1.42 0 00.79 1.2c.43.09 1.29-.27 1.39-.61.59-1.95 1-3.95 1.53-6.17zm-109.34-52c-.31-.33-.56-.84-.91-.92a1.58 1.58 0 00-1.32.35c-1.18 1.33-2.25 2.77-3.38 4.14-.53.65-.73 1.3 0 1.89s1.33.32 1.86-.34c1.08-1.37 2.18-2.72 3.25-4.09a6.06 6.06 0 00.5-1.03zm98.1 4.28a2.09 2.09 0 00-.15-.54c-1.34-1.7-2.65-3.42-4.07-5-.18-.21-1.1-.11-1.34.15a1.54 1.54 0 00-.24 1.43c1.16 1.62 2.42 3.17 3.73 4.68a1.39 1.39 0 001.25.21c.36-.21.6-.67.82-.93zM129 209.93c-.13-.17-.31-.61-.64-.78-1.69-.87-3.39-1.75-5.16-2.46a1.73 1.73 0 00-1.52.59 1.58 1.58 0 00.49 1.44c1.71.94 3.48 1.77 5.27 2.55.82.35 1.56-.27 1.56-1.34zm23-119.27h2.69c.72 0 1.26-.3 1.28-1.12a1.16 1.16 0 00-1.27-1.29c-1.84 0-3.68-.08-5.51 0a1.85 1.85 0 00-1.19 1.24c-.19.75.42 1.15 1.17 1.17.98.02 1.92 0 2.83 0zm-25.14 160.07c-.49 1.11-1 2-1.31 3-.18.55 0 1.16.83 1 1.3-.25 2.84-2.42 2.68-4-.61 1.17-1.26.62-2.2 0zm-17.11-3.39c-.16-.34-.18-.52-.27-.56-1.29-.64-2.58-1.29-3.89-1.88-.12-.05-.55.22-.57.37a.86.86 0 00.29.73c1.12.59 2.27 1.15 3.45 1.64.24.1.63-.18.99-.3zm42.32-199.91a15.19 15.19 0 00-1.91 0c-.24 0-.45.38-.67.58.2.19.39.54.59.55 1.27 0 2.55.06 3.82 0 .21 0 .39-.43.59-.66-.21-.16-.41-.45-.64-.47a17.52 17.52 0 00-1.78 0zm48.1 197.89v-.38c-.35-.06-.77-.27-1-.16a29.42 29.42 0 00-3.1 1.49c-.25.14-.35.56-.53.86.37.06.79.28 1.08.16 1-.41 2-.92 3-1.42a3.6 3.6 0 00.55-.55zM152 51.52a13.51 13.51 0 001.91 0c.24 0 .43-.39.64-.61-.2-.18-.4-.51-.61-.52h-3.83c-.2 0-.39.35-.58.54.23.21.43.55.69.59a13.18 13.18 0 001.78 0zM252.93 177c.1.14.25.55.45.58a.86.86 0 00.74-.45c.34-1.22.62-2.46.86-3.71 0-.2-.26-.46-.4-.69-.26.16-.69.27-.75.49-.34 1.17-.58 2.37-.9 3.78zm-201.16.64c-.33-1.41-.57-2.62-.91-3.8-.06-.24-.46-.38-.71-.57-.15.28-.45.57-.41.81.21 1.21.48 2.42.81 3.61a.89.89 0 00.71.5c.22-.03.4-.43.51-.56zm180.36-92.8c-.08.37-.33.82-.2 1 .76 1.07 1.59 2.1 2.45 3.1a.87.87 0 00.78 0 .68.68 0 00.15-.65c-.84-1.12-1.72-2.2-2.6-3.29-.07 0-.23 0-.58-.17zm-163 4.84c.4-.12.52-.11.56-.17.9-1.11 1.8-2.22 2.66-3.36a.72.72 0 00-.21-.63.9.9 0 00-.78.14 37.64 37.64 0 00-2.36 3c-.17.17 0 .63.1 1.01zM111 244.72c-.19-.34-.23-.55-.35-.61-1.25-.62-2.5-1.23-3.77-1.8-.13-.06-.56.16-.58.3a.82.82 0 00.24.71c1.15.61 2.32 1.18 3.52 1.7.23.09.6-.17.94-.3zM71.41 91.5c.37-.16.53-.17.6-.26.86-1 1.72-2.11 2.53-3.2a.68.68 0 00-.08-.66.87.87 0 00-.78 0c-.85 1-1.68 2-2.45 3.11-.13.2.1.64.18 1.01zm178.75 84.87l.47.65c.22-.21.57-.38.64-.62.31-1.14.59-2.29.79-3.45.05-.26-.24-.58-.38-.87-.24.19-.62.35-.68.59-.31 1.14-.53 2.33-.84 3.7zm-197.11-4.05c-.24.49-.52.78-.47 1 .22 1.25.5 2.5.84 3.73.06.21.49.32.74.48.13-.24.39-.5.34-.71-.23-1.21-.53-2.41-.84-3.6-.06-.22-.29-.43-.61-.9zm180.12-81.86c-.06-.15-.06-.25-.11-.31-.88-1.1-1.75-2.2-2.66-3.27a.68.68 0 00-.64 0 1 1 0 000 .79c.76 1 1.57 2 2.4 3a.78.78 0 00.66.16c.18.01.24-.25.35-.37zm-38.42 154.48c1.35-.67 2.65-1.3 3.92-2 .12-.06.15-.5.05-.66a.68.68 0 00-.63-.21c-1.2.54-2.39 1.11-3.56 1.72a.76.76 0 00-.3.62c.02.19.3.33.52.53z"/>
      <path d="M105.73 249.6a27.72 27.72 0 012.32 2.67 14 14 0 011.85 3.58 51.51 51.51 0 011.1 5.45c-1.67-.69-3.55-1.43-5.4-2.25-.28-.12-.48-.57-.62-.9-.51-1.26-1-2.53-1.49-3.84a11.06 11.06 0 00-1.91.58 5 5 0 01-5.67-.59 34.85 34.85 0 00-3.1-1.8 11.47 11.47 0 001.48-.36 20.11 20.11 0 003.09-1.42 7.53 7.53 0 014.84-1.3c1.15.09 2.33.12 3.51.18zm2.55 8.71c.25-2.7-1.3-5.87-3.4-6.95s-5.6-.21-7.54 1.65c1.31 1 1.31 1 2.72.58l4.4-1.36c.57 1.46 1.18 2.78 1.59 4.16a2.47 2.47 0 002.23 1.92zM211.77 252.51c-1.57.88-3.26 1.86-5 2.77a1.86 1.86 0 01-1.21 0c-1.3-.36-2.59-.79-3.95-1.22a27.05 27.05 0 00-1.18 3 3.23 3.23 0 01-2.34 2.4c-1.44.51-2.83 1.14-4.46 1.81.17-.47.29-.75.37-1a31.71 31.71 0 001-3.77 8 8 0 011.89-4.38c.74-.82 1.38-1.71 2.12-2.52a1.5 1.5 0 01.94-.34 15.15 15.15 0 012.52 0 17.23 17.23 0 014.21.68 46.16 46.16 0 015.09 2.57zm-4 .2c-2.2-1.73-6-2.5-7.62-1.6a7.17 7.17 0 00-3.32 6.95 2.38 2.38 0 002.17-1.86c.46-1.41 1.06-2.78 1.62-4.23 1.52.47 3 .82 4.34 1.37a2.49 2.49 0 002.84-.63zM267.52 168.42c-.29 1.72-.57 3.61-.94 5.49a2 2 0 01-.78 1.05c-1 .76-2.09 1.44-3.2 2.19a10.5 10.5 0 00.84 1.41 5.18 5.18 0 01.72 5.89 22.5 22.5 0 00-.83 2.74 50.44 50.44 0 01-3.92-4.59 13 13 0 01-1.29-3.67c-.28-1-.43-2-.63-2.88a30.68 30.68 0 012.27-3.15 11.38 11.38 0 012.82-2.32c1.58-.86 3.3-1.46 4.94-2.16zm-7.16 8.22c1.28-.87 2.4-1.72 3.62-2.42a2.41 2.41 0 001.22-2.58c-3.27 0-4.51 2.57-5.68 4.8-.93 1.79 1 5.49 3.11 6.9a2.74 2.74 0 00-.19-3.18c-.76-1.08-1.35-2.27-2.08-3.52zM42.06 177.74a3.12 3.12 0 00-.53-.4c-4.05-1.53-4-5.1-4.33-8.35 1.75.77 3.61 1.46 5.35 2.38a9.07 9.07 0 012.37 2.1c.84 1 1.53 2.11 2.24 3.11a23.51 23.51 0 01-.62 3.29 15.61 15.61 0 01-1.74 3.91 42.72 42.72 0 01-3.42 4c-.52-1.86-1.2-3.85-1.57-5.89-.11-.59.63-1.34 1-2s.81-1.39 1.25-2.15zm0 6.18c2-1.56 3.74-5.58 3.09-7.09-1.23-2.84-3.5-4.64-5.73-4.52a2.32 2.32 0 001.31 2.51c1.21.7 2.33 1.56 3.55 2.39-.75 1.28-1.38 2.54-2.18 3.69a2.55 2.55 0 000 3.02zM236.79 72.59c1.27 1.41 2.58 2.81 3.78 4.28a2.29 2.29 0 01.25 1.45c0 1-.15 2-.23 3 1.61.89 3.73-.09 4.95 1.69 1 1.43 2 2.83 3 4.2a54.47 54.47 0 01-5.67.22 11 11 0 01-3.37-1c-1.09-.44-2.42-.8-3.09-1.63a7.08 7.08 0 01-.89-3.39 15.14 15.14 0 01-.11-4.14 33.8 33.8 0 011.38-4.68zm.92 3.61c-1.12 2-.88 6.31.37 7.44 2.22 2 5.2 2.7 6.95 1.63a2.56 2.56 0 00-2.42-1.71 27.79 27.79 0 01-3.77-.56c-.61-2.28 1.43-4.83-1.13-6.8zM67.74 85.22A28.11 28.11 0 0164.39 87a11.85 11.85 0 01-3.68.88 45.14 45.14 0 01-5-.29c1.1-1.53 2.22-3.18 3.45-4.74.25-.32.91-.37 1.4-.45 1-.17 1.93-.29 3.07-.45-.08-1.13-.24-2.22-.21-3.31a3.24 3.24 0 01.58-1.78c1.07-1.37 2.28-2.63 3.4-3.9a42.87 42.87 0 011.46 5.11 11.79 11.79 0 01-.2 3.78 29.42 29.42 0 01-.92 3.37zm-1.23-8.56a2.78 2.78 0 00-1.36 3c.18 1.21.21 2.44.3 3.56-2.11 1.12-5.1-.31-6.31 2.63A7.46 7.46 0 0066.23 84c1.21-1.44 1.37-5.29.28-7.34zM151.78 44.28A23.88 23.88 0 01148.7 43a12.88 12.88 0 01-3.12-2.34 36.73 36.73 0 01-2.81-4c1.9-.1 3.84-.23 5.78-.27.35 0 .74.36 1 .63.8.7 1.56 1.44 2.35 2.18a4.16 4.16 0 00.45-.32c1-.84 1.83-2.22 2.9-2.4a28.09 28.09 0 015.93.14c-2.18 3.72-4.82 6.82-9.4 7.66zm.22-2.81c-1-1-2-1.82-2.94-2.78a2.46 2.46 0 00-2.87-.5c.77 2 4.15 4.39 5.88 4.24 2.54-.23 5.26-2.31 5.64-4.32a2.64 2.64 0 00-3 .77c-.79.92-1.71 1.7-2.71 2.59zM209.18 51l-10.08 3.19c-1.3-3.35-2.56-6.64-3.83-9.92l.21-.35 13.79 6.62zm-3.88-.54l-6.84-3.29-.19.26c.61 1.56 1.21 3.13 1.83 4.73zM46.17 127.85l-8.81 5.92-.39-.15 3.38-15h.35zm-2.25-.52l-2.82-4.73-1.74 7.8zM257.82 127.81l5.42-9.24h.37l3.4 14.87-.33.23zm6.82 2.51c-.62-2.72-1.16-5.07-1.79-7.78l-2.77 4.75zM67.14 219.68c-.3 3.63-.58 7.09-.86 10.55l-.38.18-9.5-11.88.26-.31zm-6.81.73l-.14.3 4.7 5.84c.17-2.06.3-3.69.43-5.42zM144.35 267.82l7.67-7.28c2.62 2.45 5.18 4.86 8.06 7.57h-15.6zm7.6-5.05l-3.28 3.76H156zM236.88 219.67l10.57-1.54.25.26-9.5 11.94-.39-.12c-.3-3.44-.61-6.88-.93-10.54zm7.22.68c-1.85.24-3.33.42-4.79.66a.85.85 0 00-.53.66c.08 1.49.23 3 .4 4.83zM94.63 50.62L108.36 44l.3.27c-1.23 3.26-2.46 6.53-3.76 9.95L94.73 51zm4-.16l5.27 1.64 1.92-5.1zM190.35 152.25a38.09 38.09 0 11-38.07-38.07 38.17 38.17 0 0138.07 38.07zm-1.78 0a36.32 36.32 0 10-36.35 36.31 36.31 36.31 0 0036.35-36.27z"/>
      <path d="M175.92 106.61h.25c2.3 1.25 2.3 1.25 1.37 3.7-.45 1.18-.89 2.37-1.32 3.51l4.67-4.25 2.29 1.45-5.1 8.06-1.51-.91 3.51-5.58-.2-.16-4.48 4.77c-1.45-.35-1.57-1-1.14-2a26 26 0 001.53-5l-3.41 5.35-1.5-.93zM181 121.91l-1.34-1.22 6.57-6.78c1.76 1.1 1.79 1.19.93 3-.65 1.37-1.31 2.74-2 4.1l.35.3 3.9-4.54 1 1.32-6.41 6.75c-1.56-1.27-1.56-1.27-.7-3l2-4.1-.3-.24zM182.18 181.09l6.36 7.18c-1.1.91-2.13 1.82-3.23 2.66-1.29 1-3.72-.24-3.47-2.68a6.56 6.56 0 01-1.8-.4 2.6 2.6 0 01-.7-4.22 7.76 7.76 0 01.66-.63zm-.73 2.09a6.91 6.91 0 00-.86 2.17 1.61 1.61 0 001.14 1.12 5.38 5.38 0 002-.76zm3 3.45c-.91.7-1.58 1.35-.7 2.3s1.57.22 2.29-.5zM187.8 130.18l8.47-4.39c.51 1 1 1.84 1.45 2.74s.9 2 0 3a2.48 2.48 0 01-3.11.68c-.47 1.71-1.27 2.5-2.68 2.62s-2.21-.86-2.81-2c-.42-.83-.83-1.69-1.32-2.65zm1.9 1.23c.78.6 1.29 1.22 1.91 1.37a1.6 1.6 0 001.36-.86c.18-.55-.15-1.26-.28-2.06zm4-2.13c.74 1.48 1.27 1.78 2.12 1.23 1.13-.72.51-1.48 0-2.32zM194.7 170.8c-1.85 1.19-3.24-.45-4.85-.41.57-2 .57-2 2.4-1.39s2.23.62 2.78-1.22l-3.62-1.53.67-1.76L201 168c-.55 1.33-1 2.59-1.6 3.81a1.89 1.89 0 01-2.1 1.15 2.74 2.74 0 01-2.6-2.16zm1.41-2.63a6.1 6.1 0 00.18 2.23 1.61 1.61 0 001.54.46c.49-.21.78-.92 1.24-1.52zM112.49 184.21l-1.78-2.47c-.69-1-1.39-2-.54-3.14a2.68 2.68 0 013.37-1.14c-.12-2.22 2.16-2.48 3-4l1.22 1.73-1.7 1.39c-1.38 1.08-1.4 1.38-.14 2.77l3.21-2.24 1.12 1.54zm2.46-4.14c-.74-.47-1.27-1-1.87-1.12a1.63 1.63 0 00-1.27 1 5.2 5.2 0 00.57 2zM112.1 141l-9-3.22c.5-1.29.91-2.57 1.49-3.78a2.1 2.1 0 012.46-1.21 27.74 27.74 0 015 1.81 2.38 2.38 0 011.21 3.16c-.35 1.02-.75 2.04-1.16 3.24zm-.79-2.33c.74-1.62.57-2.22-.84-2.84a21 21 0 00-2.88-1c-1.48-.4-2 0-2.43 1.67zM101.2 156.52v-3.39a2.3 2.3 0 012-2.47 29.66 29.66 0 015.33-.14 2.38 2.38 0 012.2 2.45c.09 1.1 0 2.21 0 3.55zm1.48-2h6.63c0-1.81-.34-2.24-1.86-2.3a18.32 18.32 0 00-3 .13c-1.56.18-1.86.65-1.77 2.18zM171.74 106.61c-.74 1.8-1.35 3.65-2.24 5.37-.64 1.25-1.85 1.46-3.35 1s-2.49-1.43-2.17-2.84a27.2 27.2 0 012-5.6c.59-1.23 1.87-1.43 3.36-.92a3.25 3.25 0 012.4 2.99zm-1.91-.35c-.33-.48-.57-1.17-.92-1.23a1.65 1.65 0 00-1.44.58 29.51 29.51 0 00-1.64 4.56 1.63 1.63 0 00.74 1.36 1.47 1.47 0 001.33-.54c.72-1.49 1.27-3.05 1.93-4.73zM177.24 196.65l-1.63 1c-1.21-2.07-2.41-4-3.51-6.06-.9-1.67-.42-2.95 1.32-3.93s2.87-.73 3.92.93c1.2 1.9 2.32 3.87 3.55 5.93l-1.66 1c-1-1.67-1.93-3.27-2.88-4.87-.22-.36-.44-.73-.67-1.09-.41-.64-.94-1.06-1.7-.59s-.56 1.1-.22 1.69c.93 1.63 1.89 3.24 2.84 4.87.21.33.4.7.64 1.12zM201.7 138.77l.6 1.88c-2.6.68-5.11 1.46-7.67 2-1.36.25-2.35-1-2.69-2.73a2.38 2.38 0 011.63-3.06c2.26-.76 4.56-1.39 7-2.1l.53 1.85-5.57 1.65-1.11.34c-.67.23-1.16.61-.95 1.41s.85.89 1.53.7l5.92-1.67zM201 150.52c-.15-1-.23-1.44-.31-1.88.09-.13.13-.25.19-.26.66-.2 1.28-.48 1.05-1.31a1.32 1.32 0 00-.8-.8c-.78-.19-1.28.24-1.52 1-.17.57-.35 1.14-.56 1.7a2.55 2.55 0 01-3.05 1.92c-1.26-.1-2-.83-2.33-2.33-.57-2.48.26-3.77 2.66-3.91l.26 1.67c-.31.1-.65.11-.82.29a2.28 2.28 0 00-.75 1.15 1.25 1.25 0 00.67 1 1.79 1.79 0 001.45-.43 4.71 4.71 0 00.67-1.76 2.76 2.76 0 012.44-2.29 2.46 2.46 0 012.59 1A3.35 3.35 0 01203 149c-.34.57-1.18.9-2 1.52zM110.45 167.51c.36-.2.63-.25.72-.4a2.81 2.81 0 00.52-1.38c0-.32-.68-.85-.94-.8a2.21 2.21 0 00-1.34.92 4 4 0 00-.17 1.62c-.12 2-1.44 3.29-3.27 3.11-1.47-.14-2.77-2.09-2.53-3.77.15-1 .67-1.53 2-2l.56 1.47c-.16.14-.35.25-.43.42a2.62 2.62 0 00-.44 1.27 1.12 1.12 0 00.9.63 2 2 0 001.18-.93 6.93 6.93 0 00.27-2 2.78 2.78 0 015.4-.92c1 2.22.6 3.46-1.65 4.41zM170.26 192.87l-1.58.6a2.28 2.28 0 01-.32-.39c-.29-.67-.78-1.14-1.48-.77-.4.21-.93 1-.82 1.18a3 3 0 001.39 1.21 6.36 6.36 0 001.65.09 2.84 2.84 0 012.69 2.89c.07 1.35-1 2.4-2.69 2.77-1.58.34-2.4-.14-3.06-1.82l1.55-.6c.14.17.22.35.36.41a2.77 2.77 0 001.27.44c.26 0 .7-.68.62-.91a1.92 1.92 0 00-.93-1.16 6.71 6.71 0 00-2-.25c-1.68-.13-2.45-.77-2.75-2.32a2.59 2.59 0 011.73-3.06c2.28-1.1 3.69-.57 4.37 1.69zM137.68 113l-1.19-1.53c-2.34.59-2.34.59-2.08 2.89l-1.79.78c-.44-3.11-.93-6.09-1.27-9.09-.16-1.45 1.37-1 2.06-1.65 2 2.64 4 5.19 6.06 7.84zm-4.31-6l-.3.06.73 3.7 1.69-.74zM192.66 163.18c.08-1.93.08-1.93 2.27-2.1l.47-2.37-1.86-1c.1-.59.2-1.16.33-1.91 2.92 1.37 5.69 2.65 8.42 4 .25.12.36.68.37 1a8.31 8.31 0 01-.28 1.51zm4.23-3.94l-.25 1.88 3.68-.19v-.27zM123.07 122.32l-1.45 1.36-1.36-2.62q-1.14-2.22-2.29-4.42c-1-2-1-2 1-3.3l8.2 5.32-1.49 1.34-1.68-1.14-1.86 1.64zm-3.55-6.7l-.17.2 1.9 3.27 1.4-1.23zM118.2 190.27l-3.2-3.59.93-.91 2.43 2.31 1.52-1.61-2.43-1.86 1.28-1.46 2.33 2.19 1.67-1.93c-.76-.65-1.64-1.38-2.57-2.16l1.21-1.29 3.71 4.21zM150.12 108.83l.23 1.52-5.45.64c-.37-3.18-.73-6.29-1.1-9.5l5.2-.61.33 1.48-3.42.52.26 2.13 3.11-.26.25 1.46-3.15.49c.09.86.16 1.6.25 2.47zM103.27 145l2.12.35.6-3.13 1.47.23-.4 3.14 2.45.4.63-3.44 1.51.19-.81 5.4-4.75-.73-4.7-.72c.27-1.77.52-3.48.79-5.3l1.51.31zM115.71 120.86l-1 1.34h-.32c-.66-.31-1.36-1-2-.13s.17 1.52.75 2a34.66 34.66 0 003.09 2.28c.57.37 1.37.74 1.76-.1.18-.42-.18-1.11-.39-1.65-.09-.25-.41-.41-.74-.71l1-1.41c2.3 1.27 2.64 3.22.94 5a2.45 2.45 0 01-3.24.61 26.08 26.08 0 01-3.85-2.74c-1.59-1.39-1.61-2.93-.28-4.49 1.17-1.34 2.37-1.38 4.28 0zM152 193.71c.46 1.18.58 2.46 1.27 3s1.93.23 3.14.4c-2.41 1.06-3 2.65-1.47 4.94h-.37L152 200.3l-2.54 1.82c-.06-.12-.13-.19-.12-.24.24-1 .88-2.08.63-2.9s-1.41-1.23-2.51-2.09a20.6 20.6 0 012.28 0 1.27 1.27 0 001.59-1.18 19.88 19.88 0 01.67-2zM154.05 102.47l-2-.17v-1.52l6.06.32-.1 1.53h-2c-.16 2.66-.32 5.24-.48 7.92l-1.89-.13c.15-2.66.28-5.23.41-7.95zM187.11 174.76l1-1.62 6.74 4.18 1.16-1.68 1.32.78-3.21 5.15-1.3-.77 1-1.82zM121.2 192.7l.83-1.28 1.78 1.08 4.46-6.57 1.59 1.07c-1.48 2.21-2.93 4.35-4.42 6.57l1.64 1.28-.86 1.25zM127.3 107.24l.82 1.28-1.68 1.2c1.4 2.21 2.79 4.4 4.25 6.68l-1.6 1.06-4.29-6.68-1.76 1-.89-1.26zM136.05 192.05l.49-1.47 5.05 1.66-3 9.06-1.82-.55 2.46-7.59zM130.72 198.37l-1.72-.85c1.39-2.86 2.76-5.64 4.18-8.56l1.75.81zM106.79 128.56l.92-1.7 8.39 4.53-.88 1.71zM191 185.51l-7.34-6.13 1.23-1.48 7.34 6.12zM185.35 126.83l7.74-5.63 1.14 1.55-7.72 5.61zM114.78 170l.88 1.71-8.5 4.34-.9-1.7zM187.67 102.31a40.6 40.6 0 01-17.75-9.2l2.24-2.61c3.05-3.51 6.13-7 9.15-10.56a6.64 6.64 0 00.75-1.64 7.82 7.82 0 01.65-1.21c1.8-2.45 1.22-4.79-1.57-5.91l.54-1.05-1.29-.68c-.14-1.26 1.18-2.71-.57-4 .51-.09 1.09-.36 1.51-.21s1.11.84 1 1.11c-.33 1.18.58 1.66 1 2.41a6.06 6.06 0 01.56 1.65 5.31 5.31 0 00.25 1.11 7.89 7.89 0 01.73 5c0 .32.4.78.73 1 .12.09.65-.24.86-.49a6.5 6.5 0 00.64-1.16l.31.08-.41 2.74c1.61-.82 1.88-1.68 1.82-5.22.84.12 1.58.21 1.12 1.39s-1 2.64-1.49 4.11l1 .7 1.18-1 .25.14-.48 1.19c1.16 1.25 1.45-.88 2.46-.61L192 81c1.81 0 2.84-1.11 4.1-2.13l.8 1.28a15.94 15.94 0 00-1.64.94c-.47.34-1.07.72-1.25 1.22-.35 1-.59 1.9-1.79 2.26-.3.09-.44.86-.56 1.34q-1.84 7.53-3.66 15c0 .45-.17.81-.33 1.4zm-10.59-8.12l.49.26-1.15 2.39 1.82 1c.94-1 1-2.5 2.13-3.17l.43.24-1.7 3.43 1.93.91 1.27-2.51.5.16c-.26.91-.53 1.81-.81 2.78l2 .77.52-1.54 4.83-14.45c.18-.53.57-1.15-.53-1.2-.5 1.17-1 2.34-1.52 3.52s-1 2.37-1.51 3.53-.7 2.35-1.63 3.18l-.48-.23q2.25-5.37 4.51-10.73l-.23-.26c-.32.25-.76.43-.95.76-.74 1.29-1.38 2.65-2.1 4-.12.22-.49.3-.75.44a2.34 2.34 0 010-.8c.66-1.34 1.39-2.65 2-4a5.22 5.22 0 00.26-1.26l-.5-.18-4.51 7.21-.48-.25a4.93 4.93 0 01.38-1.1c1.05-1.76 2.16-3.48 3.19-5.25.17-.29 0-.76 0-1.14h-.41c-1 1.35-1.93 2.72-3 4s-1.67 2.83-3.07 3.73l-.41-.32 5.67-7.83-.15-.28c-.34.09-.82.06-1 .28-3.73 4.23-7.42 8.49-11.18 12.82l1.82 1.45 2.53-3.11.48.38-2.25 3.34 1.89 1.2zm13.78-10.38h-.39l-5.64 16.89 2.08.53c.14-.15.23-.21.25-.28 1.32-5.35 2.64-10.69 3.92-16 .08-.37-.14-.77-.22-1.14zm2.34-.89c-.45-.37-.76-.8-1-.76s-.56.48-.83.74c.25.23.48.64.75.67s.6-.33 1.08-.65zm-8.44-3.36c.44.33.76.74 1 .69s.53-.48.78-.75c-.25-.23-.49-.63-.75-.64s-.58.36-1.03.7zm-.06-1.19c-.47-.28-.77-.62-1-.59s-.49.43-.73.67c.27.26.52.67.83.72s.47-.41.9-.8zm6.3 3.31c-.45-.28-.74-.62-1-.59s-.48.42-.72.65c.26.26.49.67.79.72s.54-.4.93-.78zm-3.07 0c.31-.52.65-.83.61-1.09s-.46-.46-.7-.69c-.23.25-.62.5-.64.77s.39.56.8 1.04zM199.75 77.21a6.33 6.33 0 01.86-.06c2.14.12 2.57.68 1.78 2.51a11.83 11.83 0 01-1.32 1.94c-1.58-.62-3-1.29-3.41-3 0-.08-.09-.21-.14-.21-1.69-.09-2-1.89-3.22-2.63.43-.75 1.26-1.45.53-2.44a4.4 4.4 0 011.4-.51c.2 0 .61.63.58 1a3.68 3.68 0 01-.64 1.22c1.11 1.61 1.64 3.81 4 4.17.29 0 .63-.26 1.12-.49l-1.67-1.13zM204.39 78.58a5.36 5.36 0 01-.8-1.7c0-.25.72-.6 1.12-.9s.52-.36.78-.54v-.38l-2.49-.55c-.11-1.53-.11-1.53 3-1.69l-.42-1.29 2.18.3c-.17.61-.31 1-.38 1.39a6.51 6.51 0 000 1c-.35-.1-.7-.18-1.05-.29l-1.66-.54-.15.47a9.34 9.34 0 011.68.82A2.68 2.68 0 01207 76c0 .13-.65.68-1 .69-1.3 0-.8 1.16-1.09 1.79zM188.33 63.24c.69-.39 1.16-.71 1.67-.94.82-.36 1.23-.87.91-1.8a4.77 4.77 0 01-.16-.75 1.84 1.84 0 012.14-2.24c.91.14 1.18 1 .78 2.47-1.52-.32-1.62.7-1.84 1.84a17.3 17.3 0 01-1.23 3zM204.43 71.14l-.14-1c-.6-.27-1.22-.36-1.5-.72-.43-.57-.26-1.18.41-1.62.16-.1.17-.45.23-.68a1.46 1.46 0 011.83-1.12c1 .2.51 1 .47 1.54a1.4 1.4 0 00.15.91c1.18 1.55.8 2.38-1.45 2.69zM181.94 62.13a5.32 5.32 0 011.24-1 4.8 4.8 0 011.81-.22c.19 0 .36.49.54.76a3.23 3.23 0 01-.87.27 8.54 8.54 0 01-1.32-.18l-.12.42 3 .92-1.73.89v.35l1.94.35.13.24c-.3.12-.69.42-.86.33a1.56 1.56 0 00-2.37.63c-.52-1.34-.94-2.52-1.39-3.76zM188.55 71.34l1.82-2.34-.31 2.47c.85.15 1.57.24 2.28.42.14 0 .32.47.25.61s-.48.55-.62.5c-1.08-.36-2.13-.79-3.17-1.23-.15-.05-.2-.33-.25-.43zM198.75 69.93c-.51-.59-.8-1-1.11-1.3-.47-.55-.59-1.15.18-1.41a2.45 2.45 0 011.79 0c.25.14.24 1.1.06 1.59a3.45 3.45 0 01-.92 1.12zM200.83 73c-.18-.57-.32-1-.48-1.44s-.29-.78-.46-1.22c.77-.57 1.44-.57 2 .27s.11 1.65-1.06 2.39zM191.94 66.75c.21-1.36.43-2.72.65-4.09 1.49.49 1.34 2.34-.65 4.09zM194.1 72.86a2.58 2.58 0 01-.25-.84 5.59 5.59 0 01.36-1.79c.14-.33.62-.51.94-.75.13.36.44.77.35 1.06a20.4 20.4 0 01-1 2.29zM195.61 66.8c-.3-.49-.78-1-.82-1.48 0-.33.56-.78 1-1 .13-.09.78.26.77.39a15.85 15.85 0 01-.32 2z"/>
      <path d="M187.49 58.68c.47-.11 1.11-.46 1.37-.28a8.64 8.64 0 011.45 1.66l-.4.49-2.45-1.31zM184.9 68.15c.68-.11 1.24-.24 1.82-.28a1.52 1.52 0 01.89.22.69.69 0 010 .68 1.21 1.21 0 01-.82.29c-1.58-.06-1.58-.06-1.89-.91zM193.3 75.56l-1.18 1.21c-.27-.32-.73-.61-.77-1s.51-.64.86-.75.57.29 1.09.54zM187.41 66c.43-1.24 1.12-1.29 1.83-1 .23.1.31.58.47.89zM185.85 61.25l-.13-1.91c.26 0 .64 0 .76.17.46.6.52 1.22-.63 1.74zM198.81 64.32l-.58 1.58-.81-.38.75-1.5zM63 122.74a34.8 34.8 0 012.65-3.46c2-2.07 4.37-1.57 5 1.25.51 2.35 2.12 3.24 3.92 4.11a1.92 1.92 0 001.35-.07 1.66 1.66 0 012.23.62 4.71 4.71 0 00.22.45c.63.7 4.94.73 5.58 0 1.32-1.39 2.86-1 3.3.84A20.25 20.25 0 0185.7 140a24.18 24.18 0 01-2.7 4.3 2.18 2.18 0 01-1.84.74c-.57-.16-1-1-1.4-1.55-.17-.21-.26-.56-.47-.66-1.3-.61-2.62-1.21-4-1.73a1.35 1.35 0 00-1 .25 1.66 1.66 0 01-2.28-.4 2.15 2.15 0 00-1.32-.7c-2 0-3.77.05-5.29 1.83-1.81 2.13-4.05 1.5-4.92-1.21-1-3.09-.68-6.25-.13-9.37.28-1.59.8-3.14 1.13-4.72a2.09 2.09 0 00-.21-1.37c-1-1.69-2.1-3.32-3.17-5a4.18 4.18 0 00-2.36-2.17 2.39 2.39 0 01-1.39-3 2.61 2.61 0 012.81-1.93 2.3 2.3 0 012.28 2.31c-.18 1.51.6 2.51 1.3 3.61s1.53 2.34 2.26 3.51zm17.13 19.39c3.61-4.42 4.58-9.45 3.63-15.13h-5.29a24.64 24.64 0 01-3.09 13zm-16.4-18.26l.29.23.57-.81a3.19 3.19 0 01.61-.81c.47-.32 1.12-.83 1.51-.7s.82.85 1.15 1.36a2.07 2.07 0 01.14.86 25.08 25.08 0 01-2.9 13.1c-.52 1-1.07 2.36-2.46 2s-1.37-1.83-1.28-2.91c.21-2.54.67-5.06 1-7.58.05-.4.13-.79.2-1.18-1.41 4-2.29 8-1.42 12.26.22 1.1.51 2.53 1.73 2.53a3.91 3.91 0 002.64-1.65c3.87-5.44 5.13-11.61 4.66-18.18a7.29 7.29 0 00-.88-2.64 1.38 1.38 0 00-2.18-.5 10.27 10.27 0 00-3.38 4.62zm4 15.45c1.09 0 2.24-.06 3.37 0a1.54 1.54 0 001.62-.94A20.61 20.61 0 0075.35 127c0-.36-.12-.89-.36-1-1.17-.71-2.41-1.31-3.66-2-.33 6.84-.33 6.84-3.63 15.32zm19.24-9.15c-.11-.74-.28-2-.48-3.26-.11-.68-.4-1.4-1.2-1.08a1.64 1.64 0 00-.54 1.43 17.1 17.1 0 01-.87 10.06c-.75 1.88-2 3.55-2.93 5.36-.18.36 0 .89 0 1.35a3.86 3.86 0 001.35-.21 3.36 3.36 0 00.9-1.06c2.48-3.62 3.58-7.68 3.74-12.59zm-20.81 1.13l.52-.18a8 8 0 00-.58-2c-2.13-3.4-4.32-6.76-6.51-10.12a4.15 4.15 0 01-.9-3 1.57 1.57 0 00-1.55-1.83 1.66 1.66 0 00-1.92 1.33 1.54 1.54 0 001.05 2 4.06 4.06 0 012.41 2.12q2.31 3.61 4.64 7.21zm11.54-3.05a9.15 9.15 0 00-.19-1.82c-.12-.44-.55-.78-.84-1.17a4.86 4.86 0 00-.5 1.27c-.17 2 0 4.06-.47 6a65.45 65.45 0 01-2.63 6.89 3.84 3.84 0 00-.06 1.23 4.45 4.45 0 001.22-.52 3.68 3.68 0 00.68-1.08 24.41 24.41 0 002.79-10.8zm-14.41.19c-.79 3.47-1.67 6.61-.69 9.95.35-.09.54-.09.58-.16.92-1.79 1.84-3.58 2.71-5.39.08-.16-.08-.5-.21-.7-.68-1.14-1.46-2.28-2.39-3.7zm3.39 0c.49-2 .9-3.93 0-5.91-2 1.26-2.29 2.39-1.18 4.11zM137.66 91.85l-24.06 11.47c-1.93-14.3-3.83-28.45-5.74-42.6l.28-.17zm-28.4-28.91L109 63c1.75 13 3.5 25.92 5.27 39.08l22-10.5zM233.26 216.8c-2.44.88-3.18.58-4.19-1.7a1.55 1.55 0 00-.48-.54l-7-5.32c-.35.39-.92 1.07-1.54 1.7-1.81 1.81-3.62 3.62-5.46 5.41a5.44 5.44 0 01-1.63 1.22c-1.18.48-2.35.82-2.44 2.4 0 .16-.73.48-.93.37-.48-.26-1.23-.76-1.21-1.12.08-1.51-1-1.76-2-2.22-5.44-2.59-10.88-5.16-16.29-7.79A2.33 2.33 0 01189 208a6.66 6.66 0 017.72-8.8 2.29 2.29 0 011.24.93c3.67 5.1 7.3 10.23 11 15.35.17.24.37.46.7.87a7.17 7.17 0 001.53-1.25c2.19-3.15 4.32-6.35 6.54-9.63a5 5 0 01-.69-1.27 2.28 2.28 0 01.05-1.64 1.56 1.56 0 011.5-.23c1.4.84 2.07 0 2.94-.91 2.06-2.17 4.25-4.2 6.35-6.33a22.36 22.36 0 001.61-2.12c-1.74-.84-3.18-1.55-4.63-2.24-4.59-2.17-9.19-4.33-13.77-6.53a2 2 0 01-.94-1.09c-1.66-6.34 2.52-9.49 7.59-9a2 2 0 011.2.79q5.51 7.65 10.93 15.35a1.75 1.75 0 001.72 1 2.22 2.22 0 011.64 1.05c.45.76-.33 1-.9 1.32a3.31 3.31 0 00-1 1.44 19 19 0 01-1.07 2.57c-1.93 2.93-3.94 5.79-5.94 8.7 1.25.94 2.63 1.92 3.94 3a14.32 14.32 0 012 2 3 3 0 001.85 1.16 2.41 2.41 0 011.55 3.71c-.14.26-.3.5-.45.75zM222 207.59a20.92 20.92 0 007.25 6.37 1.84 1.84 0 01.66 1 1.62 1.62 0 001.86 1.37 1.49 1.49 0 001.44-1.65c0-1.06-.7-1.55-1.76-1.62a2.11 2.11 0 01-1.12-.52c-1.81-1.6-3.57-3.28-5.4-4.86a13.48 13.48 0 00-2.09-1.21c.35-.45.63-.77.87-1.12 2-2.85 4.1-5.67 6-8.59a9 9 0 00.81-2.9.52.52 0 00-.19-.41l-10.07 10.3-2.55-.92-.26.32 1.41 2.46c-.28.35-.6.74-.9 1.15l-4.74 6.52c-.95 1.3-1.89 2.61-2.88 4a3 3 0 002.58-.74c1.34-1.12 2.68-2.27 3.91-3.51 1.74-1.71 3.38-3.55 5.17-5.44zm-26.78-2.54l12.41 10.41.19-.17-10.08-14.15zm23.56-29l-2.53 3.95 12.18 10.22.23-.23c-3.28-4.63-6.56-9.25-9.9-13.93zm-24.11 29.65l-3.43 3.16 15.68 7.46.13-.22zm33.2-14.49l.13-.21-12.3-10.38-3.4 3.17zm-17.15-10.1l5.15-6.11a5 5 0 00-5.15 6.11zM194.89 200c-3.06-.06-6 2.68-5.17 6.13zm18.59-21.24l-2.48 4.08.42.34 3.56-3.12zm4.52-3.34l-.42-.38-3.58 3.06 1.53 1.27zm-23.48 29.06l2.44-4.07-.43-.34-3.53 3.11zm-2.09-.63l-2.43 4.06.44.35 3.56-3.16zM141.78 216.91c.86 1.23.25 3.52-1.46 5.53.12-2.12-2.48-3.36-1.28-5.73l.43.32.3.26.79-1v3.28l.41.1c.26-.88.52-1.76.81-2.76zM133.21 224.87c.2-.71.39-1.42.58-2.07.5.65.51 3.16-.14 3.62a1.37 1.37 0 01-1.17.05 3.14 3.14 0 01-1.32-3.77 1.12 1.12 0 01.63-.44 3.64 3.64 0 011 1.18c.15.36 0 .86-.08 1.3zM75.32 201.17c.55-1.07 0-1.47-.78-1.85-3.51-1.67-7-3.35-10.49-5.07a15.34 15.34 0 01-1.81-1.2l.21-.56a6.28 6.28 0 011.65.33c2.07 1 4.1 2.11 6.15 3.17.36.18.74.34 1.22.57-.55-.85-1.08-1.52-1.46-2.26a3.64 3.64 0 011.4-5.11 10 10 0 016-1.45c10.6.28 18.72 5.31 25 13.47 2.48 3.21 3.32 7 1.33 10.84a11.3 11.3 0 01-10 6.36 20.52 20.52 0 01-9.1-1.41 110.92 110.92 0 01-10.93-5.27c-2.77-1.52-3.72-4-2.92-6.3a17.55 17.55 0 01.88-1.82c-2.88-.78-5.76-1.53-8.6-2.37a8.45 8.45 0 01-1.81-1.12c.68-.9 1.48-.31 2.19-.11 2.79.8 5.57 1.61 8.33 2.51a2.73 2.73 0 002.73-.58l-5.11-2-6.23-2.36a2.09 2.09 0 01-.59-.24c-.45-.38-.86-.8-1.29-1.21a4.85 4.85 0 011.74 0c3 1.16 5.93 2.41 8.88 3.63zM78 188.58c-2.33 0-4.36.14-6.16 1.32-1.53 1-2 2.37-1.08 4a8 8 0 002.24 2.59c2.23 1.61 4.6 3 7 4.48a1.82 1.82 0 001.36.05 2.54 2.54 0 013.08.86 4.33 4.33 0 01.65 4.69 4 4 0 01-2 1.76 2 2 0 01-2.46-1.15c-.6-1.57-1.88-1.78-3.18-2.12s-2.35-.52-3.46-.92a1.48 1.48 0 00-2.07.88 4.13 4.13 0 001.62 5.48 43.91 43.91 0 005.75 3.34c4.56 2.22 9.27 4 14.47 3.75a10.47 10.47 0 009.31-5.82c1.86-3.55 1-7-1.17-10a29.42 29.42 0 00-4.9-5.25c-5.57-4.64-11.75-7.94-19-7.94zm-3.7 14.63l5.12 1.53.23-.21c-.17-.31-.31-.85-.54-.89-1.53-.3-2.92-2.09-4.81-.43zm2-1.65l3.43 1.44.39-1-3.63-1.69zm4.93.85l-.49.19c.11.32.13.83.34.93 1.08.54 2.21 1 3.33 1.43-.41-1.86-2.2-1.66-3.22-2.55zm3.45 3.6c-1.29-1.18-2.73-1.3-4.06-1.86.02 1.09 1.78 1.85 4.02 1.85zm-.75.78l-3.06-.8c.93 1.8 1.85 2.01 3.02.8zM82 201.48l-.2.52 2.14 1.09.22-.44zM62 192.34c-2.06.77-5-.71-5.28-2.72 2.08.27 4 .69 5.28 2.72zM55.24 194a5.84 5.84 0 015.36 1.91c-1.84.61-4.6-.32-5.36-1.91zM61 199.82a4.65 4.65 0 01-5.12-1.27 5 5 0 015.12 1.27zM234.34 122.64c.22 1.55.41 2.92.62 4.42 1.21-.3 2.28-.54 3.33-.85.81-.24 1.44 0 1.61.76a31.85 31.85 0 01.55 4c.06.82-.49 1.19-1.34 1.16h-3.43c.28 1.91.49 3.62.81 5.32 0 .23.58.38.91.54a2.21 2.21 0 01.64 3.71 1.93 1.93 0 00-.68 2.29c.1.5.17 1 .28 1.7l4-2.32c1-.6 2.06-1.21 3.11-1.79 1.45-.81 1.95-.66 2.75.78.14.26.26.53.4.8 2-1.16 2.06-1.16 1.71-3.26a1.93 1.93 0 00-.77-1.14 2.13 2.13 0 01-1-2.63c.4-1.24.44-2.63 1.67-3.5.25-.18.18-.76.4-1 .46-.56 1-1.28 1.56-1.45.44-.12 1.22.41 1.63.86a15.3 15.3 0 011.75 2.52 1.4 1.4 0 01-.36 2 2.56 2.56 0 00-.92 2.75c.22 1.45.3 2.79-.85 4a3.83 3.83 0 00-.56 1.28 2.76 2.76 0 01-2.66 2.19c-.66 0-1 .32-.91 1a4.34 4.34 0 010 .51c0 3.36-.59 3.85-3.76 3.07-2.2-.54-4.39-1.1-6.58-1.65-.28 1.52-.23 1.58 1.29 1.67 1.79.1 2.69.9 2.55 2.28a1.3 1.3 0 01-.22.71c-.63.68-3.79.5-4.4-.16a42 42 0 01-4.35 1c-1.36.18-2.84.64-4-.7-.16-.19-.73 0-1.42 0 2.12-2.1.93-4.33.68-6.46-.35-2.92-.86-5.83-1.32-8.74-.05-.33-.11-.8-.33-.92a2.73 2.73 0 00-1.53-.44c-.22 0-.57.78-.52 1.16.6 4.66 1.28 9.31 1.89 14 0 .42-.28.9-.44 1.35a6.55 6.55 0 01-.74-1.14 7 7 0 01-.24-1.42c-1.72 3.88-4.3 3.8-6.84 2.1.17 1.2.38 2.33.47 3.46 0 .34-.28.71-.43 1.06-.27-.31-.73-.59-.78-.93-1.14-7.82-2.24-15.65-3.35-23.47q-1.45-10.35-2.88-20.69c-.06-.45.15-1.33.35-1.37.94-.18.7.72.85 1.22a13.27 13.27 0 01.23 1.49c2.09-4 5.23-5.37 9.51-4.11l-.2-2.3 10.92-1.62c-.13-1.13-.25-2.14-.38-3.31l4.93-.72 2.84 20zm5.12-1.59c-.89-6.21-1.75-12.28-2.62-18.41l-3.28.53c.15 1.18.28 2.18.42 3.29L223.06 108a3.9 3.9 0 001.36 3.23 6.55 6.55 0 011.08 8.23 4 4 0 00-.32 3.5zm-20-7.24l-.68.06c-.2-1.08-.41-2.16-.63-3.33a5.59 5.59 0 00-3.76 3l2.65 1.43c-.42.23-.51.31-.56.3-.81-.24-1.61-.5-2.42-.75a4.47 4.47 0 00.68 4.63l1.45-.68.25.34-1.19 1.3 1.67 1.21a7.19 7.19 0 01-.16-2.11 5.52 5.52 0 011-2.2 7.63 7.63 0 011.94-1.18c.15.9.32 1.88.48 2.86s.3 2 .46 3a5.76 5.76 0 003.82-3l-3-1.5.26-.54 3.1 1.1c.55-2 .33-3.36-.71-4.65-1.08.27-1.59 1.74-2.85 1.62l-.21-.36 2.59-2.15a5.64 5.64 0 00-4.55-1.77c.19 1.19.3 2.28.42 3.37zm8.75 25.93c.25 1.72.51 3.69.84 5.65a.89.89 0 00.65.57 10.56 10.56 0 006.15-1.28c.26-.15.6-.52.57-.74-.26-2-.59-3.94-.86-5.64zm1.93 13.67a10.51 10.51 0 006.43-1c.38-.2.87-.73.84-1.07-.17-1.93-.49-3.85-.74-5.58l-7.4 1.54c.32 1.86.61 3.92.92 6.11zm-1.92-21.21a1.79 1.79 0 01-.19.48c-1.08 1.87-.32 3.63.35 5.38a1 1 0 00.79.46 10.82 10.82 0 005.65-1.36c.25-.15.55-.53.52-.77-.24-2-.55-3.95-.81-5.7zm5.25-9.41l-7.66 1.07c.8 2.52 3.12 4.27 2.54 7a9 9 0 005.19-1.13 1.52 1.52 0 00.64-1.18c-.11-1.83-.39-3.68-.66-5.76zm12.62 18.93c-2.76 1.61-5.31 3.08-7.82 4.6a1.19 1.19 0 00-.43.92c0 .22.36.56.61.63 2.68.71 5.36 1.4 8.06 2a1 1 0 00.92-.47 10.16 10.16 0 00-1.29-7.68zm-22.56-10.12l.25-.6 3.17 1.06a5.34 5.34 0 00-.7-4.72l-2.79 1.89-.37-.48 2.6-2.22a5.58 5.58 0 00-4.49-1.78v4a4.41 4.41 0 00.19 1c.26.91.6 1.8.79 2.72.25 1.14.38 2.31.57 3.48a5.12 5.12 0 003.76-3zm25 13.58c.8-.28 2-.34 2.2-.82.79-1.88 2.57-3.38 2.12-5.81a4 4 0 01.68-3.07 1.58 1.58 0 00.08-2.48c-.39-.5-.73-1.06-1.15-1.53-.23-.26-.67-.61-.88-.53a1.85 1.85 0 00-.83.85c-.26.47-.27 1.19-.64 1.48-1.17.89-1.16 2.22-1.45 3.43a1.21 1.21 0 00.4 1.08c1.71.67 1.44 2.19 1.63 3.52a1.49 1.49 0 01-.93 1.73c-.76.35-1.76.76-1.26 2.15zm-27.24 8a2.85015789 2.85015789 0 00.06-5.7 2.85015789 2.85015789 0 10-.06 5.7zM223 142.6a2.78 2.78 0 00-2.83-2.82 2.85 2.85 0 102.83 2.82zm-5.63-8.21a5.44 5.44 0 004.49 1.65c-.24-1.66-.46-3.25-.7-5-.31.28-.48.45-.68.61-1 .84-2 .57-2.06-.73-.05-1.66-1.16-1.81-2.29-2.15a4.68 4.68 0 00.65 4.66l1.36-.78.33.29zm6.39 6.51c-.17-1.2-.35-2.4-.53-3.68a7.51 7.51 0 01-7.54-2.81c.34 2.39.63 4.41.94 6.55 2.59-2.75 4.8-2.73 7.14-.06zm11.81-9.55h4.18c0-1 0-1.87-.15-2.73-.25-1.73-.44-1.83-2.12-1.4l-2.36.63c.17 1.2.31 2.29.46 3.5zm-20.81-3.58a18.78 18.78 0 002.42-2.94 2.24 2.24 0 00-.26-2.13 19 19 0 00-3.2-2.19c.36 2.43.71 4.86 1.05 7.26zm2.94 20.72a9.48 9.48 0 012.48-1.59 5.08 5.08 0 012.82.28 11.49 11.49 0 012.28 1.55l-.35.35c-.28-2-.56-3.9-.89-6.12-1.48 3.52-3.26 4.08-6.8 2.31.17 1.14.33 2.21.47 3.22zm1.6-17.2h.46c1.6-2-.06-4.15-.07-6.3-.5.29-1.11.68-1.08 1 .15 1.78.46 3.54.7 5.3zM219 122l.42-.32c-.2-1.38-.41-2.76-.62-4.21-1.31.82-1.45 1.28-.88 3.5.08.42.66.7 1.08 1.03zm19.52 29.13c0 .26.08.44 0 .58-.62 1.51.22 1.48 1.28 1.23a3.12 3.12 0 00.63-.07 5.89 5.89 0 00.83-.58c-.27-.32-.49-.8-.83-.93a8 8 0 00-1.96-.22zm-18-28v.22l3.81.53-.32-2.29c-.68.36-1.19.68-1.73.92s-1.18.38-1.78.58zm16.55 18.44c1.23-1.38 1.08-2.18-.35-2.74zm-19-13c-.14-.88-.24-1.53-.39-2.47l-1.34 1.77zM246.14 100.27c.13.13.58.36.6.61 0 1 .79 1.43 1.44 2s1.14 1.17.33 2c-.55.59-.19 1.07.33 1.5a4.24 4.24 0 011.08 5.27c-.67 1.27-1.65 1.36-2.68.35-.61-.6-1.4-1-2-1.58a3.09 3.09 0 01-1-1.38 27.73 27.73 0 01-.44-3.4 18.69 18.69 0 00-.2-2.14 3 3 0 012.54-3.23zm-.6 1c-.33.43-1.09 1-1.19 1.69a10.94 10.94 0 00.19 3.51 9.19 9.19 0 001.05 3.17 7.42 7.42 0 002.32 1.82c.28.17.93.22 1.1 0 .83-.86.62-3.37-.26-4.15-1.64-1.47-1.64-1.47-.81-3.37z"/>
      <path d="M246.55 120.45a2.37 2.37 0 011.57-2.92c.25-.09.34-.57.57-.81s.8-.93 1.08-.86a2.73 2.73 0 011.31 1c.19.22.1.66.15 1 .16 1.17.25 2.28 1.37 3.13s.86 2.1.15 3.26a5.25 5.25 0 00-.74 2.08c-.09 1-.53 1.27-1.41.89-2.88-1.22-3.99-2.49-4.05-6.77zm3.58-3.77c-.95.82-1.65 1.37-2.29 2a1.62 1.62 0 00-.45 1 12.62 12.62 0 000 2.3c.27 2.51 1.62 4.08 3.45 4.32a24.07 24.07 0 011.21-2.49 1.84 1.84 0 00-.28-2.52 5.69 5.69 0 01-1.13-2 17.47 17.47 0 01-.51-2.61zM220 162.13l-1-7.13c2.74-.37 5.42-.76 8.11-1.07.79-.1.92.47.67 1.11a1.79 1.79 0 01-.42.63c-2.36 2.09-4.68 4.15-7.36 6.46zm.62-1.62l6.32-5.45-.21-.3-6.76 1c.25 1.55.45 2.98.69 4.75zM178.18 172c-1.93-.12-3.76-.22-5.58-.35-5.42-.38-10.83-.81-16.25-1.14a2.89 2.89 0 00-1.9.63c-2.85 2.48-5.29 2.29-7.69-.61a2.19 2.19 0 00-1.52-.56c-6 0-12.06.09-18.09.15h-2v-1.38l2-26.86c.22-3 .46-6.06.63-9.09a1.91 1.91 0 011.11-1.79 5 5 0 014.84-.52c3.24 1.3 6.58.34 9.75-.82 2.36-.87 4.72-1.66 7.23-.8 1.24.42 2.39 1.37 3.61 1.44s2.42-1 3.63-1a20 20 0 015.26.74 14.59 14.59 0 013.61 1.62 9.62 9.62 0 008.41.63 2.11 2.11 0 012.43.57c1.82 1.63 2.23 3.44 2.09 5.87-.62 10.59-1 21.19-1.44 31.78-.05.4-.09.85-.13 1.49zm-26.56-5.71c1.43-.26 2.76-.56 4.1-.74a19.81 19.81 0 0110.58 1.84 6.5 6.5 0 004.24.5c2.76-.68 2.93-.89 3.14-3.7.54-7.58 1.14-15.16 1.71-22.74.21-2.8.41-5.6.61-8.47-.46.11-.8.17-1.12.26a10.54 10.54 0 01-8.53-.88 31.82 31.82 0 00-4.09-1.82 8.44 8.44 0 00-6.95.35c-.36.18-.81.61-.84.95-.4 4.21-.72 8.42-1.07 12.63-.4 4.8-.81 9.6-1.2 14.41-.2 2.4-.39 4.86-.58 7.36zm-19.9-35.55c-.18 3.1-.34 6-.51 8.81-.47 8.27-.93 16.55-1.44 24.83-.06 1 .27 1.31 1.21 1.5a16.18 16.18 0 008.19-.63c3.82-1.22 7.68-1.58 11.49.46.06-.31.14-.55.16-.79.26-3.1.53-6.21.78-9.31.62-7.79 1.21-15.58 1.89-23.36a1.58 1.58 0 00-1-1.8 9.13 9.13 0 00-8-.28c-4.1 1.54-8.27 2.51-12.77.52zM126 169.19h1.26c6.16 0 12.32-.06 18.47-.12a1.88 1.88 0 011.86 1c1.43 2.22 3.29 2.54 5.47 1.08a3.77 3.77 0 001-.81 1.86 1.86 0 011.9-.71c4.52.34 9 .65 13.56 1l7.89.52c0-.65.1-1.19.12-1.74.46-10.68.86-21.36 1.44-32 .1-1.87-.81-2.75-2.1-3.86-.38 4.92-.74 9.64-1.09 14.36-.46 6.09-.93 12.19-1.35 18.29a1.87 1.87 0 01-1.23 1.72 8.45 8.45 0 01-7.65.16 18.16 18.16 0 00-14-.68 1 1 0 01-.87-.14c-1-1.47-2.55-1.75-4.14-1.94a18.24 18.24 0 00-8.31 1.13 14.56 14.56 0 01-8 .19c-1-.21-1.42-.66-1.35-1.84.59-9.26 1.1-18.52 1.63-27.78.1-1.91.19-3.82.29-5.76-2.11.53-2.16.63-2.3 2.54-.48 6.78-1 13.55-1.48 20.33-.33 4.87-.68 9.87-1.02 15.06zM80.36 131.82l.25-3.48h.68l-.16 3.47zM79.23 128a3.3 3.3 0 01.07 3.49c-.57-.49-.62-1.95-.07-3.49zM82.64 128.5v3.8c-.85-.64-.85-2.6 0-3.8zM72.29 125.21a3.08 3.08 0 010 4zM73.94 126a3.2 3.2 0 01-.62 3.61c.06-1.38.11-2.5.16-3.62zM113.35 71.56l18.11 19.2-14.8 7.06c-1.18-8.79-2.35-17.46-3.52-26.13zm1.53 4.44h-.32c.62 4.62 1.25 9.24 1.89 14l4.16-2c-1.96-4.09-3.85-8-5.73-12zm6.49 11.69l4.16-2-9.68-10.27-.25.16zm-4.05 8.9l6-2.86c-.81-1.7-1.57-3.29-2.36-4.93-1.28.61-2.41 1.2-3.59 1.7a1 1 0 00-.7 1.28c.24 1.51.42 3.04.65 4.8zm12.75-6.07c-1.23-1.32-2.32-2.52-3.45-3.67a1 1 0 00-.86-.3c-1.34.58-2.65 1.24-4 1.9l2.35 4.92zM213.38 215a83.77 83.77 0 0115.27-18.2 81.75 81.75 0 01-15.27 18.2zM231.5 213.66c.42.51.86.82.83 1.09s-.44.67-.76.76-.71-.4-.72-.65.32-.64.65-1.2zM236 120.79l-7.86 1.13-.77-5.42 7.82-1.12c.31 1.8.57 3.55.81 5.41zm-.95-.71c-.21-1.32-.39-2.51-.58-3.75l-6.17.89c.2 1.33.38 2.49.58 3.74zM226.42 109.45l7.82-1.1c.27 1.81.53 3.55.8 5.41l-7.87 1.11zm.93.74c.2 1.3.38 2.5.56 3.74l6.17-.89c-.19-1.32-.36-2.51-.55-3.76zM245.79 149.53l.56-4.27c1.06.64.86 2.95-.56 4.27zM221.2 149.35c.35.48.72.75.7 1s-.4.5-.62.74c-.23-.2-.62-.4-.64-.62s.27-.58.56-1.12zM220.17 143.62c-.32-.48-.64-.76-.65-1s.44-.65.6-.62a1.06 1.06 0 01.72.64c.03.21-.34.5-.67.98z"/>
      <path d="M225.25 155.86l-3.23 2c.21-1.39 1.19-2 3.23-2zM164 152.52a4.36 4.36 0 01-1.24.77c-.19 0-.69-.58-.65-.65a2.82 2.82 0 01.93-.92c.13-.06.51.39.96.8zM167.93 160.44c.14 1.25-.37 1.65-1.59 1.43-.08-1.09.34-1.57 1.59-1.43zM159.23 136.11c.32.65.69 1.08.6 1.29a1.73 1.73 0 01-1 .69c-.11 0-.6-.55-.55-.75.11-.34.49-.65.95-1.23zM162.35 136.85c.31 1.17-.24 1.54-1.32 1.43-.28-1.36-.14-1.52 1.32-1.43zM156.3 143c.37.54.74.9.68 1a2.44 2.44 0 01-.87.88c-.07 0-.68-.47-.64-.64.08-.35.41-.66.83-1.24zM159.75 144.07a5.29 5.29 0 01-1.31.84c-.17 0-.45-.41-.68-.64a3.49 3.49 0 01.91-.82c.17-.07.52.28 1.08.62zM166.29 140.82c-.36-.43-.81-.81-.75-.92a2 2 0 01.87-.82c.11-.05.68.46.65.63-.06.34-.41.62-.77 1.11zM172.06 147.65a4.78 4.78 0 01-1.34.64c-.19 0-.42-.44-.62-.68a4 4 0 011-.75c.13-.05.45.37.96.79zM157.22 159.31a5.93 5.93 0 01-1.35.78c-.18 0-.45-.33-.67-.52.27-.3.5-.69.84-.85.17-.08.54.28 1.18.59zM167.71 154.73c-.36-.47-.73-.82-.68-.9a2.71 2.71 0 01.87-.85c.09-.06.66.41.63.49a8 8 0 01-.82 1.26zM170.61 161.69a4.11 4.11 0 01-1 .48c-.21 0-.47-.18-.71-.28a3.29 3.29 0 01.82-.73c.21-.09.55.1.83.16zM169.22 141.34l-.92-1a3.38 3.38 0 01.91-.68c.13-.05.61.38.6.56a3.62 3.62 0 01-.59 1.12z"/>
      <path d="M157 159.07l1.82-.72c-.26 1.38-.81 1.56-1.63 1.19zM134.06 138.2a16.88 16.88 0 011.54-1.12 1.6 1.6 0 01.56.75 1 1 0 01-1.08 1.21c-.24-.04-.46-.37-1.02-.84zM134.71 145.77c-.39-.56-.79-.94-.72-1.07a4.43 4.43 0 01.9-1c.23.23.7.52.66.68a5.87 5.87 0 01-.84 1.39zM146.85 138.83c-.34-.75-.7-1.18-.61-1.46s.61-.51.95-.76c.23.31.65.64.62.93s-.44.64-.96 1.29zM148.32 143.62c-.61.42-.94.8-1.29.83s-.78-.57-.73-.72a1.56 1.56 0 01.84-.87c.21-.07.59.36 1.18.76zM143.4 137.71c-.58.38-.91.76-1.27.78s-.49-.48-.74-.74a3.21 3.21 0 011-.74c.15-.01.48.33 1.01.7zM151.14 137.44a6.64 6.64 0 01-1.43.83c-.14 0-.64-.6-.6-.66a2.9 2.9 0 011-.91c.11-.07.48.3 1.03.74zM135.42 158.8a7.13 7.13 0 01-1.43.89c-.13.05-.63-.51-.6-.57a3.24 3.24 0 01.9-1c.1-.12.51.29 1.13.68zM145.54 156.68c.38.4.78.75.74.8a4 4 0 01-.92 1c-.05 0-.66-.45-.62-.55a6 6 0 01.8-1.25zM148 159.35c-.35-.45-.71-.83-.67-.88a4.89 4.89 0 011-.89s.55.47.51.58a6.78 6.78 0 01-.84 1.19zM139.67 145.64c-.36-.53-.75-.87-.69-1a1.4 1.4 0 01.79-.76c.19-.06.76.43.73.55a5 5 0 01-.83 1.21zM144.9 136.12c.37.5.77.9.72 1a2.46 2.46 0 01-.94.79c-.12.05-.65-.43-.62-.53a6.74 6.74 0 01.84-1.26zM139 158c-.22.92-.75 1.25-1.89.5l1.59-1zM139.94 136.92c.31.47.63.84.58.9a3.11 3.11 0 01-1 .77c-.09 0-.59-.46-.56-.51a8.52 8.52 0 01.98-1.16zM147.56 151.08a12.72 12.72 0 01-1.32.69 5.69 5.69 0 01-.39-.62l1.34-.72zM136.5 138.19a6.75 6.75 0 011.1-.85c.09-.05.41.33.62.51l-1.23.93zM150.09 151.64l-1.56.74-.31-.66 1.55-.74zM148.71 143.93c.44-.21.88-.44 1.33-.61.05 0 .23.35.34.54l-1.33.74zM145.11 150.73a3.29 3.29 0 01-1 .54c-.2 0-.46-.33-.69-.51a3.24 3.24 0 01.84-.63c.22-.07.53.15.79.24zM135.85 151.66a5.49 5.49 0 01-1.31.71c-.19 0-.45-.31-.68-.49a3.52 3.52 0 01.88-.69c.19-.07.51.2 1.11.47z"/>
    </g>
  </g>
</svg>
