<svg version="1" xmlns="http://www.w3.org/2000/svg" width="268" height="268" viewBox="0 0 201.000000 201.000000"><path d="M37 36c-1.3.8-1.5 9.1-1.5 64.1 0 51.7.2 63.5 1.3 64.6 2.1 2.1 34.5 1.9 36.6-.3 1.9-1.9 2-2.5.4-4.7-1.1-1.4-3.6-1.7-15.8-1.9l-14.5-.3v-114l14-.3 13.9-.3L85 56.3c7.4 7.4 14.3 13.7 15.2 14 1.3.5 5.5-3.1 15.7-13.3l13.9-14H158l.1 2.7v108l-.1 4.2-14.6.3c-12.7.3-14.8.5-15.8 2.1-.8 1.2-.8 2.2 0 3.5 1 1.5 3.2 1.7 18.6 2 14.8.2 17.7 0 18.8-1.3 1.8-2.2 1.9-125.8 0-128-1-1.2-4.4-1.5-19.8-1.5h-18.5L114 47.5c-6.9 6.9-12.8 12.5-13.1 12.5-.3 0-6.2-5.6-13-12.4L75.4 35.1H56.9c-10.1-.1-19.1.3-19.9.9z"/><path d="M72.3 84c-1.4.6-2.3 1.8-2.4 3.2 0 1.3-.1 11.3-.1 22.2-.1 18.2.1 20.1 1.8 21.3 2.2 1.6 2.9 1.6 4.6-.1 1.1-1 1.4-5 1.3-17 0-8.6.1-15.6.4-15.6.2 0 5.2 4.8 11.2 10.6 8 8 11.2 10.4 12.6 10 1-.3 6.3-5.1 11.8-10.6l10-10.1.3 16c.2 14.8.4 16.1 2.2 17.1 1.4.8 2.6.8 4 0 1.9-1 2-2.1 2-23.5s-.1-22.5-2-23.5c-2.8-1.5-3.9-.7-17.4 12.8l-11.9 12-12.8-12.9c-7.1-7.1-13-12.9-13.2-12.8-.1 0-1.2.4-2.4.9z"/></svg>