<svg id="Layer_1" xmlns="http://www.w3.org/2000/svg" viewBox="0 0 792 1224"><style>.st0{fill:none;stroke:#575B82;stroke-width:2.15;stroke-linecap:round;stroke-linejoin:round;stroke-miterlimit:10;} .st1{fill:none;stroke:#575B82;stroke-width:2.15;stroke-miterlimit:10;} .st2{fill:#575B82;} .st3{fill:#2E305A;stroke:#575B82;stroke-width:2.15;stroke-linecap:round;stroke-linejoin:round;stroke-miterlimit:10;} .st4{fill:none;stroke:#575B82;stroke-width:2;stroke-linecap:round;stroke-linejoin:round;stroke-miterlimit:10;} .st5{fill:none;stroke:#575B82;stroke-width:2;stroke-miterlimit:10;} .st6{fill:#2E305A;stroke:#575B82;stroke-width:2.15;stroke-miterlimit:10;} .st7{fill:#00AEEF;stroke:#575B82;stroke-width:2.15;stroke-miterlimit:10;} .st8{fill:#00AEEF;stroke:#575B82;stroke-width:2.15;stroke-linecap:round;stroke-linejoin:round;stroke-miterlimit:10;} .st9{fill:#575B82;stroke:#575B82;stroke-width:2.15;stroke-linecap:round;stroke-linejoin:round;stroke-miterlimit:10;}</style><path class="st0" d="M440.6 36.3v-9.8c0-3.3 2.7-6.1 6.1-6.1h8.3c3.3 0 6.1 2.7 6.1 6.1v10.2"/><path class="st1" d="M459.1 22c-2.2 2.2-5.4 6-5.4 14.6"/><path class="st0" d="M441.9 22.7c2.4.8 5.3 1.4 8.9 1.4m5.6 32.1h-11.1c-3.2 0-5.8-2.6-5.8-5.8V37.7l2.1-2 4.2 1.9 5-1.9 5.6 1.9 3.8-1.9 2 2v12.7c-.1 3.2-2.6 5.8-5.8 5.8z"/><path class="st0" d="M443.5 43.6l4.4-.5 4.4.5m1.3 7l1.9-.3 2 .3m238.3-21.5H707V55h-11.2zm0 18.7H707m-11.2-18.7H707l-5.6-8.6z"/><path class="st2" d="M699.1 24.4h4.6l-2.3-3.9z"/><path class="st3" d="M699.4 33.4v10.1m4-10.1v10.1"/><path class="st4" d="M741.8 61.7h14.8v4.7h-14.8zm7.4-29.9h3.5c0 11.2 6.9 17.8 6.9 17.8l-6.9 12.1h-7l-6.9-12.1s6.9-6.5 6.9-17.8h3.5z"/><path class="st5" d="M749.2 31.8v13.1"/><circle class="st5" cx="749.2" cy="47.7" r="2.7"/><circle class="st1" cx="356" cy="16.6" r="5.7"/><circle class="st1" cx="356" cy="39.9" r="5.7"/><circle class="st1" cx="367.7" cy="28.3" r="5.7"/><circle class="st1" cx="344.4" cy="28.3" r="5.7"/><path class="st2" d="M366.8 29.5l-.4 1c-.1.3-.4.4-.7.3-.3-.1-.4-.4-.3-.7l1.5-4.1c.1-.3.4-.5.8-.5s.6.2.8.5l1.5 4.1c.1.3-.1.6-.3.7-.3.1-.6 0-.7-.3l-.4-1h-1.8zm1.4-1l-.5-1.8-.5 1.8h1zm-13.7 14c-.3 0-.4-.2-.4-.5v-4.3c0-.3.2-.5.4-.5h1.7c.9 0 1.6.6 1.6 1.5 0 .3-.2.8-.7 1 .7.2 1 .8 1 1.2 0 .9-.6 1.6-1.7 1.6h-1.9zm1.5-3.1c.3 0 .5-.2.5-.6 0-.3-.2-.6-.5-.6h-.9v1.1h.9zm-.8.9v1.3h1.1c.4 0 .6-.3.6-.7 0-.3-.2-.6-.6-.6h-1.1zm-.2-21.2c-.1.2-.5.3-.7.1-.3-.2-.3-.5-.2-.7l1.3-2-1.1-1.7c-.1-.2-.1-.6.2-.7.3-.2.6-.1.7.1l.9 1.4.9-1.4c.1-.2.5-.3.7-.1.2.1.3.5.2.7l-1.1 1.7 1.3 2c.2.2.1.6-.2.7-.2.1-.6.1-.7-.1l-1-1.7-1.2 1.7zm-10.1 9.7v1.9c0 .3-.3.5-.6.5s-.6-.2-.6-.5v-1.9l-1.5-2.1c-.1-.2-.1-.6.2-.7.2-.2.6-.1.7.1l1.2 1.8 1.2-1.8c.1-.2.5-.3.7-.1.2.2.3.5.2.7l-1.5 2.1z"/><path class="st4" d="M278.1 655.4h14.8v4.7h-14.8z"/><path class="st4" d="M285.5 625.6h3.5c0 11.2 6.9 17.8 6.9 17.8l-6.9 12.1h-7l-6.9-12.1s6.9-6.5 6.9-17.8h3.5z"/><path class="st5" d="M285.5 625.6v13.1"/><circle class="st5" cx="285.5" cy="641.4" r="2.7"/><path class="st0" d="M363.5 674.4h44.1v30.2h-44.1zm-7.1 30.2h58.2v4.1h-58.2z"/><path class="st0" d="M369.2 680.2h32.7v18.6h-32.7z"/><path class="st2" d="M388.7 691.2l-1.7-1.7.9-.9c.4-.4.3-.8-.3-1l-4.5-1.2c-.5-.1-.8.2-.7.7l1.2 4.5c.1.5.6.6.9.3l.9-.9 1.7 1.7c.2.2.5.3.7.3.3 0 .5-.1.7-.3.6-.4.6-1.1.2-1.5z"/><path class="st0" d="M435.4 698.6h50.5v34.5h-50.5zm5.6 4.3h8.3m-8.3 8.6h16.7m-12.6 4.3h34.7m-30.5 4.3h8.4m3.7 0h15.5m-35.9 4.2h12.8m-12.8 4.5h8.3m-4.2-21.6h17.4m3.6 0h8.2"/><circle class="st1" cx="392.9" cy="612.6" r="17.3"/><path class="st1" d="M392.9 629.8v-34.5m0 34.5s-10.1-4.1-10.1-17.3 10.1-17.3 10.1-17.3m0 34.6s10.1-4.1 10.1-17.3-10.1-17.3-10.1-17.3"/><path class="st6" d="M377.9 603.9h30m-32.3 8.7h34.6m-32.3 8.6h30"/><path class="st0" d="M643.2 532.9h-11.7v-11.6h-10.9v11.6H609v10.9h11.6v11.7h10.9v-11.7h11.7zm-30.3 5.5h7.7m10.9 0h7.8m-13.2-13.2v7.7m0 10.9v7.7"/><path class="st7" d="M304.7 433.4v34.2"/><path class="st8" d="M298.3 441.9h1.9m-1.9 3.1h1.9m-1.9 10.9h1.9m-1.9 3.1h1.9"/><circle class="st2" cx="299.3" cy="450.5" r="2.1"/><path class="st0" d="M311.4 442.7V440h2.7m0 22.8h-2.7v-2.7m30.7 0v2.7h-2.8m0-22.8h2.8v2.7"/><path class="st0" d="M294.7 433.4h54v34.2h-54zm29.2 157.9h12.5v22.2h-12.5z"/><path class="st0" d="M319.6 585.6h21v34.1h-21z"/><path class="st2" d="M330.1 615.7c-.6 0-1 .5-1 1 0 .6.5 1 1 1 .6 0 1-.5 1-1s-.4-1-1-1zm-4.7 0c-.6 0-1 .5-1 1 0 .6.5 1 1 1 .6 0 1-.5 1-1 .1-.5-.4-1-1-1zm9.4 0c-.6 0-1 .5-1 1 0 .6.5 1 1 1 .6 0 1-.5 1-1s-.5-1-1-1z"/><path class="st0" d="M391.6 434.3v-9.8c0-3.3 2.7-6.1 6.1-6.1h8.3c3.3 0 6.1 2.7 6.1 6.1v10.2"/><path class="st1" d="M410.1 420c-2.2 2.2-5.4 6-5.4 14.6"/><path class="st0" d="M392.9 420.7c2.4.8 5.3 1.4 8.9 1.4m5.6 32h-11.1c-3.2 0-5.8-2.6-5.8-5.8v-12.7l2.1-2 4.2 1.9 5-1.9 5.6 1.9 3.8-1.9 2 2v12.7c0 3.2-2.6 5.8-5.8 5.8z"/><path class="st0" d="M394.5 441.6l4.4-.6 4.4.6m1.4 6.9l1.9-.2 1.9.2"/><circle class="st1" cx="373.4" cy="523.5" r="5.7"/><circle class="st1" cx="373.4" cy="546.8" r="5.7"/><circle class="st1" cx="385" cy="535.1" r="5.7"/><circle class="st1" cx="361.7" cy="535.1" r="5.7"/><path class="st2" d="M384.1 536.3l-.4 1c-.1.3-.4.4-.7.3-.3-.1-.4-.4-.3-.7l1.5-4.1c.1-.3.4-.5.8-.5s.6.2.8.5l1.5 4.1c.1.3-.1.6-.3.7-.3.1-.6 0-.7-.3l-.4-1h-1.8zm1.5-.9l-.5-1.8-.5 1.8h1zm-13.7 14c-.3 0-.4-.2-.4-.5v-4.3c0-.3.2-.5.4-.5h1.7c.9 0 1.6.6 1.6 1.5 0 .3-.2.8-.7 1 .7.2 1 .8 1 1.2 0 .9-.6 1.6-1.7 1.6h-1.9zm1.5-3.1c.3 0 .5-.2.5-.6 0-.3-.2-.6-.5-.6h-.9v1.1h.9zm-.9.8v1.3h1.1c.4 0 .6-.3.6-.7 0-.3-.2-.6-.6-.6h-1.1zm-.2-21.2c-.1.2-.5.3-.7.1-.3-.2-.3-.5-.2-.7l1.3-2-1.1-1.7c-.1-.2-.1-.6.2-.7.3-.2.6-.1.7.1l.9 1.4.9-1.4c.1-.2.5-.3.7-.1.2.1.3.5.2.7l-1.1 1.7 1.3 2c.2.2.1.6-.2.7-.2.1-.6.1-.7-.1l-1-1.7-1.2 1.7zm-10 9.7v1.9c0 .3-.3.5-.6.5s-.6-.2-.6-.5v-1.9l-1.5-2.1c-.1-.2-.1-.6.2-.7.2-.2.6-.1.7.1l1.2 1.8 1.2-1.8c.1-.2.5-.3.7-.1.2.2.3.5.2.7l-1.5 2.1z"/><path class="st0" d="M514.8 388H526v25.9h-11.2zm0 18.7H526M514.8 388H526l-5.6-8.6z"/><path class="st2" d="M518.1 383.4h4.6l-2.3-4z"/><path class="st3" d="M518.4 392.3v10.1m4-10.1v10.1"/><path class="st0" d="M563.6 412.4h49.1v34.5h-49.1z"/><path class="st0" d="M584.8 426v7.4l7.7-3.7zm-15.5 16.4H608"/><circle class="st2" cx="572.6" cy="442.4" r="2.1"/><path class="st0" d="M541.054 511.43l17.183 17.183-17.183 17.183-17.182-17.183z"/><ellipse transform="rotate(-45 541.18 522.827)" class="st9" cx="541.2" cy="522.8" rx="1.8" ry="1.8"/><ellipse transform="rotate(-45 546.907 528.564)" class="st9" cx="546.9" cy="528.6" rx="1.8" ry="1.8"/><ellipse transform="rotate(-45 541.254 534.217)" class="st9" cx="541.3" cy="534.2" rx="1.8" ry="1.8"/><path class="st0" d="M535.4 517.1l4.5 4.4m2.6 2.6l3.1 3.1m-4.4-2.5v7.7"/><path class="st4" d="M579.2 673H594v4.7h-14.8zm7.4-29.9h3.5c0 11.2 6.9 17.8 6.9 17.8l-6.9 12.1H583l-6.9-12.1s6.9-6.5 6.9-17.8h3.6z"/><path class="st5" d="M586.6 643.1v13.1"/><circle class="st5" cx="586.6" cy="658.9" r="2.7"/><path class="st4" d="M533 341.1h14.8v4.7H533zm7.4-29.9h3.5c0 11.2 6.9 17.8 6.9 17.8l-6.9 12.1h-7L530 329s6.9-6.5 6.9-17.8h3.5z"/><path class="st5" d="M540.4 311.2v13.1"/><circle class="st5" cx="540.4" cy="327" r="2.7"/><path class="st0" d="M648.6 578.9h44.1v30.2h-44.1zm-7 30.2h58.2v4.1h-58.2z"/><path class="st0" d="M654.4 584.7h32.7v18.6h-32.7z"/><path class="st2" d="M673.9 595.7l-1.7-1.7.9-.9c.4-.4.3-.8-.3-1l-4.5-1.2c-.5-.1-.8.2-.7.7l1.2 4.5c.1.5.6.6.9.3l.9-.9 1.7 1.7c.2.2.5.3.7.3.3 0 .5-.1.7-.3.6-.4.6-1.1.2-1.5z"/><path class="st0" d="M358.2 331.9h50.5v34.5h-50.5zm5.6 4.3h8.4m-8.4 8.6h16.8m-12.6 4.4h34.6m-30.4 4.3h8.4m3.6 0h15.6m-36 4.1h12.8m-12.8 4.5h8.4m-4.2-21.6h17.3m3.7 0h8.2"/><circle class="st1" cx="481.9" cy="297.3" r="17.3"/><path class="st1" d="M481.9 314.6V280m0 34.6s-10.1-4.1-10.1-17.3c0-13.2 10.1-17.3 10.1-17.3m0 34.6s10.1-4.1 10.1-17.3c0-13.2-10.1-17.3-10.1-17.3"/><path class="st6" d="M466.9 288.7h29.9m-32.2 8.6h34.5m-32.2 8.6h29.9"/><path class="st0" d="M415.8 265.1h-11.6v-11.6h-11v11.6h-11.6V276h11.6v11.7h11V276h11.6zm-30.3 5.5h7.7m11 0h7.7m-13.2-13.2v7.7m0 10.9v7.7"/><path class="st7" d="M560.8 709.2v34.2"/><path class="st8" d="M554.3 717.8h2m-2 3.1h2m-2 10.9h2m-2 3.1h2"/><circle class="st2" cx="555.3" cy="726.3" r="2.1"/><path class="st0" d="M567.4 718.6v-2.7h2.8m0 22.8h-2.8V736m30.7 0v2.7h-2.7m0-22.8h2.7v2.7"/><path class="st0" d="M550.7 709.2h54v34.2h-54zm47.6-355.7h12.5v22.2h-12.5z"/><path class="st0" d="M594 347.8h21v34.1h-21z"/><path class="st2" d="M604.5 377.9c-.6 0-1 .5-1 1 0 .6.5 1 1 1 .6 0 1-.5 1-1s-.4-1-1-1zm-4.7 0c-.6 0-1 .5-1 1 0 .6.5 1 1 1 .6 0 1-.5 1-1s-.4-1-1-1zm9.3 0c-.6 0-1 .5-1 1 0 .6.5 1 1 1 .6 0 1-.5 1-1 .1-.5-.4-1-1-1z"/><path class="st0" d="M487.4 762.6v-9.8c0-3.3 2.7-6.1 6.1-6.1h8.3c3.3 0 6.1 2.7 6.1 6.1V763"/><path class="st1" d="M505.9 748.3c-2.2 2.2-5.4 6-5.4 14.6"/><path class="st0" d="M488.7 749c2.4.8 5.3 1.4 8.9 1.4m5.6 32h-11.1c-3.2 0-5.8-2.6-5.8-5.8V764l2.1-2 4.2 1.9 5-1.9 5.6 1.9 3.8-1.9 2 2v12.7c0 3.1-2.6 5.7-5.8 5.7z"/><path class="st0" d="M490.3 769.9l4.4-.6 4.4.6m1.3 6.9l2-.2 1.9.2M360.1 1114v-9.8c0-3.3 2.7-6.1 6.1-6.1h8.3c3.3 0 6.1 2.7 6.1 6.1v10.2"/><path class="st1" d="M378.6 1099.7c-2.2 2.2-5.4 6-5.4 14.6"/><path class="st0" d="M361.4 1100.4c2.4.8 5.3 1.4 8.9 1.4m5.6 32.1h-11.1c-3.2 0-5.8-2.6-5.8-5.8v-12.7l2.1-2 4.2 1.9 5-1.9 5.6 1.9 3.8-1.9 2 2v12.7c0 3.2-2.6 5.8-5.8 5.8z"/><path class="st0" d="M363.1 1121.3l4.4-.5 4.4.5m1.3 7l1.9-.3 1.9.3"/><circle class="st1" cx="589.6" cy="474.8" r="5.7"/><circle class="st1" cx="589.6" cy="498.1" r="5.7"/><circle class="st1" cx="601.2" cy="486.5" r="5.7"/><circle class="st1" cx="577.9" cy="486.5" r="5.7"/><path class="st2" d="M600.3 487.7l-.4 1c-.1.3-.4.4-.7.3-.3-.1-.4-.4-.3-.7l1.5-4.1c.1-.3.4-.5.8-.5s.6.2.8.5l1.5 4.1c.1.3-.1.6-.3.7-.3.1-.6 0-.7-.3l-.4-1h-1.8zm1.5-1l-.5-1.8-.5 1.8h1zm-13.7 14c-.3 0-.4-.2-.4-.5V496c0-.3.2-.5.4-.5h1.7c.9 0 1.6.6 1.6 1.5 0 .3-.2.8-.7 1 .7.2 1 .8 1 1.2 0 .9-.6 1.6-1.7 1.6h-1.9zm1.5-3.1c.3 0 .5-.2.5-.6 0-.3-.2-.6-.5-.6h-.9v1.1h.9zm-.9.9v1.3h1.1c.4 0 .6-.3.6-.7 0-.3-.2-.6-.6-.6h-1.1zm-.2-21.2c-.1.2-.5.3-.7.1-.3-.2-.3-.5-.2-.7l1.3-2-1.1-1.7c-.1-.2-.1-.6.2-.7.3-.2.6-.1.7.1l.9 1.4.9-1.4c.1-.2.5-.3.7-.1.2.1.3.5.2.7l-1.1 1.7 1.3 2c.2.2.1.6-.2.7-.2.1-.6.1-.7-.1l-1-1.7-1.2 1.7zm-10 9.7v1.9c0 .3-.3.5-.6.5s-.6-.2-.6-.5V487l-1.5-2.1c-.1-.2-.1-.6.2-.7.2-.2.6-.1.7.1l1.2 1.8 1.2-1.8c.1-.2.5-.3.7-.1.2.2.3.5.2.7l-1.5 2.1z"/><path class="st0" d="M520 671.6h11.2v25.9H520zm0 18.7h11.2M520 671.6h11.2l-5.6-8.6z"/><path class="st2" d="M523.3 667h4.5l-2.2-4z"/><path class="st3" d="M523.5 675.9V686m4.1-10.1V686"/><path class="st0" d="M261 518h49.1v34.5H261z"/><path class="st9" d="M282.2 531.6v7.3l7.7-3.6z"/><path class="st0" d="M266.7 547.9h38.7"/><circle class="st2" cx="270" cy="547.9" r="2.1"/><path class="st0" d="M316.635 372.162l17.182 17.183-17.182 17.183-17.183-17.183z"/><ellipse transform="rotate(-45 316.736 383.514)" class="st9" cx="316.7" cy="383.5" rx="1.8" ry="1.8"/><ellipse transform="rotate(-45 322.462 389.25)" class="st9" cx="322.5" cy="389.2" rx="1.8" ry="1.8"/><ellipse transform="rotate(-45 316.81 394.904)" class="st9" cx="316.8" cy="394.9" rx="1.8" ry="1.8"/><path class="st0" d="M311 377.8l4.4 4.4m2.6 2.6l3.2 3.1m-4.4-2.6v7.8"/><path class="st4" d="M241.1 452h14.8v4.7h-14.8zm7.4-29.8h3.5c0 11.2 6.9 17.8 6.9 17.8l-6.9 12h-7l-6.9-12.1s6.9-6.5 6.9-17.8h3.5z"/><path class="st5" d="M248.5 422.2v13"/><circle class="st5" cx="248.5" cy="438" r="2.7"/><path class="st0" d="M292.7 266.6h44.1v30.2h-44.1zm-7 30.2h58.2v4.1h-58.2z"/><path class="st0" d="M298.5 272.4h32.7V291h-32.7z"/><path class="st2" d="M318 283.4l-1.7-1.7.9-.9c.4-.4.3-.8-.3-1l-4.5-1.2c-.5-.1-.8.2-.7.7l1.2 4.5c.1.5.6.6.9.3l.9-.9 1.7 1.7c.2.2.5.3.7.3.3 0 .5-.1.7-.3.6-.4.6-1.1.2-1.5z"/><path class="st0" d="M202.7 586h50.5v34.5h-50.5zm5.5 4.3h8.4m-8.4 8.7H225m-12.6 4.3h34.7m-30.5 4.3h8.4m3.6 0h15.6m-36 4.1h12.9m-12.9 4.5h8.4m-4.2-21.5h17.3m3.7 0h8.2"/><circle class="st1" cx="660.6" cy="430" r="17.3"/><path class="st1" d="M660.6 447.3v-34.6m0 34.6s-10.1-4.1-10.1-17.3c0-13.2 10.1-17.3 10.1-17.3m0 34.6s10.1-4.1 10.1-17.3c0-13.2-10.1-17.3-10.1-17.3"/><path class="st6" d="M645.6 421.4h29.9m-32.2 8.6h34.5m-32.2 8.6h29.9"/><path class="st0" d="M221.4 520.3h-11.6v-11.6h-11v11.6h-11.6v11h11.6v11.6h11v-11.6h11.6zm-30.3 5.5h7.7m11 0h7.7m-13.2-13.2v7.7m0 11v7.7"/><path class="st7" d="M685.7 480.7v34.2"/><path class="st8" d="M679.2 489.3h2m-2 3h2m-2 11h2m-2 3.1h2"/><circle class="st2" cx="680.2" cy="497.8" r="2.1"/><path class="st0" d="M692.3 490.1v-2.8h2.7m0 22.9h-2.7v-2.8m30.7 0v2.8h-2.8m0-22.9h2.8v2.8"/><path class="st0" d="M675.6 480.7h54v34.2h-54zM396.3 758h12.5v22.2h-12.5z"/><path class="st0" d="M392 752.3h21v34.1h-21z"/><path class="st2" d="M402.5 782.4c-.6 0-1 .5-1 1 0 .6.5 1 1 1 .6 0 1-.5 1-1 .1-.5-.4-1-1-1zm-4.7 0c-.6 0-1 .5-1 1 0 .6.5 1 1 1 .6 0 1-.5 1-1 .1-.5-.4-1-1-1zm9.4 0c-.6 0-1 .5-1 1 0 .6.5 1 1 1 .6 0 1-.5 1-1s-.5-1-1-1z"/><path class="st0" d="M647.5 667v-9.8c0-3.3 2.7-6.1 6.1-6.1h8.3c3.3 0 6.1 2.7 6.1 6.1v10.2"/><path class="st1" d="M666 652.7c-2.2 2.2-5.4 6-5.4 14.6"/><path class="st0" d="M648.8 653.4c2.4.8 5.3 1.4 8.9 1.4m5.6 32.1h-11.1c-3.2 0-5.8-2.6-5.8-5.8v-12.7l2.1-2 4.2 1.9 5-1.9 5.6 1.9 3.8-1.9 2 2v12.7c0 3.2-2.6 5.8-5.8 5.8z"/><path class="st0" d="M650.5 674.4l4.4-.6 4.4.6m1.3 6.9l1.9-.3 1.9.3"/><circle class="st1" cx="303.7" cy="703.1" r="5.7"/><circle class="st1" cx="303.7" cy="726.4" r="5.7"/><circle class="st1" cx="315.3" cy="714.7" r="5.7"/><circle class="st1" cx="292" cy="714.7" r="5.7"/><path class="st2" d="M314.4 715.9l-.4 1c-.1.3-.4.4-.7.3-.3-.1-.4-.4-.3-.7l1.5-4.1c.1-.3.4-.5.8-.5s.6.2.8.5l1.5 4.1c.1.3-.1.6-.3.7-.3.1-.6 0-.7-.3l-.4-1h-1.8zm1.5-.9l-.5-1.8-.5 1.8h1zm-13.7 14c-.3 0-.4-.2-.4-.5v-4.3c0-.3.2-.5.4-.5h1.7c.9 0 1.6.6 1.6 1.5 0 .3-.2.8-.7 1 .7.2 1 .8 1 1.2 0 .9-.6 1.6-1.7 1.6h-1.9zm1.5-3.2c.3 0 .5-.2.5-.6 0-.3-.2-.6-.5-.6h-.9v1.1h.9zm-.9.9v1.3h1.1c.4 0 .6-.3.6-.7 0-.3-.2-.6-.6-.6h-1.1zm-.2-21.2c-.1.2-.5.3-.7.1-.3-.2-.3-.5-.2-.7l1.3-2-1.1-1.7c-.1-.2-.1-.6.2-.7.3-.2.6-.1.7.1l.9 1.4.9-1.4c.1-.2.5-.3.7-.1.2.1.3.5.2.7l-1.1 1.7 1.3 2c.2.2.1.6-.2.7-.2.1-.6.1-.7-.1l-1-1.7-1.2 1.7zm-10 9.7v1.9c0 .3-.3.5-.6.5s-.6-.2-.6-.5v-1.9l-1.5-2.1c-.1-.2-.1-.6.2-.7.2-.2.6-.1.7.1l1.2 1.8 1.2-1.8c.1-.2.5-.3.7-.1.2.2.3.5.2.7l-1.5 2.1z"/><path class="st0" d="M354.1 204.2h11.2v25.9h-11.2zm0 18.8h11.1m-11.1-18.8h11.1l-5.6-8.6z"/><path class="st2" d="M357.4 199.6h4.5l-2.3-4z"/><path class="st3" d="M357.6 208.5v10.2m4.1-10.2v10.2"/><path class="st0" d="M542.2 582.4h49.1v34.5h-49.1z"/><path class="st9" d="M563.4 596v7.3l7.7-3.6z"/><path class="st0" d="M547.9 612.3h38.6"/><circle class="st2" cx="551.2" cy="612.3" r="2.1"/><path class="st0" d="M342.686 749.73l17.182 17.182-17.182 17.182-17.183-17.182z"/><ellipse transform="rotate(-45 342.793 761.16)" class="st9" cx="342.8" cy="761.2" rx="1.8" ry="1.8"/><ellipse transform="rotate(-45 348.518 766.897)" class="st9" cx="348.5" cy="766.9" rx="1.8" ry="1.8"/><ellipse transform="rotate(-45 342.866 772.55)" class="st9" cx="342.9" cy="772.5" rx="1.8" ry="1.8"/><path class="st0" d="M337.1 755.4l4.4 4.5m2.6 2.6l3.1 3.1m-4.4-2.6l.1 7.7"/><path class="st4" d="M285.3 216.9h14.8v4.7h-14.8zm7.4-29.9h3.5c0 11.2 6.9 17.8 6.9 17.8l-6.9 12.1h-7l-6.9-12.1s6.9-6.5 6.9-17.8h3.5z"/><path class="st5" d="M292.7 187v13.1"/><circle class="st5" cx="292.7" cy="202.8" r="2.7"/><path class="st0" d="M155 57.9h-11.7V46.3h-10.9v11.6h-11.6v10.9h11.6v11.7h10.9V68.8H155zm-30.3 5.5h7.7m10.9 0h7.7m-13.1-13.2v7.7m0 10.9v7.7m288.4 128.6h44.1v30.2h-44.1zm-7.1 30.2h58.2v4.1h-58.2z"/><path class="st0" d="M432 210.9h32.7v18.6H432z"/><path class="st2" d="M451.6 221.9l-1.7-1.7.9-.9c.4-.4.3-.8-.3-1l-4.5-1.2c-.5-.1-.8.2-.7.7l1.2 4.5c.1.5.6.6.9.3l.9-.9 1.7 1.7c.2.2.5.3.7.3s.5-.1.7-.3c.6-.4.6-1 .2-1.5z"/><path class="st0" d="M655.1 339h50.5v34.5h-50.5zm5.5 4.3h8.4m-8.4 8.6h16.8m-12.6 4.3h34.7m-30.5 4.4h8.4m3.6 0h15.6m-36 4.1h12.9m-12.9 4.5h8.4m-4.2-21.6h17.3m3.7 0h8.2m-62-56.9h-11.7v-11.6h-10.9v11.6h-11.6v11h11.6v11.6h10.9v-11.6H632zm-30.3 5.5h7.7m10.9 0h7.7M614.9 283v7.7m0 11v7.7"/><path class="st7" d="M197.5 681.5v34.2"/><path class="st8" d="M191 690h2m-2 3.1h2m-2 11h2m-2 3.1h2"/><circle class="st2" cx="192" cy="698.6" r="2.1"/><path class="st0" d="M204.1 690.8v-2.7h2.8m0 22.8h-2.8v-2.7m30.7 0v2.7h-2.7m0-22.8h2.7v2.7"/><path class="st0" d="M187.4 681.5h54v34.2h-54zm60-339.7h12.5V364h-12.5z"/><path class="st0" d="M243.2 336h21v34.1h-21z"/><path class="st2" d="M253.7 366.2c-.6 0-1 .5-1 1 0 .6.5 1 1 1 .6 0 1-.5 1-1 0-.6-.4-1-1-1zm-4.7 0c-.6 0-1 .5-1 1 0 .6.5 1 1 1 .6 0 1-.5 1-1 0-.6-.4-1-1-1zm9.3 0c-.6 0-1 .5-1 1 0 .6.5 1 1 1 .6 0 1-.5 1-1 .1-.6-.4-1-1-1z"/><path class="st0" d="M155.3 632v-9.8c0-3.3 2.7-6.1 6.1-6.1h8.3c3.3 0 6.1 2.7 6.1 6.1v10.2"/><path class="st1" d="M173.8 617.7c-2.2 2.2-5.4 6-5.4 14.6"/><path class="st0" d="M156.6 618.4c2.4.8 5.3 1.4 8.9 1.4m5.6 32.1H160c-3.2 0-5.8-2.6-5.8-5.8v-12.7l2.1-2 4.2 1.9 5-1.9 5.6 1.9 3.8-1.9 2 2v12.7c0 3.2-2.6 5.8-5.8 5.8z"/><path class="st0" d="M158.3 639.4l4.4-.6 4.4.6m1.3 6.9l1.9-.3 1.9.3"/><circle class="st1" cx="187.7" cy="434.6" r="5.7"/><circle class="st1" cx="187.7" cy="457.9" r="5.7"/><circle class="st1" cx="199.3" cy="446.2" r="5.7"/><circle class="st1" cx="176.1" cy="446.2" r="5.7"/><path class="st2" d="M198.4 447.4l-.4 1c-.1.3-.4.4-.7.3-.3-.1-.4-.4-.3-.7l1.5-4.1c.1-.3.4-.5.8-.5s.6.2.8.5l1.5 4.1c.1.3-.1.6-.3.7-.3.1-.6 0-.7-.3l-.4-1h-1.8zm1.5-.9l-.5-1.8-.5 1.8h1zm-13.7 14c-.3 0-.4-.2-.4-.5v-4.3c0-.3.2-.5.4-.5h1.7c.9 0 1.6.6 1.6 1.5 0 .3-.2.8-.7 1 .7.2 1 .8 1 1.2 0 .9-.6 1.6-1.7 1.6h-1.9zm1.5-3.1c.3 0 .5-.2.5-.6 0-.3-.2-.6-.5-.6h-.9v1.1h.9zm-.8.8v1.3h1.1c.4 0 .6-.3.6-.7 0-.3-.2-.6-.6-.6h-1.1zm-.3-21.2c-.1.2-.5.3-.7.1-.3-.2-.3-.5-.2-.7l1.3-2-1.1-1.7c-.1-.2-.1-.6.2-.7.3-.2.6-.1.7.1l.9 1.4.9-1.4c.1-.2.5-.3.7-.1.2.1.3.5.2.7l-1.1 1.7 1.3 2c.2.2.1.6-.2.7-.2.1-.6.1-.7-.1l-1-1.7-1.2 1.7zm-10 9.7v1.9c0 .3-.3.5-.6.5s-.6-.2-.6-.5v-1.9l-1.5-2.1c-.1-.2-.1-.6.2-.7.2-.2.6-.1.7.1l1.2 1.8 1.2-1.8c.1-.2.5-.3.7-.1.2.2.3.5.2.7l-1.5 2.1z"/><path class="st0" d="M231.4 758.9h11.2v25.9h-11.2zm0 18.7h11.2m-11.2-18.7h11.2l-5.6-8.6z"/><path class="st2" d="M234.8 754.3h4.5l-2.3-4z"/><path class="st3" d="M235 763.2v10.2m4.1-10.2v10.2"/><path class="st0" d="M161.8 366.1h49.1v34.5h-49.1z"/><path class="st9" d="M183 379.7v7.3l7.7-3.6z"/><path class="st0" d="M167.6 396h38.6"/><circle class="st2" cx="170.8" cy="396" r="2.1"/><path class="st0" d="M135.612 532.743l17.182 17.183-17.182 17.182-17.183-17.182z"/><ellipse transform="rotate(-45 135.694 544.193)" class="st9" cx="135.7" cy="544.2" rx="1.8" ry="1.8"/><ellipse transform="rotate(-45 141.42 549.93)" class="st9" cx="141.4" cy="549.9" rx="1.8" ry="1.8"/><ellipse transform="rotate(-45 135.767 555.583)" class="st9" cx="135.8" cy="555.6" rx="1.8" ry="1.8"/><path class="st0" d="M130 538.4l4.4 4.5m2.6 2.6l3.1 3.1m-4.4-2.6l.1 7.7"/><path class="st4" d="M118.2 709H133v4.7h-14.8z"/><path class="st4" d="M125.6 679.2h3.5c0 11.2 6.9 17.8 6.9 17.8l-6.9 12.1h-7l-6.9-12.1s6.9-6.5 6.9-17.8h3.5z"/><path class="st5" d="M125.6 679.2v13"/><circle class="st5" cx="125.6" cy="695" r="2.7"/><path class="st0" d="M97.8 459.3h44.1v30.2H97.8zm-7.1 30.2h58.2v4.1H90.7z"/><path class="st0" d="M103.5 465.2h32.7v18.6h-32.7z"/><path class="st2" d="M123.1 476.1l-1.7-1.7.9-.9c.4-.4.3-.8-.3-1l-4.5-1.2c-.5-.1-.8.2-.7.7l1.2 4.5c.1.5.6.6.9.3l.9-.9 1.7 1.7c.2.2.5.3.7.3.3 0 .5-.1.7-.3.6-.4.6-1 .2-1.5z"/><path class="st0" d="M505.4 176.9h50.5v34.5h-50.5zm5.6 4.4h8.3m-8.3 8.6h16.7m-12.6 4.3h34.7m-30.5 4.3h8.4m3.7 0h15.5m-35.9 4.1h12.8m-12.8 4.6h8.3m-4.2-21.6h17.4m3.6 0h8.3m-281 62.4h-11.7v-11.6h-10.9V248h-11.6v10.9h11.6v11.7h10.9v-11.7h11.7zm-30.3 5.5h7.7m10.9 0h7.7m-13.1-13.2v7.7m0 10.9v7.7"/><path class="st7" d="M439.2 811.2v34.2"/><path class="st8" d="M432.8 819.8h1.9m-1.9 3h1.9m-1.9 11h1.9m-1.9 3.1h1.9"/><circle class="st2" cx="433.7" cy="828.3" r="2.1"/><path class="st0" d="M445.9 820.6v-2.8h2.7m0 22.9h-2.7v-2.8m30.7 0v2.8h-2.8m0-22.9h2.8v2.8"/><path class="st0" d="M429.2 811.2h54v34.2h-54zm-280.7-57.5H161v22.2h-12.5z"/><path class="st0" d="M144.2 748h21v34.1h-21z"/><path class="st2" d="M154.7 778.1c-.6 0-1 .5-1 1 0 .6.5 1 1 1 .6 0 1-.5 1-1s-.4-1-1-1zm-4.7 0c-.6 0-1 .5-1 1 0 .6.5 1 1 1 .6 0 1-.5 1-1 .1-.5-.4-1-1-1zm9.3 0c-.6 0-1 .5-1 1 0 .6.5 1 1 1 .6 0 1-.5 1-1 .1-.5-.4-1-1-1z"/><path class="st0" d="M384.9 161.4v-9.8c0-3.3 2.7-6.1 6.1-6.1h8.3c3.3 0 6.1 2.7 6.1 6.1v10.2"/><path class="st1" d="M403.5 147.1c-2.2 2.2-5.4 6-5.4 14.6"/><path class="st0" d="M386.2 147.8c2.4.8 5.3 1.4 8.9 1.4m5.6 32.1h-11.1c-3.2 0-5.8-2.6-5.8-5.8v-12.7l2.1-2 4.2 1.9 5-1.9 5.6 1.9 3.8-1.9 2 2v12.7c0 3.2-2.6 5.8-5.8 5.8z"/><path class="st0" d="M387.9 168.7l4.4-.6 4.4.6m1.3 7l1.9-.3 1.9.3"/><circle class="st1" cx="528.9" cy="255" r="5.7"/><circle class="st1" cx="528.9" cy="278.3" r="5.7"/><circle class="st1" cx="540.6" cy="266.6" r="5.7"/><circle class="st1" cx="517.3" cy="266.6" r="5.7"/><path class="st2" d="M539.7 267.8l-.4 1c-.1.3-.4.4-.7.3-.3-.1-.4-.4-.3-.7l1.5-4.1c.1-.3.4-.5.8-.5s.6.2.8.5l1.5 4.1c.1.3-.1.6-.3.7-.3.1-.6 0-.7-.3l-.4-1h-1.8zm1.4-.9l-.5-1.8-.5 1.8h1zm-13.7 14c-.3 0-.4-.2-.4-.5v-4.3c0-.3.2-.5.4-.5h1.7c.9 0 1.6.6 1.6 1.5 0 .3-.2.8-.7 1 .7.2 1 .8 1 1.2 0 .9-.6 1.6-1.7 1.6h-1.9zm1.5-3.2c.3 0 .5-.2.5-.6 0-.3-.2-.6-.5-.6h-.9v1.1h.9zm-.8.9v1.3h1.1c.4 0 .6-.3.6-.7 0-.3-.2-.6-.6-.6h-1.1zm-.2-21.2c-.1.2-.5.3-.7.1-.3-.2-.3-.5-.2-.7l1.3-2-1.1-1.7c-.1-.2-.1-.6.2-.7.3-.2.6-.1.7.1l.9 1.4.9-1.4c.1-.2.5-.3.7-.1.2.1.3.5.2.7l-1.1 1.7 1.3 2c.2.2.1.6-.2.7-.2.1-.6.1-.7-.1l-1-1.7-1.2 1.7zm-10.1 9.7v1.9c0 .3-.3.5-.6.5s-.6-.2-.6-.5v-1.9l-1.5-2.1c-.1-.2-.1-.6.2-.7.2-.2.6-.1.7.1l1.2 1.8 1.2-1.8c.1-.2.5-.3.7-.1.2.2.3.5.2.7l-1.5 2.1z"/><path class="st0" d="M367.3 829h11.2v25.9h-11.2zm0 18.7h11.1M367.3 829h11.1l-5.6-8.6z"/><path class="st2" d="M370.6 824.4h4.5l-2.3-4z"/><path class="st3" d="M370.8 833.3v10.1m4.1-10.1v10.1"/><path class="st0" d="M539.8 804.3h49.1v34.5h-49.1z"/><path class="st9" d="M561 817.9v7.4l7.7-3.7z"/><path class="st0" d="M545.5 834.3h38.7"/><circle class="st2" cx="548.8" cy="834.3" r="2.1"/><path class="st0" d="M624.184 759.34l17.182 17.18-17.182 17.184L607 776.52z"/><ellipse transform="rotate(-45 624.28 770.768)" class="st9" cx="624.3" cy="770.8" rx="1.8" ry="1.8"/><ellipse transform="rotate(-45 630.006 776.506)" class="st9" cx="630" cy="776.5" rx="1.8" ry="1.8"/><ellipse transform="rotate(-45 624.353 782.158)" class="st9" cx="624.4" cy="782.1" rx="1.8" ry="1.8"/><path class="st0" d="M618.5 765l4.5 4.5m2.6 2.6l3.1 3.1m-4.4-2.6v7.7"/><path class="st4" d="M279.8 834.1h14.8v4.7h-14.8zm7.4-29.9h3.5c0 11.2 6.9 17.8 6.9 17.8l-6.9 12.1h-7l-6.9-12.1s6.9-6.5 6.9-17.8h3.5z"/><path class="st5" d="M287.2 804.2v13.1"/><circle class="st5" cx="287.2" cy="820" r="2.7"/><path class="st0" d="M673.8 256h44.1v30.2h-44.1zm-7.1 30.2h58.2v4.1h-58.2z"/><path class="st0" d="M679.5 261.8h32.7v18.6h-32.7z"/><path class="st2" d="M699.1 272.8l-1.7-1.7.9-.9c.4-.4.3-.8-.3-1l-4.5-1.2c-.5-.1-.8.2-.7.7l1.2 4.5c.1.5.6.6.9.3l.9-.9 1.7 1.7c.2.2.5.3.7.3.3 0 .5-.1.7-.3.6-.4.6-1.1.2-1.5z"/><path class="st0" d="M293.5 865.8H344v34.5h-50.5zm5.6 4.3h8.4m-8.4 8.6h16.7m-12.5 4.3h34.6m-30.4 4.4h8.3m3.7 0h15.6m-36 4.1h12.8m-12.8 4.5h8.4m-4.2-21.6h17.3m3.6 0h8.3m-96.8-39.1h-11.6v-11.6h-11v11.6h-11.6v11h11.6v11.6h11v-11.6h11.6zm-30.3 5.5h7.7m11 0h7.7m-13.2-13.2v7.7m0 11v7.7"/><path class="st7" d="M173.3 293.9v34.2"/><path class="st8" d="M166.9 302.4h1.9m-1.9 3.1h1.9m-1.9 10.9h1.9m-1.9 3.1h1.9"/><circle class="st2" cx="167.8" cy="311" r="2.1"/><path class="st0" d="M180 303.2v-2.7h2.7m0 22.8H180v-2.7m30.6 0v2.7h-2.7m0-22.8h2.7v2.7"/><path class="st0" d="M163.2 293.9h54v34.2h-54zm425.5-78.8h12.5v22.2h-12.5z"/><path class="st0" d="M584.5 209.4h21v34.1h-21z"/><path class="st2" d="M595 239.5c-.6 0-1 .5-1 1 0 .6.5 1 1 1 .6 0 1-.5 1-1s-.5-1-1-1zm-4.7 0c-.6 0-1 .5-1 1 0 .6.5 1 1 1 .6 0 1-.5 1-1s-.5-1-1-1zm9.3 0c-.6 0-1 .5-1 1 0 .6.5 1 1 1 .6 0 1-.5 1-1s-.4-1-1-1z"/><path class="st0" d="M135.5 847.3v-9.8c0-3.3 2.7-6.1 6.1-6.1h8.3c3.3 0 6.1 2.7 6.1 6.1v10.2"/><path class="st1" d="M154 833c-2.2 2.2-5.4 6-5.4 14.6"/><path class="st0" d="M136.8 833.7c2.4.8 5.3 1.4 8.9 1.4m5.6 32h-11.1c-3.2 0-5.8-2.6-5.8-5.8v-12.7l2.1-2 4.2 1.9 5-1.9 5.6 1.9 3.8-1.9 2 2v12.7c0 3.2-2.6 5.8-5.8 5.8z"/><path class="st0" d="M138.4 854.6l4.4-.6 4.4.6m1.4 6.9l1.9-.2 1.9.2m57.8 29.7h11.2v25.9h-11.2zm0 18.7h11.2m-11.2-18.7h11.2l-5.6-8.6z"/><path class="st2" d="M213.5 886.6h4.5l-2.2-4z"/><path class="st3" d="M213.7 895.5v10.1m4.1-10.1v10.1"/><path class="st0" d="M642.5 194.6h49.1v34.5h-49.1z"/><path class="st9" d="M663.7 208.2v7.3l7.7-3.7z"/><path class="st0" d="M648.2 224.5h38.7"/><circle class="st2" cx="651.5" cy="224.5" r="2.1"/><path class="st0" d="M458.18 111.03l17.183 17.182-17.183 17.183-17.182-17.183z"/><ellipse transform="rotate(-45 458.305 122.456)" class="st9" cx="458.3" cy="122.4" rx="1.8" ry="1.8"/><ellipse transform="rotate(-45 464.03 128.193)" class="st9" cx="464" cy="128.2" rx="1.8" ry="1.8"/><ellipse transform="rotate(-45 458.378 133.845)" class="st9" cx="458.4" cy="133.8" rx="1.8" ry="1.8"/><path class="st0" d="M452.6 116.7l4.4 4.5m2.6 2.5l3.1 3.2m-4.4-2.6l.1 7.7"/><path class="st4" d="M504 869.2h14.8v4.7H504zm7.4-29.9h3.5c0 11.2 6.9 17.8 6.9 17.8l-6.9 12.1h-7l-6.9-12.1s6.9-6.5 6.9-17.8h3.5z"/><path class="st5" d="M511.4 839.3v13.1"/><circle class="st5" cx="511.4" cy="855.1" r="2.7"/><path class="st0" d="M433.1 483h44.1v30.2h-44.1zm-7.1 30.2h58.2v4.1H426z"/><path class="st0" d="M438.8 488.8h32.7v18.6h-32.7z"/><path class="st2" d="M458.4 499.8l-1.7-1.7.9-.9c.4-.4.3-.8-.3-1l-4.5-1.2c-.5-.1-.8.2-.7.7l1.2 4.5c.1.5.6.6.9.3l.9-.9 1.7 1.7c.2.2.5.3.7.3s.5-.1.7-.3c.6-.4.6-1.1.2-1.5z"/><path class="st0" d="M579.2 908.6h50.5v34.5h-50.5zm5.5 4.3h8.4m-8.4 8.6h16.8m-12.6 4.3h34.7m-30.5 4.3h8.4m3.6 0h15.6m-36 4.1h12.9m-12.9 4.6h8.4m-4.2-21.6h17.3m3.7 0h8.2m78-191.2h-11.6v-11.6h-11V726h-11.6v11h11.6v11.6h11V737h11.6zm-30.3 5.5h7.7m11 0h7.7M679 718.3v7.7m0 11v7.7"/><path class="st7" d="M46.2 516.4v34.2"/><path class="st8" d="M39.7 524.9h2m-2 3.1h2m-2 11h2m-2 3.1h2"/><circle class="st2" cx="40.7" cy="533.5" r="2.1"/><path class="st0" d="M52.8 525.7V523h2.7m0 22.8h-2.7v-2.7m30.7 0v2.7h-2.8m0-22.8h2.8v2.7"/><path class="st0" d="M36.1 516.4h54v34.2h-54zm435.5 392.7h12.5v22.2h-12.5z"/><path class="st0" d="M467.4 903.4h21v34.1h-21z"/><path class="st2" d="M477.9 933.5c-.6 0-1 .5-1 1 0 .6.5 1 1 1 .6 0 1-.5 1-1s-.5-1-1-1zm-4.7 0c-.6 0-1 .5-1 1 0 .6.5 1 1 1 .6 0 1-.5 1-1s-.5-1-1-1zm9.3 0c-.6 0-1 .5-1 1 0 .6.5 1 1 1 .6 0 1-.5 1-1s-.4-1-1-1z"/><path class="st0" d="M615.9 864.1v-9.8c0-3.3 2.7-6.1 6.1-6.1h8.3c3.3 0 6.1 2.7 6.1 6.1v10.2"/><path class="st1" d="M634.4 849.8c-2.2 2.2-5.4 6-5.4 14.6"/><path class="st0" d="M617.2 850.5c2.4.8 5.3 1.4 8.9 1.4m5.6 32.1h-11.1c-3.2 0-5.8-2.6-5.8-5.8v-12.7l2.1-2 4.2 1.9 5-1.9 5.6 1.9 3.8-1.9 2 2v12.7c0 3.2-2.6 5.8-5.8 5.8z"/><path class="st0" d="M618.8 871.4l4.4-.5 4.4.5m1.3 7l2-.3 1.9.3"/><circle class="st1" cx="733.6" cy="540" r="5.7"/><circle class="st1" cx="733.6" cy="563.3" r="5.7"/><circle class="st1" cx="745.3" cy="551.7" r="5.7"/><circle class="st1" cx="722" cy="551.7" r="5.7"/><path class="st2" d="M744.4 552.9l-.4 1c-.1.3-.4.4-.7.3-.3-.1-.4-.4-.3-.7l1.5-4.1c.1-.3.4-.5.8-.5s.6.2.8.5l1.5 4.1c.1.3-.1.6-.3.7-.3.1-.6 0-.7-.3l-.4-1h-1.8zm1.4-1l-.5-1.8-.5 1.8h1zm-13.7 14c-.3 0-.4-.2-.4-.5v-4.3c0-.3.2-.5.4-.5h1.7c.9 0 1.6.6 1.6 1.5 0 .3-.2.8-.7 1 .7.2 1 .8 1 1.2 0 .9-.6 1.6-1.7 1.6h-1.9zm1.6-3.1c.3 0 .5-.2.5-.6 0-.3-.2-.6-.5-.6h-.9v1.1h.9zm-.9.9v1.3h1.1c.4 0 .6-.3.6-.7 0-.3-.2-.6-.6-.6h-1.1zm-.2-21.2c-.1.2-.5.3-.7.1-.3-.2-.3-.5-.2-.7l1.3-2-1.1-1.7c-.1-.2-.1-.6.2-.7.3-.2.6-.1.7.1l.9 1.4.9-1.4c.1-.2.5-.3.7-.1.2.1.3.5.2.7l-1.1 1.7 1.3 2c.2.2.1.6-.2.7-.2.1-.6.1-.7-.1l-1-1.7-1.2 1.7zm-10.1 9.7v1.9c0 .3-.3.5-.6.5s-.6-.2-.6-.5v-1.9l-1.5-2.1c-.1-.2-.1-.6.2-.7.2-.2.6-.1.7.1l1.2 1.8 1.2-1.8c.1-.2.5-.3.7-.1.2.2.3.5.2.7l-1.5 2.1z"/><path class="st0" d="M115.6 365.8h11.2v25.9h-11.2zm0 18.7h11.2m-11.2-18.7h11.2l-5.6-8.7z"/><path class="st2" d="M118.9 361.1h4.5l-2.2-4z"/><path class="st3" d="M119.2 370v10.2m4-10.2v10.2"/><path class="st0" d="M305.4 107h49.1v34.5h-49.1z"/><path class="st9" d="M326.6 120.6v7.4l7.7-3.7z"/><path class="st0" d="M311.1 136.9h38.7"/><circle class="st2" cx="314.4" cy="136.9" r="2.1"/><path class="st0" d="M172.86 228.638l17.182 17.183-17.183 17.19-17.19-17.18z"/><ellipse transform="rotate(-45 172.98 240.028)" class="st9" cx="173" cy="240" rx="1.8" ry="1.8"/><ellipse transform="rotate(-45 178.707 245.765)" class="st9" cx="178.7" cy="245.8" rx="1.8" ry="1.8"/><ellipse transform="rotate(-45 173.055 251.417)" class="st9" cx="173.1" cy="251.4" rx="1.8" ry="1.8"/><path class="st0" d="M167.2 234.3l4.5 4.4m2.6 2.6l3.1 3.2m-4.4-2.6v7.7"/><path class="st4" d="M467.9 443.6h14.8v4.7h-14.8zm7.4-29.9h3.5c0 11.2 6.9 17.8 6.9 17.8l-6.9 12.1h-7l-6.9-12.1s6.9-6.5 6.9-17.8h3.5z"/><path class="st5" d="M475.3 413.7v13.1"/><circle class="st5" cx="475.3" cy="429.6" r="2.7"/><path class="st0" d="M360.4 917.7h44.1v30.2h-44.1z"/><path class="st0" d="M353.4 947.9h58.2v4.1h-58.2zm12.8-24.3h32.7v18.6h-32.7z"/><path class="st2" d="M385.7 934.6l-1.7-1.7.9-.9c.4-.4.3-.8-.3-1l-4.5-1.2c-.5-.1-.8.2-.7.7l1.2 4.5c.1.5.6.6.9.3l.9-.9 1.7 1.7c.2.2.5.3.7.3.3 0 .5-.1.7-.3.6-.5.6-1.1.2-1.5z"/><path class="st0" d="M104.6 908.2h50.5v34.5h-50.5zm5.6 4.3h8.3m-8.3 8.6h16.7m-12.5 4.3H149m-30.5 4.4h8.4m3.7 0h15.5m-35.9 4.1H123m-12.8 4.5h8.3m-4.1-21.6h17.3m3.6 0h8.3m-20-615.4h-11.7v-11.6H101v11.6H89.4v10.9H101V324h10.9v-11.7h11.7zm-30.3 5.5h7.7m10.9 0h7.7m-13.1-13.2v7.7m0 10.9v7.7"/><path class="st7" d="M252.8 924.2v34.2"/><path class="st8" d="M246.3 932.8h2m-2 3h2m-2 11h2m-2 3.1h2"/><circle class="st2" cx="247.3" cy="941.3" r="2.1"/><path class="st0" d="M259.4 933.6v-2.8h2.8m0 22.9h-2.8v-2.8m30.7 0v2.8h-2.7m0-22.9h2.7v2.8"/><path class="st0" d="M242.7 924.2h54v34.2h-54zm205-569.3h12.5v22.2h-12.5z"/><path class="st0" d="M443.5 349.2h21v34.1h-21z"/><path class="st2" d="M453.9 379.3c-.6 0-1 .5-1 1 0 .6.5 1 1 1 .6 0 1-.5 1-1 .1-.6-.4-1-1-1zm-4.6 0c-.6 0-1 .5-1 1 0 .6.5 1 1 1 .6 0 1-.5 1-1 0-.6-.5-1-1-1zm9.3 0c-.6 0-1 .5-1 1 0 .6.5 1 1 1 .6 0 1-.5 1-1 0-.6-.4-1-1-1z"/><path class="st0" d="M311.2 987.5v-9.8c0-3.3 2.7-6.1 6.1-6.1h8.3c3.3 0 6.1 2.7 6.1 6.1v10.2"/><path class="st1" d="M329.7 973.2c-2.2 2.2-5.4 6-5.4 14.6"/><path class="st0" d="M312.5 973.9c2.4.8 5.3 1.4 8.9 1.4m5.6 32h-11.1c-3.2 0-5.8-2.6-5.8-5.8v-12.7l2.1-2 4.2 1.9 5-1.9 5.6 1.9 3.8-1.9 2 2v12.7c0 3.2-2.6 5.8-5.8 5.8z"/><path class="st0" d="M314.1 994.8l4.4-.6 4.4.6m1.4 6.9l1.9-.2 1.9.2"/><circle class="st1" cx="191.1" cy="951.1" r="5.7"/><circle class="st1" cx="191.1" cy="974.3" r="5.7"/><circle class="st1" cx="202.7" cy="962.7" r="5.7"/><circle class="st1" cx="179.4" cy="962.7" r="5.7"/><path class="st2" d="M201.8 963.9l-.4 1c-.1.3-.4.4-.7.3-.3-.1-.4-.4-.3-.7l1.5-4.1c.1-.3.4-.5.8-.5s.6.2.8.5l1.5 4.1c.1.3-.1.6-.3.7-.3.1-.6 0-.7-.3l-.4-1h-1.8zm1.4-1l-.5-1.8-.5 1.8h1zM189.5 977c-.3 0-.4-.2-.4-.5v-4.3c0-.3.2-.5.4-.5h1.7c.9 0 1.6.6 1.6 1.5 0 .3-.2.8-.7 1 .7.2 1 .8 1 1.2 0 .9-.6 1.6-1.7 1.6h-1.9zm1.6-3.2c.3 0 .5-.2.5-.6 0-.3-.2-.6-.5-.6h-.9v1.1h.9zm-.9.9v1.3h1.1c.4 0 .6-.3.6-.7 0-.3-.2-.6-.6-.6h-1.1zm-.2-21.2c-.1.2-.5.3-.7.1-.3-.2-.3-.5-.2-.7l1.3-2-1.1-1.7c-.1-.2-.1-.6.2-.7.3-.2.6-.1.7.1l.9 1.4.9-1.4c.1-.2.5-.3.7-.1.2.1.3.5.2.7l-1.1 1.7 1.3 2c.2.2.1.6-.2.7-.2.1-.6.1-.7-.1l-1-1.7-1.2 1.7zm-10 9.7v1.9c0 .3-.3.5-.6.5s-.6-.2-.6-.5v-1.9l-1.5-2.1c-.1-.2-.1-.6.2-.7.2-.2.6-.1.7.1l1.2 1.8 1.2-1.8c.1-.2.5-.3.7-.1.2.2.3.5.2.7l-1.5 2.1z"/><path class="st0" d="M96.6 802.3h11.2v25.9H96.6zm0 18.7h11.2m-11.2-18.7h11.2l-5.6-8.7z"/><path class="st2" d="M99.9 797.6h4.5l-2.2-4z"/><path class="st3" d="M100.2 806.5v10.2m4-10.2v10.2"/><path class="st0" d="M41.7 731.4h49.1v34.5H41.7z"/><path class="st9" d="M63 745v7.3l7.6-3.6z"/><path class="st0" d="M47.5 761.3h38.6"/><circle class="st2" cx="50.8" cy="761.3" r="2.1"/><path class="st0" d="M79.06 844.27l17.18 17.182-17.18 17.182-17.184-17.182z"/><ellipse transform="rotate(-45 79.13 855.64)" class="st9" cx="79.1" cy="855.6" rx="1.8" ry="1.8"/><ellipse transform="rotate(-45 84.855 861.378)" class="st9" cx="84.9" cy="861.4" rx="1.8" ry="1.8"/><ellipse transform="rotate(-45 79.203 867.03)" class="st9" cx="79.2" cy="867" rx="1.8" ry="1.8"/><path class="st0" d="M73.4 849.9l4.4 4.4m2.6 2.6l3.2 3.2m-4.4-2.6v7.7"/><path class="st4" d="M377.3 1019.3h14.8v4.7h-14.8z"/><path class="st4" d="M384.7 989.5h3.5c0 11.2 6.9 17.8 6.9 17.8l-6.9 12.1h-7l-6.9-12.1s6.9-6.5 6.9-17.8h3.5z"/><path class="st5" d="M384.7 989.5v13.1"/><circle class="st5" cx="384.7" cy="1005.3" r="2.7"/><path class="st0" d="M671.5 814.5h44.1v30.2h-44.1zm-7.1 30.2h58.2v4.1h-58.2z"/><path class="st0" d="M677.2 820.3h32.7v18.6h-32.7z"/><path class="st2" d="M696.8 831.3l-1.7-1.7.9-.9c.4-.4.3-.8-.3-1l-4.5-1.2c-.5-.1-.8.2-.7.7l1.2 4.5c.1.5.6.6.9.3l.9-.9 1.7 1.7c.2.2.5.3.7.3.3 0 .5-.1.7-.3.6-.4.6-1.1.2-1.5z"/><path class="st0" d="M204.9 159.7h50.5v34.5h-50.5zm5.6 4.3h8.3m-8.3 8.6h16.7m-12.5 4.3h34.6m-30.5 4.4h8.4m3.7 0h15.5m-35.9 4.1h12.8m-12.8 4.5h8.3m-4.1-21.6H232m3.6 0h8.3M119.4 606.2h-11.6v-11.6H96.9v11.6H85.2v11h11.7v11.6h10.9v-11.6h11.6zm-30.2 5.5h7.7m10.9 0h7.7m-13.2-13.2v7.7m0 11v7.7"/><path class="st7" d="M658.8 947.8V982"/><path class="st8" d="M652.4 956.4h1.9m-1.9 3h1.9m-1.9 11h1.9m-1.9 3.1h1.9"/><circle class="st2" cx="653.3" cy="964.9" r="2.1"/><path class="st0" d="M665.5 957.2v-2.7h2.7m0 22.8h-2.7v-2.8m30.7 0v2.8h-2.8m0-22.8h2.8v2.7"/><path class="st0" d="M648.7 947.8h54V982h-54zm35.6-48.4h12.5v22.2h-12.5z"/><path class="st0" d="M680 893.7h21v34.1h-21z"/><path class="st2" d="M690.5 923.8c-.6 0-1 .5-1 1 0 .6.5 1 1 1 .6 0 1-.5 1-1s-.4-1-1-1zm-4.7 0c-.6 0-1 .5-1 1 0 .6.5 1 1 1 .6 0 1-.5 1-1 .1-.5-.4-1-1-1zm9.3 0c-.6 0-1 .5-1 1 0 .6.5 1 1 1 .6 0 1-.5 1-1 .1-.5-.4-1-1-1z"/><path class="st0" d="M430.9 992.4v-9.8c0-3.3 2.7-6.1 6.1-6.1h8.3c3.3 0 6.1 2.7 6.1 6.1v10.2"/><path class="st1" d="M449.4 978.1c-2.2 2.2-5.4 6-5.4 14.6"/><path class="st0" d="M432.2 978.8c2.4.8 5.3 1.4 8.9 1.4m5.6 32h-11.1c-3.2 0-5.8-2.6-5.8-5.8v-12.7l2.1-2 4.2 1.9 5-1.9 5.6 1.9 3.8-1.9 2 2v12.7c0 3.3-2.6 5.8-5.8 5.8z"/><path class="st0" d="M433.9 999.7l4.3-.6 4.4.6m1.4 6.9l1.9-.2 1.9.2"/><circle class="st1" cx="103.5" cy="212.9" r="5.7"/><circle class="st1" cx="103.5" cy="236.1" r="5.7"/><circle class="st1" cx="115.1" cy="224.5" r="5.7"/><circle class="st1" cx="91.8" cy="224.5" r="5.7"/><path class="st2" d="M114.2 225.7l-.4 1c-.1.3-.4.4-.7.3-.3-.1-.4-.4-.3-.7l1.5-4.1c.1-.3.4-.5.8-.5s.6.2.8.5l1.5 4.1c.1.3-.1.6-.3.7-.3.1-.6 0-.7-.3l-.4-1h-1.8zm1.4-1l-.5-1.8-.5 1.8h1zm-13.7 14.1c-.3 0-.4-.2-.4-.5V234c0-.3.2-.5.4-.5h1.7c.9 0 1.6.6 1.6 1.5 0 .3-.2.8-.7 1 .7.2 1 .8 1 1.2 0 .9-.6 1.6-1.7 1.6h-1.9zm1.6-3.2c.3 0 .5-.2.5-.6 0-.3-.2-.6-.5-.6h-.9v1.1h.9zm-.9.9v1.3h1.1c.4 0 .6-.3.6-.7 0-.3-.2-.6-.6-.6h-1.1zm-.2-21.2c-.1.2-.5.3-.7.1-.3-.2-.3-.5-.2-.7l1.3-2-1.1-1.7c-.1-.2-.1-.6.2-.7.3-.2.6-.1.7.1l.9 1.4.9-1.4c.1-.2.5-.3.7-.1.2.1.3.5.2.7l-1.1 1.7 1.3 2c.2.2.1.6-.2.7-.2.1-.6.1-.7-.1l-1-1.7-1.2 1.7zm-10 9.7v1.9c0 .3-.3.5-.6.5s-.6-.2-.6-.5V225l-1.5-2.1c-.1-.2-.1-.6.2-.7.2-.2.6-.1.7.1l1.2 1.8 1.2-1.8c.1-.2.5-.3.7-.1.2.2.3.5.2.7l-1.5 2.1z"/><path class="st0" d="M718.1 665.9h11.2v25.9h-11.2zm0 18.7h11.2m-11.2-18.7h11.2l-5.6-8.6z"/><path class="st2" d="M721.4 661.3h4.6l-2.3-4z"/><path class="st3" d="M721.7 670.2v10.2m4-10.2v10.2"/><path class="st0" d="M500.1 948.2h49.1v34.5h-49.1z"/><path class="st9" d="M521.3 961.8v7.4l7.7-3.7z"/><path class="st0" d="M505.9 978.1h38.6"/><circle class="st2" cx="509.1" cy="978.1" r="2.1"/><path class="st0" d="M758.04 597.052l17.184 17.182-17.183 17.183-17.18-17.183z"/><ellipse transform="rotate(-45 758.148 608.426)" class="st9" cx="758.2" cy="608.4" rx="1.8" ry="1.8"/><ellipse transform="rotate(-45 763.873 614.164)" class="st9" cx="763.9" cy="614.2" rx="1.8" ry="1.8"/><ellipse transform="rotate(-45 758.22 619.816)" class="st9" cx="758.2" cy="619.8" rx="1.8" ry="1.8"/><path class="st0" d="M752.4 602.7l4.5 4.4m2.6 2.6l3.1 3.1m-4.4-2.5v7.7"/><path class="st4" d="M762.3 474h14.8v4.7h-14.8z"/><path class="st4" d="M769.7 444.2h3.5c0 11.2 6.9 17.8 6.9 17.8l-6.9 12.1h-7l-6.9-12.1s6.9-6.5 6.9-17.8h3.5z"/><path class="st5" d="M769.7 444.2v13.1"/><circle class="st5" cx="769.7" cy="460" r="2.7"/><path class="st0" d="M523.5 108.2h44.1v30.2h-44.1zm-7 30.2h58.2v4.1h-58.2z"/><path class="st0" d="M529.3 114H562v18.6h-32.7z"/><path class="st2" d="M548.8 125l-1.7-1.7.9-.9c.4-.4.3-.8-.3-1l-4.5-1.2c-.5-.1-.8.2-.7.7l1.2 4.5c.1.5.6.6.9.3l.9-.9 1.7 1.7c.2.2.5.3.7.3s.5-.1.7-.3c.6-.5.6-1.1.2-1.5z"/><path class="st0" d="M21.5 650.3H72v34.5H21.5zm5.6 4.3h8.4m-8.4 8.7h16.7m-12.5 4.3h34.6m-30.4 4.3h8.3m3.7 0h15.6m-36 4.1h12.8m-12.8 4.5h8.4m-4.2-21.6h17.3m3.6 0h8.3m219.4-551.3h-11.6V96h-11v11.6h-11.6v11h11.6v11.6h11v-11.6h11.6zm-30.3 5.5h7.7m11 0h7.7m-13.2-13.2v7.7m0 11v7.7"/><path class="st7" d="M387.3 62.5v34.2"/><path class="st8" d="M380.8 71.1h2m-2 3h2m-2 11h2m-2 3.1h2"/><circle class="st2" cx="381.8" cy="79.6" r="2.1"/><path class="st0" d="M393.9 71.9v-2.7h2.8m0 22.8h-2.8v-2.8m30.7 0V92h-2.7m0-22.8h2.7v2.7"/><path class="st0" d="M377.2 62.5h54v34.2h-54zm-82.8-11.3h12.5v22.2h-12.5z"/><path class="st0" d="M290.2 45.5h21v34.1h-21z"/><path class="st2" d="M300.7 75.6c-.6 0-1 .5-1 1 0 .6.5 1 1 1 .6 0 1-.5 1-1s-.4-1-1-1zm-4.7 0c-.6 0-1 .5-1 1 0 .6.5 1 1 1 .6 0 1-.5 1-1s-.4-1-1-1zm9.3 0c-.6 0-1 .5-1 1 0 .6.5 1 1 1 .6 0 1-.5 1-1 .1-.5-.4-1-1-1z"/><path class="st0" d="M165.6 111.1v-9.8c0-3.3 2.7-6.1 6.1-6.1h8.3c3.3 0 6.1 2.7 6.1 6.1v10.2"/><path class="st1" d="M184.1 96.8c-2.2 2.2-5.4 6-5.4 14.6"/><path class="st0" d="M166.9 97.5c2.4.8 5.3 1.4 8.9 1.4m5.5 32.1h-11.1c-3.2 0-5.8-2.6-5.8-5.8v-12.7l2.1-2 4.2 1.9 5-1.9 5.6 1.9 3.8-1.9 2 2v12.7c0 3.2-2.6 5.8-5.8 5.8z"/><path class="st0" d="M168.5 118.5l4.4-.6 4.4.6m1.3 6.9l1.9-.3 1.9.3"/><circle class="st1" cx="746" cy="954.2" r="5.7"/><circle class="st1" cx="746" cy="977.5" r="5.7"/><circle class="st1" cx="757.7" cy="965.8" r="5.7"/><circle class="st1" cx="734.4" cy="965.8" r="5.7"/><path class="st2" d="M756.8 967l-.4 1c-.1.3-.4.4-.7.3-.3-.1-.4-.4-.3-.7l1.5-4.1c.1-.3.4-.5.8-.5s.6.2.8.5l1.5 4.1c.1.3-.1.6-.3.7-.3.1-.6 0-.7-.3l-.4-1h-1.8zm1.4-.9l-.5-1.8-.5 1.8h1zm-13.7 14c-.3 0-.4-.2-.4-.5v-4.3c0-.3.2-.5.4-.5h1.7c.9 0 1.6.6 1.6 1.5 0 .3-.2.8-.7 1 .7.2 1 .8 1 1.2 0 .9-.6 1.6-1.7 1.6h-1.9zm1.6-3.1c.3 0 .5-.2.5-.6 0-.3-.2-.6-.5-.6h-.9v1.1h.9zm-.9.8v1.3h1.1c.4 0 .6-.3.6-.7 0-.3-.2-.6-.6-.6h-1.1zm-.2-21.2c-.1.2-.5.3-.7.1-.3-.2-.3-.5-.2-.7l1.3-2-1.1-1.7c-.1-.2-.1-.6.2-.7.3-.2.6-.1.7.1l.9 1.4.9-1.4c.1-.2.5-.3.7-.1.2.1.3.5.2.7l-1.1 1.7 1.3 2c.2.2.1.6-.2.7-.2.1-.6.1-.7-.1l-1-1.7-1.2 1.7zm-10.1 9.7v1.9c0 .3-.3.5-.6.5s-.6-.2-.6-.5v-1.9l-1.5-2.1c-.1-.2-.1-.6.2-.7.2-.2.6-.1.7.1l1.2 1.8 1.2-1.8c.1-.2.5-.3.7-.1.2.2.3.5.2.7l-1.5 2.1z"/><path class="st0" d="M29.9 581.7h11.2v25.9H29.9zm0 18.7h11.2m-11.2-18.7h11.2l-5.6-8.6z"/><path class="st2" d="M33.2 577.1h4.5l-2.2-4z"/><path class="st3" d="M33.5 586v10.2m4-10.2v10.2"/><path class="st0" d="M98.3 154.3h49.1v34.5H98.3z"/><path class="st9" d="M119.5 167.9v7.3l7.7-3.7z"/><path class="st0" d="M104 184.2h38.7"/><circle class="st2" cx="107.3" cy="184.2" r="2.1"/><path class="st0" d="M80.855 399.53l17.182 17.182-17.182 17.183-17.183-17.183z"/><ellipse transform="rotate(-45 80.985 410.916)" class="st9" cx="81" cy="410.9" rx="1.8" ry="1.8"/><ellipse transform="rotate(-45 86.71 416.653)" class="st9" cx="86.7" cy="416.7" rx="1.8" ry="1.8"/><ellipse transform="rotate(-45 81.06 422.305)" class="st9" cx="81.1" cy="422.3" rx="1.8" ry="1.8"/><path class="st0" d="M75.2 405.2l4.5 4.4m2.6 2.6l3.1 3.1m-4.4-2.6l.1 7.8"/><path class="st4" d="M43.2 273.3H58v4.7H43.2z"/><path class="st4" d="M50.6 243.5h3.5c0 11.2 6.9 17.8 6.9 17.8l-6.9 12.1h-7l-6.9-12.1s6.9-6.5 6.9-17.8h3.5z"/><path class="st5" d="M50.6 243.5v13"/><circle class="st5" cx="50.6" cy="259.3" r="2.7"/><path class="st0" d="M197.2 28h44.1v30.2h-44.1zm-7.1 30.2h58.2v4.1h-58.2z"/><path class="st0" d="M202.9 33.8h32.7v18.6h-32.7z"/><path class="st2" d="M222.4 44.8l-1.7-1.7.9-.9c.4-.4.3-.8-.3-1l-4.5-1.2c-.5-.1-.8.2-.7.7l1.2 4.5c.1.5.6.6.9.3l.9-.9 1.7 1.7c.2.2.5.3.7.3s.5-.1.7-.3c.6-.4.6-1.1.2-1.5z"/><path class="st0" d="M294.3 1040.2h50.5v34.5h-50.5zm5.6 4.3h8.3m-8.3 8.7h16.7m-12.6 4.3h34.7m-30.5 4.3h8.4m3.7 0h15.5m-35.9 4.1h12.8m-12.8 4.5h8.3m-4.2-21.6h17.4m3.6 0h8.2M506.9 65h-11.6V53.3h-11V65h-11.6v10.9h11.6v11.6h11V75.9h11.6zm-30.3 5.5h7.7m11 0h7.7m-13.2-13.2V65m0 10.9v7.7"/><path class="st7" d="M613.1 137.3v34.2"/><path class="st8" d="M606.6 145.8h2m-2 3.1h2m-2 11h2m-2 3.1h2"/><circle class="st2" cx="607.6" cy="154.4" r="2.1"/><path class="st0" d="M619.8 146.7v-2.8h2.7m0 22.8h-2.7V164m30.6 0v2.7h-2.7m0-22.8h2.7v2.8"/><path class="st0" d="M603 137.3h54v34.2h-54zm136.8 206.1h12.5v22.2h-12.5z"/><path class="st0" d="M735.6 337.7h21v34.1h-21z"/><path class="st2" d="M746 367.8c-.6 0-1 .5-1 1 0 .6.5 1 1 1 .6 0 1-.5 1-1 .1-.5-.4-1-1-1zm-4.6 0c-.6 0-1 .5-1 1 0 .6.5 1 1 1 .6 0 1-.5 1-1s-.5-1-1-1zm9.3 0c-.6 0-1 .5-1 1 0 .6.5 1 1 1 .6 0 1-.5 1-1s-.5-1-1-1z"/><path class="st0" d="M731.7 209.3v-9.8c0-3.3 2.7-6.1 6.1-6.1h8.3c3.3 0 6.1 2.7 6.1 6.1v10.2"/><path class="st1" d="M750.2 195c-2.2 2.2-5.4 6-5.4 14.6"/><path class="st0" d="M733 195.7c2.4.8 5.3 1.4 8.9 1.4m5.6 32.1h-11.1c-3.2 0-5.8-2.6-5.8-5.8v-12.7l2.1-2 4.2 1.9 5-1.9 5.6 1.9 3.8-1.9 2 2v12.7c0 3.2-2.6 5.8-5.8 5.8z"/><path class="st0" d="M734.7 216.7l4.3-.6 4.4.6m1.4 6.9l1.9-.3 1.9.3"/><circle class="st1" cx="766.5" cy="290.4" r="5.7"/><circle class="st1" cx="766.5" cy="313.6" r="5.7"/><circle class="st1" cx="778.1" cy="302" r="5.7"/><circle class="st1" cx="754.9" cy="302" r="5.7"/><path class="st2" d="M777.2 303.2l-.4 1c-.1.3-.4.4-.7.3-.3-.1-.4-.4-.3-.7l1.5-4.1c.1-.3.4-.5.8-.5s.6.2.8.5l1.5 4.1c.1.3-.1.6-.3.7-.3.1-.6 0-.7-.3l-.4-1h-1.8zm1.5-1l-.5-1.8-.5 1.8h1zM765 316.3c-.3 0-.4-.2-.4-.5v-4.3c0-.3.2-.5.4-.5h1.7c.9 0 1.6.6 1.6 1.5 0 .3-.2.8-.7 1 .7.2 1 .8 1 1.2 0 .9-.6 1.6-1.7 1.6H765zm1.5-3.2c.3 0 .5-.2.5-.6 0-.3-.2-.6-.5-.6h-.9v1.1h.9zm-.8.9v1.3h1.1c.4 0 .6-.3.6-.7 0-.3-.2-.6-.6-.6h-1.1zm-.3-21.2c-.1.2-.5.3-.7.1-.3-.2-.3-.5-.2-.7l1.3-2-1.1-1.7c-.1-.2-.1-.6.2-.7.3-.2.6-.1.7.1l.9 1.4.9-1.4c.1-.2.5-.3.7-.1.2.1.3.5.2.7l-1.1 1.7 1.3 2c.2.2.1.6-.2.7-.2.1-.6.1-.7-.1l-1-1.7-1.2 1.7zm-10 9.7v1.9c0 .3-.3.5-.6.5s-.6-.2-.6-.5v-1.9l-1.5-2.1c-.1-.2-.1-.6.2-.7.2-.2.6-.1.7.1l1.2 1.8 1.2-1.8c.1-.2.5-.3.7-.1.2.2.3.5.2.7l-1.5 2.1z"/><path class="st0" d="M712.4 422.3h11.2v25.9h-11.2zm0 18.7h11.2m-11.2-18.7h11.2l-5.6-8.6z"/><path class="st2" d="M715.8 417.7h4.5l-2.3-4z"/><path class="st3" d="M716 426.6v10.2m4.1-10.2v10.2"/><path class="st0" d="M78.4 980.4h49.1v34.5H78.4z"/><path class="st9" d="M99.6 994v7.3l7.7-3.7z"/><path class="st0" d="M84.1 1010.3h38.6"/><circle class="st2" cx="87.4" cy="1010.3" r="2.1"/><path class="st0" d="M614.367 78.32l17.183 17.183-17.183 17.183-17.182-17.183z"/><ellipse transform="rotate(-45 614.51 89.74)" class="st9" cx="614.5" cy="89.7" rx="1.8" ry="1.8"/><ellipse transform="rotate(-45 620.235 95.477)" class="st9" cx="620.2" cy="95.5" rx="1.8" ry="1.8"/><ellipse transform="rotate(-45 614.583 101.13)" class="st9" cx="614.6" cy="101.1" rx="1.8" ry="1.8"/><path class="st0" d="M608.8 84l4.4 4.4m2.6 2.6l3.1 3.2m-4.4-2.6l.1 7.7"/><path class="st4" d="M546.5 71h14.8v4.7h-14.8zm7.4-29.9h3.5c0 11.2 6.9 17.8 6.9 17.8L557.5 71h-7l-6.9-12.1s6.9-6.5 6.9-17.8h3.4z"/><path class="st5" d="M553.9 41.1v13.1"/><circle class="st5" cx="553.9" cy="57" r="2.7"/><path class="st0" d="M210.6 1005.2h44.1v30.2h-44.1zm-7 30.2h58.2v4.1h-58.2z"/><path class="st0" d="M216.3 1011H249v18.6h-32.7z"/><path class="st2" d="M235.9 1022l-1.7-1.7.9-.9c.4-.4.3-.8-.3-1l-4.5-1.2c-.5-.1-.8.2-.7.7l1.2 4.5c.1.5.6.6.9.3l.9-.9 1.7 1.7c.2.2.5.3.7.3.3 0 .5-.1.7-.3.6-.5.6-1.1.2-1.5z"/><path class="st0" d="M725.2 1094.8h50.5v34.5h-50.5zm5.5 4.3h8.4m-8.4 8.7h16.8m-12.6 4.3h34.7m-30.5 4.3h8.4m3.7 0h15.5m-36 4.1h12.9m-12.9 4.5h8.4m-4.2-21.5h17.3m3.7 0h8.2m-49.3-971.6h-11.6v-11.6h-11v11.6h-11.6v11h11.6v11.6h11v-11.6h11.6zm-30.3 5.5h7.7m11 0h7.7m-13.2-13.2v7.7m0 11v7.7"/><path class="st7" d="M736 84.7v34.2"/><path class="st8" d="M729.5 93.3h2m-2 3h2m-2 11h2m-2 3.1h2"/><circle class="st2" cx="730.5" cy="101.8" r="2.1"/><path class="st0" d="M742.6 94.1v-2.8h2.8m0 22.9h-2.8v-2.8m30.7 0v2.8h-2.7m0-22.9h2.7v2.8"/><path class="st0" d="M725.9 84.7h54v34.2h-54zm-63-16.4h12.5v22.2h-12.5z"/><path class="st0" d="M658.7 62.6h21v34.1h-21z"/><path class="st2" d="M669.2 92.7c-.6 0-1 .5-1 1 0 .6.5 1 1 1 .6 0 1-.5 1-1s-.5-1-1-1zm-4.7 0c-.6 0-1 .5-1 1 0 .6.5 1 1 1 .6 0 1-.5 1-1s-.4-1-1-1zm9.3 0c-.6 0-1 .5-1 1 0 .6.5 1 1 1 .6 0 1-.5 1-1s-.4-1-1-1z"/><path class="st0" d="M755.3 721.5v-9.8c0-3.3 2.7-6.1 6.1-6.1h8.3c3.3 0 6.1 2.7 6.1 6.1v10.2"/><path class="st1" d="M773.8 707.2c-2.2 2.2-5.4 6-5.4 14.6"/><path class="st0" d="M756.6 707.9c2.4.8 5.3 1.4 8.9 1.4m5.6 32H760c-3.2 0-5.8-2.6-5.8-5.8v-12.7l2.1-2 4.2 1.9 5-1.9 5.6 1.9 3.8-1.9 2 2v12.7c-.1 3.2-2.7 5.8-5.8 5.8z"/><path class="st0" d="M758.2 728.8l4.4-.6 4.4.6m1.3 6.9l1.9-.2 2 .2"/><circle class="st1" cx="501.7" cy="1011" r="5.7"/><circle class="st1" cx="501.7" cy="1034.3" r="5.7"/><circle class="st1" cx="513.3" cy="1022.6" r="5.7"/><circle class="st1" cx="490" cy="1022.6" r="5.7"/><path class="st2" d="M512.4 1023.8l-.4 1c-.1.3-.4.4-.7.3-.3-.1-.4-.4-.3-.7l1.5-4.1c.1-.3.4-.5.8-.5s.6.2.8.5l1.5 4.1c.1.3-.1.6-.3.7-.3.1-.6 0-.7-.3l-.4-1h-1.8zm1.4-.9l-.5-1.8-.5 1.8h1zm-13.6 14c-.3 0-.4-.2-.4-.5v-4.3c0-.3.2-.5.4-.5h1.7c.9 0 1.6.6 1.6 1.5 0 .3-.2.8-.7 1 .7.2 1 .8 1 1.2 0 .9-.6 1.6-1.7 1.6h-1.9zm1.5-3.2c.3 0 .5-.2.5-.6 0-.3-.2-.6-.5-.6h-.9v1.1h.9zm-.9.9v1.3h1.1c.4 0 .6-.3.6-.7 0-.3-.2-.6-.6-.6h-1.1zm-.2-21.2c-.1.2-.5.3-.7.1-.3-.2-.3-.5-.2-.7l1.3-2-1.1-1.7c-.1-.2-.1-.6.2-.7.3-.2.6-.1.7.1l.9 1.4.9-1.4c.1-.2.5-.3.7-.1.2.1.3.5.2.7l-1.1 1.7 1.3 2c.2.2.1.6-.2.7-.2.1-.6.1-.7-.1l-1-1.7-1.2 1.7zm-10 9.7v1.9c0 .3-.3.5-.6.5s-.6-.2-.6-.5v-1.9l-1.5-2.1c-.1-.2-.1-.6.2-.7.2-.2.6-.1.7.1l1.2 1.8 1.2-1.8c.1-.2.5-.3.7-.1.2.2.3.5.2.7l-1.5 2.1z"/><path class="st0" d="M752.4 885.9h11.2v25.9h-11.2zm0 18.7h11.2m-11.2-18.7h11.2l-5.6-8.7z"/><path class="st2" d="M755.7 881.2h4.6l-2.3-4z"/><path class="st3" d="M756 890.1v10.2m4-10.2v10.2"/><path class="st0" d="M409.092 1051.824l17.183 17.182-17.183 17.183L391.91 1069z"/><ellipse transform="rotate(-45 409.196 1063.266)" class="st9" cx="409.2" cy="1063.3" rx="1.8" ry="1.8"/><ellipse transform="rotate(-45 414.92 1069.004)" class="st9" cx="414.9" cy="1069" rx="1.8" ry="1.8"/><ellipse transform="rotate(-45 409.27 1074.656)" class="st9" cx="409.3" cy="1074.6" rx="1.8" ry="1.8"/><path class="st0" d="M403.5 1057.5l4.4 4.5m2.6 2.6l3.1 3.1m-4.4-2.6l.1 7.7"/><path class="st4" d="M144.7 1059.3h14.8v4.7h-14.8zm7.4-29.9h3.5c0 11.2 6.9 17.8 6.9 17.8l-6.9 12.1h-7l-6.9-12.1s6.9-6.5 6.9-17.8h3.5z"/><path class="st5" d="M152.1 1029.4v13.1"/><circle class="st5" cx="152.1" cy="1045.2" r="2.7"/><path class="st0" d="M27.2 328.6h44.1v30.2H27.2zm-7 30.2h58.2v4.1H20.2z"/><path class="st0" d="M33 334.4h32.7V353H33z"/><path class="st2" d="M52.5 345.4l-1.7-1.7.9-.9c.4-.4.3-.8-.3-1l-4.5-1.2c-.5-.1-.8.2-.7.7l1.2 4.5c.1.5.6.6.9.3l.9-.9 1.7 1.7c.2.2.5.3.7.3s.5-.1.7-.3c.6-.5.6-1.1.2-1.5z"/><path class="st0" d="M596.9 14.9h50.5v34.5h-50.5zm5.5 4.3h8.4m-8.4 8.7h16.8m-12.6 4.3h34.6m-30.4 4.3h8.4m3.6 0h15.6m-36 4.1h12.9m-12.9 4.5h8.4m-4.2-21.5h17.3m3.7 0h8.2m-569.5 151H54.7V163H43.8v11.6H32.1v11h11.7v11.6h10.9v-11.6h11.6zm-30.2 5.5h7.7m10.9 0h7.7m-13.2-13.2v7.7m0 11v7.7"/><path class="st7" d="M71.4 96.2v34.2"/><path class="st8" d="M65 104.8h1.9m-1.9 3.1h1.9M65 118.8h1.9m-1.9 3.1h1.9"/><circle class="st2" cx="66" cy="113.3" r="2.1"/><path class="st0" d="M78.1 105.6v-2.7h2.7m0 22.8h-2.7V123m30.7 0v2.7H106m0-22.8h2.8v2.7"/><path class="st0" d="M61.4 96.2h54v34.2h-54zM26.5 445.6H39v22.2H26.5z"/><path class="st0" d="M22.3 439.9h21V474h-21z"/><path class="st2" d="M32.8 470c-.6 0-1 .5-1 1 0 .6.5 1 1 1 .6 0 1-.5 1-1s-.5-1-1-1zm-4.7 0c-.6 0-1 .5-1 1 0 .6.5 1 1 1 .6 0 1-.5 1-1s-.5-1-1-1zm9.3 0c-.6 0-1 .5-1 1 0 .6.5 1 1 1 .6 0 1-.5 1-1s-.4-1-1-1z"/><path class="st0" d="M34.7 913.8V904c0-3.3 2.7-6.1 6.1-6.1h8.3c3.3 0 6.1 2.7 6.1 6.1v10.2"/><path class="st1" d="M53.2 899.5c-2.2 2.2-5.4 6-5.4 14.6"/><path class="st0" d="M36 900.2c2.4.8 5.3 1.4 8.9 1.4m5.6 32.1H39.4c-3.2 0-5.8-2.6-5.8-5.8v-12.7l2.1-2 4.2 1.9 5-1.9 5.6 1.9 3.8-1.9 2 2v12.7c0 3.2-2.6 5.8-5.8 5.8z"/><path class="st0" d="M37.6 921.1l4.4-.5 4.4.5m1.3 7l2-.3 1.9.3"/><circle class="st1" cx="37.9" cy="800.3" r="5.7"/><circle class="st1" cx="37.9" cy="823.6" r="5.7"/><circle class="st1" cx="49.5" cy="811.9" r="5.7"/><circle class="st1" cx="26.2" cy="811.9" r="5.7"/><path class="st2" d="M48.6 813.1l-.4 1c-.1.3-.4.4-.7.3-.3-.1-.4-.4-.3-.7l1.5-4.1c.1-.3.4-.5.8-.5s.6.2.8.5l1.5 4.1c.1.3-.1.6-.3.7-.3.1-.6 0-.7-.3l-.4-1h-1.8zm1.4-.9l-.5-1.8-.5 1.8h1zm-13.7 14c-.3 0-.4-.2-.4-.5v-4.3c0-.3.2-.5.4-.5H38c.9 0 1.6.6 1.6 1.5 0 .3-.2.8-.7 1 .7.2 1 .8 1 1.2 0 .9-.6 1.6-1.7 1.6h-1.9zm1.6-3.1c.3 0 .5-.2.5-.6 0-.3-.2-.6-.5-.6H37v1.1h.9zm-.9.8v1.3h1.1c.4 0 .6-.3.6-.7 0-.3-.2-.6-.6-.6H37zm-.2-21.2c-.1.2-.5.3-.7.1-.3-.2-.3-.5-.2-.7l1.3-2-1.1-1.7c-.1-.2-.1-.6.2-.7.3-.2.6-.1.7.1l.9 1.4.9-1.4c.1-.2.5-.3.7-.1.2.1.3.5.2.7l-1.1 1.7 1.3 2c.2.2.1.6-.2.7-.2.1-.6.1-.7-.1l-1-1.7-1.2 1.7zm-10 9.7v1.9c0 .3-.3.5-.6.5s-.6-.2-.6-.5v-1.9l-1.5-2.1c-.1-.2-.1-.6.2-.7.2-.2.6-.1.7.1l1.2 1.8 1.2-1.8c.1-.2.5-.3.7-.1.2.2.3.5.2.7l-1.5 2.1z"/><path class="st0" d="M18.8 74.2H30v25.9H18.8zm0 18.7H30M18.8 74.2H30l-5.6-8.6z"/><path class="st2" d="M22.1 69.6h4.6l-2.3-4z"/><path class="st3" d="M22.4 78.5v10.2m4-10.2v10.2"/><path class="st0" d="M716.5 1009h49.1v34.5h-49.1z"/><path class="st9" d="M737.7 1022.6v7.3l7.7-3.6z"/><path class="st0" d="M722.2 1038.9h38.7"/><circle class="st2" cx="725.5" cy="1038.9" r="2.1"/><path class="st0" d="M74.566 32.044L91.75 49.227 74.565 66.41l-17.18-17.184z"/><ellipse transform="rotate(-45 74.682 43.437)" class="st9" cx="74.7" cy="43.4" rx="1.8" ry="1.8"/><ellipse transform="rotate(-45 80.408 49.174)" class="st9" cx="80.4" cy="49.2" rx="1.8" ry="1.8"/><ellipse transform="rotate(-45 74.755 54.827)" class="st9" cx="74.8" cy="54.8" rx="1.8" ry="1.8"/><path class="st0" d="M68.9 37.7l4.5 4.4m2.6 2.6l3.1 3.2m-4.4-2.6V53"/><path class="st4" d="M583 1001.4h14.8v4.7H583zm7.4-29.9h3.5c0 11.2 6.9 17.8 6.9 17.8l-6.9 12.1h-7l-6.9-12.1s6.9-6.5 6.9-17.8h3.5z"/><path class="st5" d="M590.4 971.5v13.1"/><circle class="st5" cx="590.4" cy="987.3" r="2.7"/><path class="st0" d="M540.6 1036.4h44.1v30.2h-44.1z"/><path class="st0" d="M533.5 1066.6h58.2v4.1h-58.2zm12.8-24.4H579v18.6h-32.7z"/><path class="st2" d="M565.8 1053.2l-1.7-1.7.9-.9c.4-.4.3-.8-.3-1l-4.5-1.2c-.5-.1-.8.2-.7.7l1.2 4.5c.1.5.6.6.9.3l.9-.9 1.7 1.7c.2.2.5.3.7.3.3 0 .5-.1.7-.3.6-.4.6-1.1.2-1.5z"/><path class="st0" d="M449 1073.6h50.5v34.5H449zm5.6 4.3h8.3m-8.3 8.6h16.7m-12.6 4.3h34.7m-30.5 4.3h8.4m3.7 0h15.5m-35.9 4.2h12.8m-12.8 4.5h8.3m-4.2-21.6h17.4m3.6 0h8.3"/><path class="st7" d="M46.1 1043.8v34.2"/><path class="st8" d="M39.6 1052.4h2m-2 3h2m-2 11h2m-2 3.1h2"/><circle class="st2" cx="40.6" cy="1060.9" r="2.1"/><path class="st0" d="M52.8 1053.2v-2.7h2.7m0 22.8h-2.7v-2.7m30.6 0v2.7h-2.7m0-22.8h2.7v2.7"/><path class="st0" d="M36 1043.8h54v34.2H36zm-4.6-67h12.5V999H31.4z"/><path class="st0" d="M27.2 971.1h21v34.1h-21z"/><path class="st2" d="M37.7 1001.2c-.6 0-1 .5-1 1 0 .6.5 1 1 1 .6 0 1-.5 1-1s-.5-1-1-1zm-4.7 0c-.6 0-1 .5-1 1 0 .6.5 1 1 1 .6 0 1-.5 1-1s-.4-1-1-1zm9.3 0c-.6 0-1 .5-1 1 0 .6.5 1 1 1 .6 0 1-.5 1-1s-.4-1-1-1z"/><path class="st0" d="M124.1 1114.1v-9.8c0-3.3 2.7-6.1 6.1-6.1h8.3c3.3 0 6.1 2.7 6.1 6.1v10.2"/><path class="st1" d="M142.6 1099.8c-2.2 2.2-5.4 6-5.4 14.6"/><path class="st0" d="M125.4 1100.5c2.4.8 5.3 1.4 8.9 1.4m5.6 32.1h-11.1c-3.2 0-5.8-2.6-5.8-5.8v-12.7l2.1-2 4.2 1.9 5-1.9 5.6 1.9 3.8-1.9 2 2v12.7c0 3.2-2.6 5.8-5.8 5.8z"/><path class="st0" d="M127 1121.5l4.4-.6 4.4.6m1.3 6.9l2-.3 1.9.3"/><circle class="st1" cx="644.8" cy="1009.4" r="5.7"/><circle class="st1" cx="644.8" cy="1032.7" r="5.7"/><circle class="st1" cx="656.4" cy="1021" r="5.7"/><circle class="st1" cx="633.1" cy="1021" r="5.7"/><path class="st2" d="M655.5 1022.2l-.4 1c-.1.3-.4.4-.7.3-.3-.1-.4-.4-.3-.7l1.5-4.1c.1-.3.4-.5.8-.5s.6.2.8.5l1.5 4.1c.1.3-.1.6-.3.7-.3.1-.6 0-.7-.3l-.4-1h-1.8zm1.5-.9l-.5-1.8-.5 1.8h1zm-13.7 14c-.3 0-.4-.2-.4-.5v-4.3c0-.3.2-.5.4-.5h1.7c.9 0 1.6.6 1.6 1.5 0 .3-.2.8-.7 1 .7.2 1 .8 1 1.2 0 .9-.6 1.6-1.7 1.6h-1.9zm1.5-3.2c.3 0 .5-.2.5-.6 0-.3-.2-.6-.5-.6h-.9v1.1h.9zm-.9.9v1.3h1.1c.4 0 .6-.3.6-.7 0-.3-.2-.6-.6-.6h-1.1zm-.2-21.2c-.1.2-.5.3-.7.1-.3-.2-.3-.5-.2-.7l1.3-2-1.1-1.7c-.1-.2-.1-.6.2-.7.3-.2.6-.1.7.1l.9 1.4.9-1.4c.1-.2.5-.3.7-.1.2.1.3.5.2.7l-1.1 1.7 1.3 2c.2.2.1.6-.2.7-.2.1-.6.1-.7-.1l-1-1.7-1.2 1.7zm-10 9.7v1.9c0 .3-.3.5-.6.5s-.6-.2-.6-.5v-1.9l-1.5-2.1c-.1-.2-.1-.6.2-.7.2-.2.6-.1.7.1l1.2 1.8 1.2-1.8c.1-.2.5-.3.7-.1.2.2.3.5.2.7l-1.5 2.1z"/><path class="st0" d="M684.5 1059.8h11.2v25.9h-11.2zm0 18.7h11.2m-11.2-18.7h11.2l-5.6-8.6z"/><path class="st2" d="M687.8 1055.2h4.6l-2.3-4z"/><path class="st3" d="M688.1 1064.1v10.1m4-10.1v10.1"/><path class="st0" d="M181.7 1095.9h49.1v34.5h-49.1z"/><path class="st9" d="M202.9 1109.4v7.4l7.7-3.7z"/><path class="st0" d="M187.5 1125.8h38.6"/><circle class="st2" cx="190.8" cy="1125.8" r="2.1"/><path class="st4" d="M288.8 1147.4h14.8v4.7h-14.8zm7.4-29.9h3.5c0 11.2 6.9 17.8 6.9 17.8l-6.9 12.1h-7l-6.9-12.1s6.9-6.5 6.9-17.8h3.5z"/><path class="st5" d="M296.2 1117.5v13.1"/><circle class="st5" cx="296.2" cy="1133.3" r="2.7"/><path class="st0" d="M101.7 1170.9h44.1v30.2h-44.1z"/><path class="st0" d="M94.6 1201.1h58.2v4.1H94.6zm12.8-24.4h32.7v18.6h-32.7z"/><path class="st2" d="M127 1187.7l-1.7-1.7.9-.9c.4-.4.3-.8-.3-.9l-4.5-1.2c-.5-.1-.8.2-.7.7l1.2 4.5c.1.5.6.6.9.3l.9-.9 1.7 1.7c.2.2.5.3.7.3.3 0 .5-.1.7-.3.6-.5.6-1.2.2-1.6z"/><path class="st7" d="M603.1 1153.5v34.2"/><path class="st8" d="M596.6 1162.1h2m-2 3.1h2m-2 10.9h2m-2 3.1h2"/><circle class="st2" cx="597.6" cy="1170.6" r="2.1"/><path class="st0" d="M609.7 1162.9v-2.7h2.8m0 22.8h-2.8v-2.7m30.7 0v2.7h-2.7m0-22.8h2.7v2.7"/><path class="st0" d="M593 1153.5h54v34.2h-54zm-532.3-49.2h12.5v22.2H60.7z"/><path class="st0" d="M56.5 1098.6h21v34.1h-21z"/><path class="st2" d="M67 1128.7c-.6 0-1 .5-1 1 0 .6.5 1 1 1 .6 0 1-.5 1-1 0-.6-.4-1-1-1zm-4.7 0c-.6 0-1 .5-1 1 0 .6.5 1 1 1 .6 0 1-.5 1-1 0-.6-.4-1-1-1zm9.3 0c-.6 0-1 .5-1 1 0 .6.5 1 1 1 .6 0 1-.5 1-1 .1-.6-.4-1-1-1z"/><path class="st0" d="M628.1 1084.3v-9.8c0-3.3 2.7-6.1 6.1-6.1h8.3c3.3 0 6.1 2.7 6.1 6.1v10.2"/><path class="st1" d="M646.6 1070c-2.2 2.2-5.4 6-5.4 14.6"/><path class="st0" d="M629.4 1070.7c2.4.8 5.3 1.4 8.9 1.4m5.6 32h-11.1c-3.2 0-5.8-2.6-5.8-5.8v-12.7l2.1-2 4.2 1.9 5-1.9 5.6 1.9 3.8-1.9 2 2v12.7c0 3.3-2.6 5.8-5.8 5.8z"/><path class="st0" d="M631 1091.6l4.4-.6 4.4.6m1.3 6.9l2-.2 1.9.2m-380.4 74.7h11.2v25.9h-11.2zm0 18.7h11.1m-11.1-18.7h11.1l-5.6-8.6z"/><path class="st2" d="M267.9 1168.6h4.5l-2.3-4z"/><path class="st3" d="M268.1 1177.5v10.1m4.1-10.1v10.1"/><path class="st0" d="M702 1168.9h49.1v34.5H702z"/><path class="st9" d="M723.2 1182.5v7.3l7.7-3.7z"/><path class="st0" d="M707.8 1198.8h38.6"/><circle class="st2" cx="711.1" cy="1198.8" r="2.1"/><path class="st0" d="M676.19 1117.067l17.184 17.183-17.183 17.182-17.18-17.182z"/><ellipse transform="rotate(-45 676.242 1128.492)" class="st9" cx="676.3" cy="1128.5" rx="1.8" ry="1.8"/><ellipse transform="rotate(-45 681.967 1134.23)" class="st9" cx="682" cy="1134.2" rx="1.8" ry="1.8"/><ellipse transform="rotate(-45 676.315 1139.882)" class="st9" cx="676.3" cy="1139.9" rx="1.8" ry="1.8"/><path class="st0" d="M670.5 1122.7l4.5 4.5m2.6 2.6l3.1 3.1m-4.4-2.6v7.7"/><path class="st4" d="M580.9 1124.8h14.8v4.7h-14.8zm7.4-29.9h3.5c0 11.2 6.9 17.8 6.9 17.8l-6.9 12.1h-7l-6.9-12.1s6.9-6.5 6.9-17.8h3.5z"/><path class="st5" d="M588.3 1094.9v13.1"/><circle class="st5" cx="588.3" cy="1110.7" r="2.7"/><path class="st0" d="M425.5 540.9H476v34.5h-50.5zm5.5 4.3h8.4m-8.4 8.6h16.8m-12.6 4.3h34.7m-30.5 4.4h8.4m3.6 0H467m-36 4.1h12.9m-12.9 4.5h8.4m-4.2-21.6h17.3m3.7 0h8.2"/><path class="st7" d="M454.9 611.5v34.2"/><path class="st8" d="M448.4 620h2m-2 3.1h2m-2 11h2m-2 3.1h2"/><circle class="st2" cx="449.4" cy="628.6" r="2.1"/><path class="st0" d="M461.5 620.9v-2.8h2.8m0 22.8h-2.8v-2.7m30.7 0v2.7h-2.7m0-22.8h2.7v2.8"/><path class="st0" d="M444.8 611.5h54v34.2h-54zm-21.7 513.7h12.5v22.2h-12.5z"/><path class="st0" d="M418.8 1119.5h21v34.1h-21z"/><path class="st2" d="M429.3 1149.6c-.6 0-1 .5-1 1 0 .6.5 1 1 1 .6 0 1-.5 1-1s-.4-1-1-1zm-4.7 0c-.6 0-1 .5-1 1 0 .6.5 1 1 1 .6 0 1-.5 1-1s-.4-1-1-1zm9.3 0c-.6 0-1 .5-1 1 0 .6.5 1 1 1 .6 0 1-.5 1-1 .1-.5-.4-1-1-1z"/><path class="st0" d="M472.6 1172.4v-9.8c0-3.3 2.7-6.1 6.1-6.1h8.3c3.3 0 6.1 2.7 6.1 6.1v10.2"/><path class="st1" d="M491.1 1158.1c-2.2 2.2-5.4 6-5.4 14.6"/><path class="st0" d="M473.9 1158.8c2.4.8 5.3 1.4 8.9 1.4m5.6 32.1h-11.1c-3.2 0-5.8-2.6-5.8-5.8v-12.7l2.1-2 4.2 1.9 5-1.9 5.6 1.9 3.8-1.9 2 2v12.7c0 3.2-2.6 5.8-5.8 5.8z"/><path class="st0" d="M475.5 1179.7l4.4-.5 4.4.5m1.4 7l1.9-.3 1.9.3"/><circle class="st1" cx="346.3" cy="1161.2" r="5.7"/><circle class="st1" cx="346.3" cy="1184.5" r="5.7"/><circle class="st1" cx="358" cy="1172.8" r="5.7"/><circle class="st1" cx="334.7" cy="1172.8" r="5.7"/><path class="st2" d="M357.1 1174l-.4 1c-.1.3-.4.4-.7.3-.3-.1-.4-.4-.3-.7l1.5-4.1c.1-.3.4-.5.8-.5s.6.2.8.5l1.5 4.1c.1.3-.1.6-.3.7-.3.1-.6 0-.7-.3l-.4-1h-1.8zm1.4-1l-.5-1.8-.5 1.8h1zm-13.7 14.1c-.3 0-.4-.2-.4-.5v-4.3c0-.3.2-.5.4-.5h1.7c.9 0 1.6.6 1.6 1.5 0 .3-.2.8-.7 1 .7.2 1 .8 1 1.2 0 .9-.6 1.6-1.7 1.6h-1.9zm1.6-3.2c.3 0 .5-.2.5-.6 0-.3-.2-.6-.5-.6h-.9v1.1h.9zm-.9.9v1.3h1.1c.4 0 .6-.3.6-.7 0-.3-.2-.6-.6-.6h-1.1zm-.2-21.2c-.1.2-.5.3-.7.1-.3-.2-.3-.5-.2-.7l1.3-2-1.1-1.7c-.1-.2-.1-.6.2-.7.3-.2.6-.1.7.1l.9 1.4.9-1.4c.1-.2.5-.3.7-.1.2.1.3.5.2.7l-1.1 1.7 1.3 2c.2.2.1.6-.2.7-.2.1-.6.1-.7-.1l-1-1.7-1.2 1.7zm-10.1 9.7v1.9c0 .3-.3.5-.6.5s-.6-.2-.6-.5v-1.9l-1.5-2.1c-.1-.2-.1-.6.2-.7.2-.2.6-.1.7.1l1.2 1.8 1.2-1.8c.1-.2.5-.3.7-.1.2.2.3.5.2.7l-1.5 2.1z"/><path class="st0" d="M542.6 1180.2h11.2v25.9h-11.2zm0 18.8h11.2m-11.2-18.8h11.2l-5.6-8.6z"/><path class="st2" d="M545.9 1175.6h4.6l-2.3-4z"/><path class="st3" d="M546.2 1184.5v10.2m4-10.2v10.2"/><path class="st0" d="M195.154 1155.962l17.183 17.182-17.183 17.183-17.182-17.183z"/><ellipse transform="rotate(-45 195.23 1167.335)" class="st9" cx="195.2" cy="1167.3" rx="1.8" ry="1.8"/><ellipse transform="rotate(-45 200.954 1173.072)" class="st9" cx="201" cy="1173.1" rx="1.8" ry="1.8"/><ellipse transform="rotate(-45 195.302 1178.724)" class="st9" cx="195.3" cy="1178.7" rx="1.8" ry="1.8"/><path class="st0" d="M189.5 1161.6l4.4 4.4m2.6 2.6l3.2 3.2m-4.4-2.6v7.7"/><path class="st4" d="M404.2 1199.2H419v4.7h-14.8z"/><path class="st4" d="M411.6 1169.4h3.5c0 11.2 6.9 17.8 6.9 17.8l-6.9 12.1H408l-6.9-12.1s6.9-6.5 6.9-17.8h3.6z"/><path class="st5" d="M411.6 1169.4v13"/><circle class="st5" cx="411.6" cy="1185.2" r="2.7"/><path class="st0" d="M548.1 1117.3h-11.6v-11.6h-10.9v11.6h-11.7v10.9h11.7v11.7h10.9v-11.7h11.6zm-30.2 5.5h7.7m10.9 0h7.7m-13.2-13.2v7.7m0 10.9v7.7m-99.9-263.8h-11.7v-11.6h-10.9v11.6h-11.6v11h11.6v11.6h10.9v-11.6h11.7zm-30.3 5.5h7.7m10.9 0h7.7M414 864.4v7.7m0 11v7.7M58.9 1169.6H47.3V1158H36.4v11.6H24.7v11h11.7v11.6h10.9v-11.6h11.6zm-30.2 5.5h7.7m10.9 0H55m-13.2-13.2v7.7m0 11v7.7m227.6-120.6h-11.6v-11.6h-11v11.6h-11.6v11h11.6v11.6h11v-11.6h11.6zm-30.3 5.5h7.7m11 0h7.7m-13.2-13.2v7.7m0 11v7.7"/><path class="st4" d="M717.4 777.7h14.8v4.7h-14.8zm7.4-29.9h3.5c0 11.2 6.9 17.8 6.9 17.8l-6.9 12.1h-7l-6.9-12.1s6.9-6.5 6.9-17.8h3.5z"/><path class="st5" d="M724.8 747.8v13.1"/><circle class="st5" cx="724.8" cy="763.6" r="2.7"/><circle class="st1" cx="558.8" cy="872.1" r="5.7"/><circle class="st1" cx="558.8" cy="895.4" r="5.7"/><circle class="st1" cx="570.4" cy="883.8" r="5.7"/><circle class="st1" cx="547.1" cy="883.8" r="5.7"/><path class="st2" d="M569.5 885l-.4 1c-.1.3-.4.4-.7.3-.3-.1-.4-.4-.3-.7l1.5-4.1c.1-.3.4-.5.8-.5s.6.2.8.5l1.5 4.1c.1.3-.1.6-.3.7-.3.1-.6 0-.7-.3l-.4-1h-1.8zm1.4-1l-.5-1.8-.5 1.8h1zm-13.7 14c-.3 0-.4-.2-.4-.5v-4.3c0-.3.2-.5.4-.5h1.7c.9 0 1.6.6 1.6 1.5 0 .3-.2.8-.7 1 .7.2 1 .8 1 1.2 0 .9-.6 1.6-1.7 1.6h-1.9zm1.6-3.1c.3 0 .5-.2.5-.6 0-.3-.2-.6-.5-.6h-.9v1.1h.9zm-.9.9v1.3h1.1c.4 0 .6-.3.6-.7 0-.3-.2-.6-.6-.6h-1.1zm-.2-21.2c-.1.2-.5.3-.7.1-.3-.2-.3-.5-.2-.7l1.3-2-1.1-1.7c-.1-.2-.1-.6.2-.7.3-.2.6-.1.7.1l.9 1.4.9-1.4c.1-.2.5-.3.7-.1.2.1.3.5.2.7l-1.1 1.7 1.3 2c.2.2.1.6-.2.7-.2.1-.6.1-.7-.1l-1-1.7-1.2 1.7zm-10 9.7v1.9c0 .3-.3.5-.6.5s-.6-.2-.6-.5v-1.9l-1.5-2.1c-.1-.2-.1-.6.2-.7.2-.2.6-.1.7.1l1.2 1.8 1.2-1.8c.1-.2.5-.3.7-.1.2.2.3.5.2.7l-1.5 2.1z"/><circle class="st1" cx="755.5" cy="799" r="5.7"/><circle class="st1" cx="755.5" cy="822.3" r="5.7"/><circle class="st1" cx="767.1" cy="810.7" r="5.7"/><circle class="st1" cx="743.8" cy="810.7" r="5.7"/><path class="st2" d="M766.2 811.9l-.4 1c-.1.3-.4.4-.7.3-.3-.1-.4-.4-.3-.7l1.5-4.1c.1-.3.4-.5.8-.5s.6.2.8.5l1.5 4.1c.1.3-.1.6-.3.7-.3.1-.6 0-.7-.3l-.4-1h-1.8zm1.4-1l-.5-1.8-.5 1.8h1zm-13.7 14c-.3 0-.4-.2-.4-.5v-4.3c0-.3.2-.5.4-.5h1.7c.9 0 1.6.6 1.6 1.5 0 .3-.2.8-.7 1 .7.2 1 .8 1 1.2 0 .9-.6 1.6-1.7 1.6h-1.9zm1.6-3.1c.3 0 .5-.2.5-.6 0-.3-.2-.6-.5-.6h-.9v1.1h.9zm-.9.9v1.3h1.1c.4 0 .6-.3.6-.7 0-.3-.2-.6-.6-.6h-1.1zm-.2-21.2c-.1.2-.5.3-.7.1-.3-.2-.3-.5-.2-.7l1.3-2-1.1-1.7c-.1-.2-.1-.6.2-.7.3-.2.6-.1.7.1l.9 1.4.9-1.4c.1-.2.5-.3.7-.1.2.1.3.5.2.7l-1.1 1.7 1.3 2c.2.2.1.6-.2.7-.2.1-.6.1-.7-.1l-1-1.7-1.2 1.7zm-10 9.6v1.9c0 .3-.3.5-.6.5s-.6-.2-.6-.5v-1.9l-1.5-2.1c-.1-.2-.1-.6.2-.7.2-.2.6-.1.7.1l1.2 1.8 1.2-1.8c.1-.2.5-.3.7-.1.2.2.3.5.2.7l-1.5 2.1z"/></svg>