<svg id="Layer_1" xmlns="http://www.w3.org/2000/svg" viewBox="0 0 50 50"><style>.st0{fill:#FFFFFF;}</style><path class="st0" d="M36.9 25.3c-.1-.1-6.6-6.4-6.6-17.1 0-.6-.4-1-1-1h-7.1c-.6 0-1 .4-1 1 0 10.7-6.5 17-6.6 17.1-.3.3-.4.8-.2 1.2l6 10.6h-2.1c-.6 0-1 .4-1 1v4.7c0 .6.4 1 1 1h14.8c.6 0 1-.4 1-1v-4.7c0-.6-.4-1-1-1H31l6-10.6c.3-.4.2-.9-.1-1.2zm-11.1-3c1 0 1.7.8 1.7 1.7s-.8 1.7-1.7 1.7S24 25 24 24s.8-1.7 1.8-1.7zm6.4 19.4H19.4V39h12.9v2.7zm-3.5-4.6h-5.9l-6.2-10.9c1.6-1.8 6.3-7.7 6.6-16.9h1.6v11.2c-1.6.4-2.8 1.8-2.8 3.5 0 2.1 1.7 3.7 3.7 3.7s3.7-1.7 3.7-3.7c0-1.7-1.2-3.2-2.7-3.6V9.2h1.6c.3 9.2 5 15.1 6.6 16.9l-6.2 11z"/></svg>