<?xml version="1.0" encoding="utf-8"?>
<!-- Generator: Adobe Illustrator 21.0.0, SVG Export Plug-In . SVG Version: 6.00 Build 0)  -->
<svg version="1.1" id="Layer_1" xmlns="http://www.w3.org/2000/svg" xmlns:xlink="http://www.w3.org/1999/xlink" x="0px" y="0px"
	 viewBox="0 0 75 50" style="enable-background:new 0 0 75 50;" xml:space="preserve">
<style type="text/css">
	.st0{fill:#8A8BA9;}
</style>
<path class="st0" d="M66.6,37h-6V7.8c0-0.6-0.5-1.1-1.1-1.1H15.4c-0.6,0-1.1,0.5-1.1,1.1V37h-6c-0.6,0-1.1,0.5-1.1,1.1v4.1
	c0,0.6,0.5,1.1,1.1,1.1h58.2c0.6,0,1.1-0.5,1.1-1.1V38C67.7,37.4,67.2,37,66.6,37z M16.5,8.9h42v28h-42C16.5,36.9,16.5,8.9,16.5,8.9
	z M65.5,41.1h-56v-2h56.1L65.5,41.1L65.5,41.1z"/>
<path class="st0" d="M53.8,12.6H21.2c-0.6,0-1.1,0.5-1.1,1.1v18.6c0,0.6,0.5,1.1,1.1,1.1h32.7c0.6,0,1.1-0.5,1.1-1.1V13.7
	C54.9,13.1,54.4,12.6,53.8,12.6z M52.8,31.2H22.2V14.7h30.5L52.8,31.2L52.8,31.2z"/>
<path class="st0" d="M35.7,25.1c0.1,0.5,0.6,0.6,0.9,0.3l0.9-0.9l1.7,1.7c0.2,0.2,0.5,0.3,0.7,0.3c0.3,0,0.5-0.1,0.7-0.3
	c0.4-0.4,0.4-1.1,0-1.5L39,23l0.9-0.9c0.4-0.4,0.3-0.8-0.3-1l-4.5-1.2c-0.5-0.1-0.8,0.2-0.7,0.7L35.7,25.1z"/>
</svg>
