<svg id="Layer_1" xmlns="http://www.w3.org/2000/svg" viewBox="0 0 75 50"><style>.st0{fill:#FFFFFF;}</style><path class="st0" d="M62.6 7.1H13.5c-.6 0-1.1.5-1.1 1.1v34.5c0 .6.5 1.1 1.1 1.1h49.1c.6 0 1.1-.5 1.1-1.1V8.2c0-.6-.5-1.1-1.1-1.1zm-1.1 34.5h-47V9.3h47v32.3z"/><path class="st0" d="M34.1 30c.2.1.4.2.6.2.2 0 .3 0 .5-.1l7.7-3.7c.4-.2.6-.6.6-1s-.2-.8-.6-1l-7.7-3.7c-.3-.2-.7-.1-1 .1-.3.2-.5.5-.5.9V29c-.1.5.1.8.4 1zm-14.9 9.2h1.5c.4.6 1 1 1.8 1s1.4-.4 1.8-1h33.6c.6 0 1.1-.5 1.1-1.1s-.6-1.1-1.1-1.1H24.3c-.4-.6-1-1-1.8-1s-1.4.4-1.8 1h-1.5c-.6 0-1.1.5-1.1 1.1s.5 1.1 1.1 1.1z"/></svg>