<svg id="Layer_1" xmlns="http://www.w3.org/2000/svg" viewBox="0 0 50 50"><style>.st0{fill:#FFFFFF;}</style><path class="st0" d="M9.5 17.3c-2.6 0-4.7-2.1-4.7-4.7S6.9 8 9.5 8s4.7 2.1 4.7 4.7-2.1 4.6-4.7 4.6zm0-7.2c-1.4 0-2.5 1.1-2.5 2.5s1.1 2.5 2.5 2.5S12 14 12 12.6s-1.1-2.5-2.5-2.5zm31.2 35.5c-2.6 0-4.7-2.1-4.7-4.7s2.1-4.7 4.7-4.7 4.7 2.1 4.7 4.7-2.1 4.7-4.7 4.7zm0-7.2c-1.4 0-2.5 1.1-2.5 2.5s1.1 2.5 2.5 2.5 2.5-1.1 2.5-2.5-1.1-2.5-2.5-2.5zm-3.6-23.8c-2.6 0-4.7-2.1-4.7-4.7s2.1-4.7 4.7-4.7 4.7 2.1 4.7 4.7-2.1 4.7-4.7 4.7zm0-7.2c-1.4 0-2.5 1.1-2.5 2.5s1.1 2.5 2.5 2.5 2.5-1.1 2.5-2.5-1.1-2.5-2.5-2.5zm-9.3 22.7H16.3c-.6 0-1.1-.5-1.1-1.1V17.5c0-.6.5-1.1 1.1-1.1h11.5c.6 0 1.1.5 1.1 1.1V29c0 .6-.5 1.1-1.1 1.1zm-10.4-2.2h9.4v-9.4h-9.4v9.4zm-6.3 2.2H3.8c-.6 0-1.1-.5-1.1-1.1v-7.3c0-.6.5-1.1 1.1-1.1h7.3c.6 0 1.1.5 1.1 1.1V29c0 .6-.5 1.1-1.1 1.1zm-6.2-2.2H10v-5.1H4.9v5.1zm24.2-14.6H20c-.4 0-.7-.2-.9-.5-.2-.3-.2-.7 0-1.1l4.5-7.9c.4-.7 1.5-.7 1.9 0l4.5 7.9c.2.3.2.7 0 1.1-.2.3-.5.5-.9.5zm-7.2-2.1h5.3l-2.7-4.6-2.6 4.6zm10.6 32h-9.4c-.4 0-.7-.2-.9-.5-.2-.3-.2-.7 0-1.1l4.7-8.2c.4-.7 1.5-.7 1.9 0l4.7 8.2c.2.3.2.7 0 1.1-.3.2-.6.5-1 .5zM24.9 41h5.7l-2.9-4.9-2.8 4.9zm-13.6 5.7c-3.9 0-7-3.2-7-7s3.2-7 7-7 7 3.2 7 7-3.2 7-7 7zm0-11.9c-2.7 0-4.9 2.2-4.9 4.9s2.2 4.9 4.9 4.9 4.9-2.2 4.9-4.9-2.3-4.9-4.9-4.9zm27.9-2.2c-4.4 0-8-3.6-8-8s3.6-8 8-8 8 3.6 8 8-3.6 8-8 8zm0-13.9c-3.2 0-5.9 2.6-5.9 5.9 0 3.2 2.6 5.9 5.9 5.9 3.2 0 5.9-2.6 5.9-5.9 0-3.3-2.6-5.9-5.9-5.9z"/></svg>