<svg id="Layer_1" xmlns="http://www.w3.org/2000/svg" viewBox="0 0 50 50"><style>.st0{fill:#FFFFFF;}</style><path class="st0" d="M25 7.1c-10.1 0-18.3 8.2-18.3 18.3S14.9 43.7 25 43.7s18.3-8.2 18.3-18.3c.1-10-8.1-18.3-18.3-18.3zm-1 17.3h-8c.1-2.5.6-4.7 1.3-6.5H24v6.5zm2.1-6.5h6.6c.7 1.8 1.2 4 1.4 6.5h-7.9v-6.5h-.1zM24 26.5V33h-6.6c-.7-1.8-1.2-4-1.3-6.5H24zm2.1 0H34c-.1 2.5-.6 4.7-1.3 6.5h-6.6v-6.5zm8.9-8.6h4.4c1 2 1.7 4.2 1.8 6.5h-5c-.1-2.5-.5-4.6-1.2-6.5zm-8.9-2.1V10c1.5.9 3.8 2.7 5.5 5.8h-5.5zM24 10v5.8h-5.5c1.7-3.1 4-4.9 5.5-5.8zm-13.3 7.9h4.4c-.7 1.8-1.1 4-1.2 6.5h-5c.2-2.3.8-4.5 1.8-6.5zm3.2 8.6c.1 2.5.6 4.6 1.2 6.5h-4.4c-1-2-1.7-4.2-1.8-6.5h5zM24 35.2V41c-1.5-.9-3.8-2.7-5.5-5.8H24zm2.1 5.8v-5.8h5.5c-1.7 3-4 4.8-5.5 5.8zm13.3-8H35c.7-1.8 1.1-4 1.2-6.5h5c-.2 2.4-.8 4.6-1.8 6.5zM38 15.8h-3.9c-1.3-2.6-3-4.5-4.5-5.8 3.4.9 6.3 3 8.4 5.8zM20.5 10c-.4.4-.8.8-1.3 1.2-1.1 1.1-2.2 2.7-3.2 4.6h-3.9c2.1-2.8 5-4.9 8.4-5.8zm-8.4 25.2H16c1.3 2.6 3 4.5 4.5 5.8-3.4-1-6.3-3.1-8.4-5.8zM29.6 41c.4-.4.8-.8 1.3-1.2 1.1-1.1 2.2-2.7 3.2-4.6H38c-2.1 2.7-5 4.8-8.4 5.8z"/></svg>