<svg id="Layer_1" xmlns="http://www.w3.org/2000/svg" viewBox="0 0 50 50"><style>.st0{fill:#FFFFFF;}</style><path class="st0" d="M30.9 8.3c.4.4.6.9.6 1.5s-.2 1.1-.6 1.5-.9.6-1.5.6h-9.9v28c0 .6-.2 1.1-.7 1.6-.4.4-1 .6-1.6.6s-1.1-.2-1.6-.6c-.4-.4-.6-.9-.6-1.6v-28H5c-.6 0-1.1-.2-1.5-.6-.4-.4-.6-.9-.6-1.5s.2-1.1.6-1.5c.4-.4.9-.6 1.5-.6h24.3c.7 0 1.2.2 1.6.6zm11.2 30.1c.9 0 1.5-.1 1.9-.2.4-.1.8-.2 1.2-.2s.8.2 1.2.5.5.8.5 1.5-.3 1.1-1 1.4c-1.4.6-2.6 1-3.6 1s-1.9 0-2.7-.1-1.6-.4-2.3-.8c-1.8-1-2.7-2.9-2.7-5.5V20.7h-3.5c-.6 0-.9-.3-.9-.9 0-.3.1-.6.4-.8l6.6-6.5c.3-.3.6-.4.8-.4.3 0 .5.1.7.3s.3.4.3.7V17h5.5c.6 0 1 .2 1.4.5.4.4.5.8.5 1.4s-.2 1-.5 1.4c-.4.4-.8.5-1.4.5H39v14.7c0 1.2.4 2.1 1.1 2.5.5.2 1.1.4 2 .4z"/></svg>