<?xml version="1.0" encoding="utf-8"?>
<!-- Generator: Adobe Illustrator 21.0.0, SVG Export Plug-In . SVG Version: 6.00 Build 0)  -->
<svg version="1.1" id="Layer_1" xmlns="http://www.w3.org/2000/svg" xmlns:xlink="http://www.w3.org/1999/xlink" x="0px" y="0px"
	 viewBox="0 0 75 50" style="enable-background:new 0 0 75 50;" xml:space="preserve">
<style type="text/css">
	.st0{fill:#8A8BA9;}
</style>
<path class="st0" d="M62.6,7.1H13.5c-0.6,0-1.1,0.5-1.1,1.1v34.5c0,0.6,0.5,1.1,1.1,1.1h49.1c0.6,0,1.1-0.5,1.1-1.1V8.2
	C63.7,7.6,63.2,7.1,62.6,7.1z M61.5,41.6h-47V9.3h47V41.6z"/>
<path class="st0" d="M34.1,30c0.2,0.1,0.4,0.2,0.6,0.2c0.2,0,0.3,0,0.5-0.1l7.7-3.7c0.4-0.2,0.6-0.6,0.6-1s-0.2-0.8-0.6-1l-7.7-3.7
	c-0.3-0.2-0.7-0.1-1,0.1s-0.5,0.5-0.5,0.9V29C33.6,29.5,33.8,29.8,34.1,30z M19.2,39.2h1.5c0.4,0.6,1,1,1.8,1s1.4-0.4,1.8-1h33.6
	c0.6,0,1.1-0.5,1.1-1.1S58.4,37,57.9,37H24.3c-0.4-0.6-1-1-1.8-1s-1.4,0.4-1.8,1h-1.5c-0.6,0-1.1,0.5-1.1,1.1S18.6,39.2,19.2,39.2z"
	/>
</svg>
