<?xml version="1.0" encoding="utf-8"?>
<!-- Generator: Adobe Illustrator 21.0.0, SVG Export Plug-In . SVG Version: 6.00 Build 0)  -->
<svg version="1.1" id="Layer_1" xmlns="http://www.w3.org/2000/svg" xmlns:xlink="http://www.w3.org/1999/xlink" x="0px" y="0px"
	 viewBox="0 0 50 50" style="enable-background:new 0 0 50 50;" xml:space="preserve">
<style type="text/css">
	.st0{fill:#8A8BA9;}
</style>
<path class="st0" d="M25.5,7.1c-10.1,0-18.3,8.2-18.3,18.3s8.2,18.3,18.3,18.3s18.3-8.2,18.3-18.3C43.8,15.4,35.6,7.1,25.5,7.1z
	 M25.5,9.3c8.6,0,15.6,6.7,16.1,15.1h-9.4c-0.5-3.3-3.4-5.8-6.8-5.8s-6.3,2.5-6.8,5.8H9.4C9.9,16,16.9,9.3,25.5,9.3z M30.2,25.5
	c0,2.6-2.1,4.7-4.7,4.7s-4.7-2.1-4.7-4.7s2.1-4.7,4.7-4.7S30.2,22.9,30.2,25.5z M25.5,41.7c-8.6,0-15.6-6.7-16.1-15.1h9.4
	c0.5,3.3,3.4,5.8,6.8,5.8s6.3-2.5,6.8-5.8h9.4C41.1,35,34.1,41.7,25.5,41.7z"/>
<circle class="st0" cx="25.5" cy="25.5" r="2.2"/>
</svg>
