<?xml version="1.0" encoding="utf-8"?>
<!-- Generator: Adobe Illustrator 21.0.0, SVG Export Plug-In . SVG Version: 6.00 Build 0)  -->
<svg version="1.1" id="Layer_1" xmlns="http://www.w3.org/2000/svg" xmlns:xlink="http://www.w3.org/1999/xlink" x="0px" y="0px"
	 viewBox="0 0 50 50" style="enable-background:new 0 0 50 50;" xml:space="preserve">
<style type="text/css">
	.st0{fill:#8A8BA9;}
</style>
<path class="st0" d="M36.9,25.3c-0.1-0.1-6.6-6.4-6.6-17.1c0-0.6-0.4-1-1-1h-7.1c-0.6,0-1,0.4-1,1c0,10.7-6.5,17-6.6,17.1
	c-0.3,0.3-0.4,0.8-0.2,1.2l6,10.6h-2.1c-0.6,0-1,0.4-1,1v4.7c0,0.6,0.4,1,1,1h14.8c0.6,0,1-0.4,1-1v-4.7c0-0.6-0.4-1-1-1H31l6-10.6
	C37.3,26.1,37.2,25.6,36.9,25.3z M25.8,22.3c1,0,1.7,0.8,1.7,1.7s-0.8,1.7-1.7,1.7S24,25,24,24S24.8,22.3,25.8,22.3z M32.2,41.7
	H19.4V39h12.9L32.2,41.7L32.2,41.7z M28.7,37.1h-5.9l-6.2-10.9c1.6-1.8,6.3-7.7,6.6-16.9h1.6v11.2C23.2,20.9,22,22.3,22,24
	c0,2.1,1.7,3.7,3.7,3.7s3.7-1.7,3.7-3.7c0-1.7-1.2-3.2-2.7-3.6V9.2h1.6c0.3,9.2,5,15.1,6.6,16.9C34.9,26.1,28.7,37.1,28.7,37.1z"/>
</svg>
