<svg id="Layer_1" xmlns="http://www.w3.org/2000/svg" viewBox="0 0 50 50"><style>.st0{fill:#FFFFFF;}</style><path class="st0" d="M25.5 7.1c-10.1 0-18.3 8.2-18.3 18.3s8.2 18.3 18.3 18.3 18.3-8.2 18.3-18.3c0-10-8.2-18.3-18.3-18.3zm0 2.2c8.6 0 15.6 6.7 16.1 15.1h-9.4c-.5-3.3-3.4-5.8-6.8-5.8s-6.3 2.5-6.8 5.8H9.4C9.9 16 16.9 9.3 25.5 9.3zm4.7 16.2c0 2.6-2.1 4.7-4.7 4.7s-4.7-2.1-4.7-4.7 2.1-4.7 4.7-4.7 4.7 2.1 4.7 4.7zm-4.7 16.2c-8.6 0-15.6-6.7-16.1-15.1h9.4c.5 3.3 3.4 5.8 6.8 5.8s6.3-2.5 6.8-5.8h9.4c-.7 8.4-7.7 15.1-16.3 15.1z"/><circle class="st0" cx="25.5" cy="25.5" r="2.2"/></svg>