<svg id="Layer_1" xmlns="http://www.w3.org/2000/svg" viewBox="0 0 75 50"><style>.st0{fill:#FFFFFF;}</style><path class="st0" d="M66.6 37h-6V7.8c0-.6-.5-1.1-1.1-1.1H15.4c-.6 0-1.1.5-1.1 1.1V37h-6c-.6 0-1.1.5-1.1 1.1v4.1c0 .6.5 1.1 1.1 1.1h58.2c.6 0 1.1-.5 1.1-1.1V38c.1-.6-.4-1-1-1zM16.5 8.9h42v28h-42v-28zm49 32.2h-56v-2h56.1v2z"/><path class="st0" d="M53.8 12.6H21.2c-.6 0-1.1.5-1.1 1.1v18.6c0 .6.5 1.1 1.1 1.1h32.7c.6 0 1.1-.5 1.1-1.1V13.7c-.1-.6-.6-1.1-1.2-1.1zm-1 18.6H22.2V14.7h30.5v16.5z"/><path class="st0" d="M35.7 25.1c.1.5.6.6.9.3l.9-.9 1.7 1.7c.2.2.5.3.7.3.3 0 .5-.1.7-.3.4-.4.4-1.1 0-1.5L39 23l.9-.9c.4-.4.3-.8-.3-1l-4.5-1.2c-.5-.1-.8.2-.7.7l1.3 4.5z"/></svg>