<svg id="Layer_1" xmlns="http://www.w3.org/2000/svg" viewBox="0 0 50 50"><style>.st0{fill:#FFFFFF;}</style><path class="st0" d="M31.7 16.4c0-.1 0-.2-.1-.4v-.1s0-.1-.1-.1l-5.6-8.6c-.4-.6-1.4-.6-1.8 0l-5.6 8.6s0 .1-.1.1v.1c0 .1-.1.2-.1.4v25.9c0 .6.5 1.1 1.1 1.1h11.2c.6 0 1.1-.5 1.1-1.1V16.4zm-11.2 1h9V34h-9V17.4zm3.2-5.7h2.6l2.3 3.6h-7.2l2.3-3.6zm-3.2 29.5v-5h9v5h-9z"/><path class="st0" d="M23 19.6c-.6 0-1.1.5-1.1 1.1v10.2c0 .6.5 1.1 1.1 1.1s1.1-.5 1.1-1.1V20.7c0-.6-.5-1.1-1.1-1.1zm4 0c-.6 0-1.1.5-1.1 1.1v10.2c0 .6.5 1.1 1.1 1.1s1.1-.5 1.1-1.1V20.7c0-.6-.5-1.1-1.1-1.1z"/></svg>