<svg id="Layer_1" xmlns="http://www.w3.org/2000/svg" viewBox="0 0 50 50"><style>.st0{fill:#FFFFFF;}</style><path class="st0" d="M13.6 27H7.7c-.6 0-1-.4-1-1v-1c0-5.2 2.1-9.9 6-13.5.2-.3.5-.5.9-.5h.1c.4 0 .8.3.9.7.1.3.1.5 0 .8V26c0 .6-.4 1-1 1zm-4.9-2h3.9V14.5c-2.5 2.9-3.9 6.6-3.9 10.5zm33.6 2H22c-.6 0-1-.4-1-1V8c0-.5.3-.9.8-1 1.1-.2 2.1-.3 3.2-.3 10.1 0 18.3 8.2 18.3 18.3v1c0 .6-.4 1-1 1zM23 25h18.3C41.3 16 34 8.7 25 8.7c-.7 0-1.3 0-2 .1V25zm-9.3 14c-.2 0-.5-.1-.7-.3-2.3-2-4-4.4-5-6.9-.1-.3-.1-.7.1-.9.2-.2.5-.4.8-.4h4.7c.6 0 1 .4 1 1V38c0 .4-.2.8-.6.9 0 .1-.2.1-.3.1zm-3.1-6.5c.6 1.1 1.3 2.1 2.1 3.1v-3.1h-2.1zM25 43.3c-1.1 0-2.1-.1-3.2-.3-.5-.1-.8-.5-.8-1V31.5c0-.6.4-1 1-1h19c.3 0 .6.2.8.4.2.3.2.6.1.9-2.8 7-9.5 11.5-16.9 11.5zm-2-2.1c.7.1 1.3.1 2 .1 6.1 0 11.6-3.4 14.4-8.8H23v8.7z"/></svg>