<?xml version="1.0" encoding="utf-8"?>
<!-- Generator: Adobe Illustrator 21.0.0, SVG Export Plug-In . SVG Version: 6.00 Build 0)  -->
<svg version="1.1" id="Layer_1" xmlns="http://www.w3.org/2000/svg" xmlns:xlink="http://www.w3.org/1999/xlink" x="0px" y="0px"
	 viewBox="0 0 50 50" style="enable-background:new 0 0 50 50;" xml:space="preserve">
<style type="text/css">
	.st0{fill:#8A8BA9;}
</style>
<path class="st0" d="M37.1,23.7l-0.8-0.8v-9.7c0-3.9-3.2-7.1-7.1-7.1h-8.3c-3.9,0-7.1,3.2-7.1,7.1V23L13,23.7
	c-0.2,0.2-0.3,0.5-0.3,0.8v12.7c0,3.8,3.1,6.9,6.9,6.9h11.1c3.8,0,6.9-3.1,6.9-6.9V24.4C37.4,24.1,37.3,23.9,37.1,23.7z M34.2,21.4
	c-0.1,0-0.2,0.1-0.3,0.1l-3.4,1.7l-1.6-0.5c0.1-7,2.5-10.4,4.3-12.4c0.6,0.8,0.9,1.8,0.9,2.9L34.2,21.4z M29.2,8.2
	c0.9,0,1.7,0.3,2.5,0.7c-2.4,2.7-4.6,6.4-4.9,13.1l-1.4-0.5c-0.2-0.1-0.5-0.1-0.7,0L20,23.2l-3.8-1.8c-0.1-0.1-0.3-0.1-0.4-0.1v-8.2
	c0-0.9,0.3-1.8,0.7-2.5c2.6,0.8,5.4,1.2,8.5,1.2c0.6,0,1.1-0.5,1.1-1.1s-0.5-1-1.1-1c-2.4,0-4.7-0.3-6.8-0.8
	c0.8-0.5,1.6-0.8,2.6-0.8h8.4C29.2,8.1,29.2,8.2,29.2,8.2z M35.3,37.1c0,2.6-2.1,4.7-4.7,4.7H19.4c-2.6,0-4.7-2.1-4.7-4.7V24.9
	l1.3-1.2l3.5,1.6c0.3,0.1,0.6,0.1,0.8,0l4.6-1.8l5.2,1.8c0.3,0.1,0.6,0.1,0.8-0.1l3.1-1.6l1.1,1.1v12.4
	C35.1,37.1,35.3,37.1,35.3,37.1z"/>
<path class="st0" d="M27.6,30.5c0.1-0.6-0.3-1.1-0.9-1.2l-4.4-0.6H22l-4.4,0.6c-0.6,0.1-1,0.6-0.9,1.2s0.6,1,1.2,0.9l4.3-0.6
	l4.3,0.6h0.1C27,31.4,27.5,31.1,27.6,30.5z M31.8,36.2L29.9,36h-0.3l-1.9,0.3c-0.6,0.1-1,0.6-0.9,1.2c0.1,0.6,0.6,1,1.2,0.9l1.8-0.2
	l1.8,0.2h0.1c0.5,0,1-0.4,1.1-0.9C32.8,36.8,32.4,36.3,31.8,36.2z"/>
</svg>
