<?xml version="1.0" encoding="utf-8"?>
<!-- Generator: Adobe Illustrator 21.0.0, SVG Export Plug-In . SVG Version: 6.00 Build 0)  -->
<svg version="1.1" id="Layer_1" xmlns="http://www.w3.org/2000/svg" xmlns:xlink="http://www.w3.org/1999/xlink" x="0px" y="0px"
	 viewBox="0 0 50 50" style="enable-background:new 0 0 50 50;" xml:space="preserve">
<style type="text/css">
	.st0{fill:#8A8BA9;}
</style>
<path class="st0" d="M31.7,16.4c0-0.1,0-0.2-0.1-0.4v-0.1c0,0,0-0.1-0.1-0.1l-5.6-8.6c-0.4-0.6-1.4-0.6-1.8,0l-5.6,8.6
	c0,0,0,0.1-0.1,0.1V16c0,0.1-0.1,0.2-0.1,0.4v25.9c0,0.6,0.5,1.1,1.1,1.1h11.2c0.6,0,1.1-0.5,1.1-1.1C31.7,42.3,31.7,16.4,31.7,16.4
	z M20.5,17.4h9V34h-9V17.4z M23.7,11.7h2.6l2.3,3.6h-7.2C21.4,15.3,23.7,11.7,23.7,11.7z M20.5,41.2v-5h9v5H20.5z"/>
<path class="st0" d="M23,19.6c-0.6,0-1.1,0.5-1.1,1.1v10.2c0,0.6,0.5,1.1,1.1,1.1s1.1-0.5,1.1-1.1V20.7C24.1,20.1,23.6,19.6,23,19.6
	z M27,19.6c-0.6,0-1.1,0.5-1.1,1.1v10.2c0,0.6,0.5,1.1,1.1,1.1s1.1-0.5,1.1-1.1V20.7C28.1,20.1,27.6,19.6,27,19.6z"/>
</svg>
