<?xml version="1.0" encoding="utf-8"?>
<!-- Generator: Adobe Illustrator 21.0.0, SVG Export Plug-In . SVG Version: 6.00 Build 0)  -->
<svg version="1.1" id="Layer_1" xmlns="http://www.w3.org/2000/svg" xmlns:xlink="http://www.w3.org/1999/xlink" x="0px" y="0px"
	 viewBox="0 0 50 50" style="enable-background:new 0 0 50 50;" xml:space="preserve">
<style type="text/css">
	.st0{fill:#8A8BA9;}
</style>
<path class="st0" d="M30.9,8.3c0.4,0.4,0.6,0.9,0.6,1.5s-0.2,1.1-0.6,1.5s-0.9,0.6-1.5,0.6h-9.9v28c0,0.6-0.2,1.1-0.7,1.6
	c-0.4,0.4-1,0.6-1.6,0.6s-1.1-0.2-1.6-0.6c-0.4-0.4-0.6-0.9-0.6-1.6v-28H5c-0.6,0-1.1-0.2-1.5-0.6c-0.4-0.4-0.6-0.9-0.6-1.5
	s0.2-1.1,0.6-1.5C3.9,7.9,4.4,7.7,5,7.7h24.3C30,7.7,30.5,7.9,30.9,8.3z M42.1,38.4c0.9,0,1.5-0.1,1.9-0.2c0.4-0.1,0.8-0.2,1.2-0.2
	s0.8,0.2,1.2,0.5s0.5,0.8,0.5,1.5s-0.3,1.1-1,1.4c-1.4,0.6-2.6,1-3.6,1s-1.9,0-2.7-0.1s-1.6-0.4-2.3-0.8c-1.8-1-2.7-2.9-2.7-5.5
	V20.7h-3.5c-0.6,0-0.9-0.3-0.9-0.9c0-0.3,0.1-0.6,0.4-0.8l6.6-6.5c0.3-0.3,0.6-0.4,0.8-0.4c0.3,0,0.5,0.1,0.7,0.3s0.3,0.4,0.3,0.7
	V17h5.5c0.6,0,1,0.2,1.4,0.5c0.4,0.4,0.5,0.8,0.5,1.4s-0.2,1-0.5,1.4c-0.4,0.4-0.8,0.5-1.4,0.5H39v14.7c0,1.2,0.4,2.1,1.1,2.5
	C40.6,38.2,41.2,38.4,42.1,38.4z"/>
</svg>
