<?xml version="1.0" encoding="utf-8"?>
<!-- Generator: Adobe Illustrator 21.0.0, SVG Export Plug-In . SVG Version: 6.00 Build 0)  -->
<svg version="1.1" id="Layer_1" xmlns="http://www.w3.org/2000/svg" xmlns:xlink="http://www.w3.org/1999/xlink" x="0px" y="0px"
	 viewBox="0 0 50 50" style="enable-background:new 0 0 50 50;" xml:space="preserve">
<style type="text/css">
	.st0{fill:#8A8BA9;}
</style>
<path class="st0" d="M13.6,27H7.7c-0.6,0-1-0.4-1-1v-1c0-5.2,2.1-9.9,6-13.5c0.2-0.3,0.5-0.5,0.9-0.5h0.1c0.4,0,0.8,0.3,0.9,0.7
	c0.1,0.3,0.1,0.5,0,0.8V26C14.6,26.6,14.2,27,13.6,27z M8.7,25h3.9V14.5C10.1,17.4,8.7,21.1,8.7,25z M42.3,27H22c-0.6,0-1-0.4-1-1V8
	c0-0.5,0.3-0.9,0.8-1c1.1-0.2,2.1-0.3,3.2-0.3c10.1,0,18.3,8.2,18.3,18.3v1C43.3,26.6,42.9,27,42.3,27z M23,25h18.3
	C41.3,16,34,8.7,25,8.7c-0.7,0-1.3,0-2,0.1V25z M13.7,39c-0.2,0-0.5-0.1-0.7-0.3c-2.3-2-4-4.4-5-6.9c-0.1-0.3-0.1-0.7,0.1-0.9
	c0.2-0.2,0.5-0.4,0.8-0.4h4.7c0.6,0,1,0.4,1,1V38c0,0.4-0.2,0.8-0.6,0.9C14,39,13.8,39,13.7,39z M10.6,32.5c0.6,1.1,1.3,2.1,2.1,3.1
	v-3.1H10.6z M25,43.3c-1.1,0-2.1-0.1-3.2-0.3c-0.5-0.1-0.8-0.5-0.8-1V31.5c0-0.6,0.4-1,1-1h19c0.3,0,0.6,0.2,0.8,0.4
	c0.2,0.3,0.2,0.6,0.1,0.9C39.1,38.8,32.4,43.3,25,43.3z M23,41.2c0.7,0.1,1.3,0.1,2,0.1c6.1,0,11.6-3.4,14.4-8.8H23V41.2z"/>
</svg>
