<svg id="Layer_1" xmlns="http://www.w3.org/2000/svg" viewBox="0 0 50 50"><style>.st0{fill:#FFFFFF;}</style><path class="st0" d="M37.1 23.7l-.8-.8v-9.7c0-3.9-3.2-7.1-7.1-7.1h-8.3c-3.9 0-7.1 3.2-7.1 7.1V23l-.8.7c-.2.2-.3.5-.3.8v12.7c0 3.8 3.1 6.9 6.9 6.9h11.1c3.8 0 6.9-3.1 6.9-6.9V24.4c-.2-.3-.3-.5-.5-.7zm-2.9-2.3c-.1 0-.2.1-.3.1l-3.4 1.7-1.6-.5c.1-7 2.5-10.4 4.3-12.4.6.8.9 1.8.9 2.9l.1 8.2zm-5-13.2c.9 0 1.7.3 2.5.7-2.4 2.7-4.6 6.4-4.9 13.1l-1.4-.5c-.2-.1-.5-.1-.7 0L20 23.2l-3.8-1.8c-.1-.1-.3-.1-.4-.1v-8.2c0-.9.3-1.8.7-2.5 2.6.8 5.4 1.2 8.5 1.2.6 0 1.1-.5 1.1-1.1s-.5-1-1.1-1c-2.4 0-4.7-.3-6.8-.8.8-.5 1.6-.8 2.6-.8h8.4v.1zm6.1 28.9c0 2.6-2.1 4.7-4.7 4.7H19.4c-2.6 0-4.7-2.1-4.7-4.7V24.9l1.3-1.2 3.5 1.6c.3.1.6.1.8 0l4.6-1.8 5.2 1.8c.3.1.6.1.8-.1l3.1-1.6 1.1 1.1v12.4h.2z"/><path class="st0" d="M27.6 30.5c.1-.6-.3-1.1-.9-1.2l-4.4-.6H22l-4.4.6c-.6.1-1 .6-.9 1.2s.6 1 1.2.9l4.3-.6 4.3.6h.1c.4 0 .9-.3 1-.9zm4.2 5.7l-1.9-.2h-.3l-1.9.3c-.6.1-1 .6-.9 1.2.1.6.6 1 1.2.9l1.8-.2 1.8.2h.1c.5 0 1-.4 1.1-.9 0-.7-.4-1.2-1-1.3z"/></svg>