<?xml version="1.0" encoding="utf-8"?>
<!-- Generator: Adobe Illustrator 21.0.0, SVG Export Plug-In . SVG Version: 6.00 Build 0)  -->
<svg version="1.1" id="Layer_1" xmlns="http://www.w3.org/2000/svg" xmlns:xlink="http://www.w3.org/1999/xlink" x="0px" y="0px"
	 viewBox="0 0 190.7 190.7" style="enable-background:new 0 0 190.7 190.7;" xml:space="preserve">
<style type="text/css">
	.st0{fill:#FFFFFF;}
</style>
<g>
	<g>
		<path class="st0" d="M137,131.8V77.9c0-2.1-1.3-3.9-3.2-4.7c-1.9-0.8-4.1-0.3-5.6,1.1l-32.8,32.9L62.6,74.3
			c-1.5-1.5-3.7-1.9-5.6-1.1c-1.9,0.8-3.2,2.7-3.2,4.7v53.8c0,2.8,2.3,5.1,5.1,5.1s5.1-2.3,5.1-5.1V90.3l27.7,27.7
			c1.9,1.9,5.3,1.9,7.3,0l27.7-27.7v41.4c0,2.8,2.3,5.1,5.1,5.1S137,134.6,137,131.8z"/>
		<path class="st0" d="M177.4,8.2h-45.6c-0.3,0-0.7,0-1,0.1c-0.1,0-0.2,0.1-0.4,0.1c-0.2,0.1-0.4,0.1-0.6,0.2
			c-0.2,0.1-0.3,0.2-0.4,0.2c-0.1,0.1-0.3,0.1-0.4,0.2c-0.3,0.2-0.5,0.4-0.8,0.6l0,0L95.4,42.6L62.6,9.7l0,0
			c-0.2-0.2-0.5-0.5-0.8-0.6c-0.1-0.1-0.3-0.1-0.4-0.2c-0.2-0.1-0.3-0.2-0.5-0.3c-0.2-0.1-0.4-0.1-0.5-0.2c-0.1,0-0.3-0.1-0.4-0.1
			c-0.3-0.1-0.7-0.1-1-0.1h0H13.3c-2.8,0-5.1,2.3-5.1,5.1v164.1c0,2.8,2.3,5.1,5.1,5.1h41.6c2.8,0,5.1-2.3,5.1-5.1s-2.3-5.1-5.1-5.1
			H18.4V18.4h38.3l34.9,35c1,1,2.3,1.5,3.6,1.5c1.4,0,2.7-0.5,3.6-1.5l34.9-35h38.3v153.9h-36.5c-2.8,0-5.1,2.3-5.1,5.1
			s2.3,5.1,5.1,5.1h41.6c2.8,0,5.1-2.3,5.1-5.1V13.3C182.6,10.5,180.3,8.2,177.4,8.2z"/>
	</g>
</g>
</svg>
